Playfair_1200pt SemiExpanded Black.ufo
<glyph name="numbersign" format="2">
  <advance width="913"/>
  <unicode hex="0023"/>
  <outline>
    <contour>
      <point x="510" y="16" type="line"/>
      <point x="640" y="52" type="line"/>
      <point x="764" y="693" type="line"/>
      <point x="634" y="656" type="line"/>
    </contour>
    <contour>
      <point x="77" y="27" type="line"/>
      <point x="770" y="220" type="line"/>
      <point x="770" y="221" type="line"/>
      <point x="77" y="28" type="line"/>
    </contour>
    <contour>
      <point x="153" y="-84" type="line"/>
      <point x="283" y="-47" type="line"/>
      <point x="407" y="593" type="line"/>
      <point x="277" y="557" type="line"/>
    </contour>
    <contour>
      <point x="143" y="365" type="line"/>
      <point x="836" y="558" type="line"/>
      <point x="836" y="559" type="line"/>
      <point x="143" y="366" type="line"/>
    </contour>
  </outline>
</glyph>
<glyph name="percent" format="2">
  <advance width="910"/>
  <unicode hex="0025"/>
  <outline>
    <contour>
      <point x="156" y="-14" type="line"/>
      <point x="764" y="533" type="line"/>
      <point x="763" y="534" type="line"/>
      <point x="155" y="-13" type="line"/>
    </contour>
    <contour>
      <point x="657" y="-14" type="curve" smooth="yes"/>
      <point x="760" y="-14"/>
      <point x="830" y="38"/>
      <point x="830" y="115" type="curve" smooth="yes"/>
      <point x="830" y="189"/>
      <point x="765" y="237"/>
      <point x="665" y="237" type="curve" smooth="yes"/>
      <point x="562" y="237"/>
      <point x="492" y="185"/>
      <point x="492" y="108" type="curve" smooth="yes"/>
      <point x="492" y="34"/>
      <point x="557" y="-14"/>
    </contour>
    <contour>
      <point x="662" y="-13" type="curve" smooth="yes"/>
      <point x="625" y="-13"/>
      <point x="605" y="32"/>
      <point x="605" y="114" type="curve" smooth="yes"/>
      <point x="605" y="194"/>
      <point x="624" y="236"/>
      <point x="660" y="236" type="curve" smooth="yes"/>
      <point x="697" y="236"/>
      <point x="717" y="191"/>
      <point x="717" y="108" type="curve" smooth="yes"/>
      <point x="717" y="29"/>
      <point x="698" y="-13"/>
    </contour>
    <contour>
      <point x="245" y="282" type="curve" smooth="yes"/>
      <point x="348" y="282"/>
      <point x="418" y="334"/>
      <point x="418" y="410" type="curve" smooth="yes"/>
      <point x="418" y="484"/>
      <point x="352" y="533"/>
      <point x="253" y="533" type="curve" smooth="yes"/>
      <point x="150" y="533"/>
      <point x="80" y="481"/>
      <point x="80" y="404" type="curve" smooth="yes"/>
      <point x="80" y="331"/>
      <point x="146" y="282"/>
    </contour>
    <contour>
      <point x="250" y="283" type="curve" smooth="yes"/>
      <point x="213" y="283"/>
      <point x="193" y="328"/>
      <point x="193" y="410" type="curve" smooth="yes"/>
      <point x="193" y="490"/>
      <point x="212" y="532"/>
      <point x="248" y="532" type="curve" smooth="yes"/>
      <point x="285" y="532"/>
      <point x="305" y="487"/>
      <point x="305" y="405" type="curve" smooth="yes"/>
      <point x="305" y="325"/>
      <point x="286" y="283"/>
    </contour>
    <contour>
      <point x="547" y="475" type="curve" smooth="yes"/>
      <point x="628" y="475"/>
      <point x="707" y="496"/>
      <point x="764" y="533" type="curve"/>
      <point x="763" y="534" type="line"/>
      <point x="708" y="497"/>
      <point x="628" y="476"/>
      <point x="548" y="476" type="curve" smooth="yes"/>
      <point x="482" y="476"/>
      <point x="401" y="491"/>
      <point x="349" y="513" type="curve"/>
      <point x="348" y="512" type="line"/>
      <point x="403" y="490"/>
      <point x="482" y="475"/>
    </contour>
  </outline>
</glyph>
<glyph name="ampersand" format="2">
  <advance width="1365"/>
  <unicode hex="0026"/>
  <outline>
    <contour>
      <point x="431" y="-14" type="curve" smooth="yes"/>
      <point x="682" y="-14"/>
      <point x="849" y="96"/>
      <point x="952" y="337" type="curve"/>
      <point x="951" y="337" type="line"/>
      <point x="863" y="164"/>
      <point x="712" y="75"/>
      <point x="523" y="75" type="curve" smooth="yes"/>
      <point x="340" y="75"/>
      <point x="232" y="155"/>
      <point x="232" y="304" type="curve" smooth="yes"/>
      <point x="232" y="426"/>
      <point x="296" y="531"/>
      <point x="364" y="531" type="curve" smooth="yes"/>
      <point x="392" y="531"/>
      <point x="412" y="503"/>
      <point x="412" y="455" type="curve" smooth="yes"/>
      <point x="412" y="373"/>
      <point x="365" y="303"/>
      <point x="282" y="250" type="curve"/>
      <point x="283" y="249" type="line"/>
      <point x="560" y="358"/>
      <point x="764" y="518"/>
      <point x="764" y="630" type="curve" smooth="yes"/>
      <point x="764" y="678"/>
      <point x="734" y="712"/>
      <point x="690" y="712" type="curve" smooth="yes"/>
      <point x="653" y="712"/>
      <point x="628" y="689"/>
      <point x="628" y="656" type="curve" smooth="yes"/>
      <point x="628" y="605"/>
      <point x="689" y="566"/>
      <point x="689" y="519" type="curve" smooth="yes"/>
      <point x="689" y="474"/>
      <point x="557" y="383"/>
      <point x="460" y="332" type="curve"/>
      <point x="462" y="332" type="line"/>
      <point x="519" y="381"/>
      <point x="537" y="413"/>
      <point x="537" y="444" type="curve" smooth="yes"/>
      <point x="537" y="499"/>
      <point x="473" y="533"/>
      <point x="372" y="533" type="curve" smooth="yes"/>
      <point x="184" y="533"/>
      <point x="44" y="412"/>
      <point x="44" y="248" type="curve" smooth="yes"/>
      <point x="44" y="86"/>
      <point x="199" y="-14"/>
    </contour>
    <contour>
      <point x="666" y="152" type="curve" smooth="yes"/>
      <point x="701" y="152"/>
      <point x="728" y="176"/>
      <point x="728" y="208" type="curve" smooth="yes"/>
      <point x="728" y="277"/>
      <point x="615" y="308"/>
      <point x="615" y="329" type="curve" smooth="yes"/>
      <point x="615" y="341"/>
      <point x="674" y="348"/>
      <point x="766" y="348" type="curve" smooth="yes"/>
      <point x="976" y="348"/>
      <point x="1001" y="308"/>
      <point x="1133" y="308" type="curve" smooth="yes"/>
      <point x="1249" y="308"/>
      <point x="1327" y="363"/>
      <point x="1327" y="436" type="curve" smooth="yes"/>
      <point x="1327" y="475"/>
      <point x="1304" y="498"/>
      <point x="1264" y="498" type="curve" smooth="yes"/>
      <point x="1158" y="498"/>
      <point x="1207" y="310"/>
      <point x="1147" y="310" type="curve" smooth="yes"/>
      <point x="1076" y="310"/>
      <point x="997" y="438"/>
      <point x="828" y="438" type="curve" smooth="yes"/>
      <point x="708" y="438"/>
      <point x="581" y="340"/>
      <point x="581" y="243" type="curve" smooth="yes"/>
      <point x="581" y="191"/>
      <point x="617" y="152"/>
    </contour>
  </outline>
</glyph>
<glyph name="quotesingle" format="2">
  <advance width="329"/>
  <unicode hex="0027"/>
  <outline>
    <contour>
      <point x="165" y="438" type="curve"/>
      <point x="166" y="438" type="line"/>
      <point x="216" y="545"/>
      <point x="261" y="581"/>
      <point x="261" y="643" type="curve" smooth="yes"/>
      <point x="261" y="694"/>
      <point x="220" y="730"/>
      <point x="164" y="730" type="curve" smooth="yes"/>
      <point x="109" y="730"/>
      <point x="68" y="693"/>
      <point x="68" y="642" type="curve" smooth="yes"/>
      <point x="68" y="580"/>
      <point x="115" y="545"/>
    </contour>
  </outline>
</glyph>
<glyph name="parenleft" format="2">
  <advance width="575"/>
  <unicode hex="0028"/>
  <outline>
    <contour>
      <point x="542" y="-191" type="curve"/>
      <point x="543" y="-190" type="line"/>
      <point x="380" y="-70"/>
      <point x="297" y="94"/>
      <point x="297" y="295" type="curve" smooth="yes"/>
      <point x="297" y="496"/>
      <point x="380" y="660"/>
      <point x="543" y="781" type="curve"/>
      <point x="542" y="782" type="line"/>
      <point x="288" y="696"/>
      <point x="140" y="516"/>
      <point x="140" y="295" type="curve" smooth="yes"/>
      <point x="140" y="73"/>
      <point x="289" y="-106"/>
    </contour>
  </outline>
</glyph>
<glyph name="asterisk" format="2">
  <advance width="492"/>
  <unicode hex="002A"/>
  <outline>
    <contour>
      <point x="428" y="624" type="curve" smooth="yes"/>
      <point x="415" y="648"/>
      <point x="388" y="666"/>
      <point x="353" y="646" type="curve" smooth="yes"/>
      <point x="321" y="627"/>
      <point x="293" y="579"/>
      <point x="245" y="520" type="curve"/>
      <point x="247" y="517" type="line"/>
      <point x="326" y="530"/>
      <point x="377" y="529"/>
      <point x="410" y="548" type="curve" smooth="yes"/>
      <point x="445" y="568"/>
      <point x="443" y="599"/>
    </contour>
    <contour>
      <point x="429" y="413" type="curve" smooth="yes"/>
      <point x="443" y="437"/>
      <point x="445" y="469"/>
      <point x="410" y="489" type="curve" smooth="yes"/>
      <point x="378" y="508"/>
      <point x="322" y="508"/>
      <point x="247" y="520" type="curve"/>
      <point x="246" y="517" type="line"/>
      <point x="296" y="455"/>
      <point x="321" y="410"/>
      <point x="354" y="391" type="curve" smooth="yes"/>
      <point x="389" y="371"/>
      <point x="415" y="388"/>
    </contour>
    <contour>
      <point x="247" y="307" type="curve" smooth="yes"/>
      <point x="274" y="307"/>
      <point x="303" y="321"/>
      <point x="303" y="361" type="curve" smooth="yes"/>
      <point x="303" y="399"/>
      <point x="275" y="447"/>
      <point x="248" y="518" type="curve"/>
      <point x="245" y="517" type="line"/>
      <point x="216" y="443"/>
      <point x="190" y="399"/>
      <point x="190" y="361" type="curve" smooth="yes"/>
      <point x="190" y="321"/>
      <point x="218" y="307"/>
    </contour>
    <contour>
      <point x="64" y="412" type="curve" smooth="yes"/>
      <point x="77" y="388"/>
      <point x="104" y="370"/>
      <point x="139" y="390" type="curve" smooth="yes"/>
      <point x="171" y="409"/>
      <point x="199" y="457"/>
      <point x="247" y="516" type="curve"/>
      <point x="245" y="518" type="line"/>
      <point x="166" y="506"/>
      <point x="115" y="507"/>
      <point x="82" y="488" type="curve" smooth="yes"/>
      <point x="47" y="468"/>
      <point x="49" y="437"/>
    </contour>
    <contour>
      <point x="63" y="623" type="curve" smooth="yes"/>
      <point x="49" y="599"/>
      <point x="47" y="567"/>
      <point x="82" y="547" type="curve" smooth="yes"/>
      <point x="114" y="528"/>
      <point x="170" y="528"/>
      <point x="245" y="516" type="curve"/>
      <point x="246" y="519" type="line"/>
      <point x="196" y="581"/>
      <point x="171" y="626"/>
      <point x="138" y="645" type="curve" smooth="yes"/>
      <point x="103" y="665"/>
      <point x="77" y="648"/>
    </contour>
    <contour>
      <point x="246" y="729" type="curve" smooth="yes"/>
      <point x="218" y="729"/>
      <point x="189" y="715"/>
      <point x="189" y="675" type="curve" smooth="yes"/>
      <point x="189" y="637"/>
      <point x="217" y="589"/>
      <point x="244" y="518" type="curve"/>
      <point x="247" y="518" type="line"/>
      <point x="275" y="593"/>
      <point x="302" y="637"/>
      <point x="302" y="675" type="curve" smooth="yes"/>
      <point x="302" y="715"/>
      <point x="274" y="729"/>
    </contour>
  </outline>
</glyph>
<glyph name="comma" format="2">
  <advance width="339"/>
  <unicode hex="002C"/>
  <outline>
    <contour>
      <point x="134" y="-124" type="line"/>
      <point x="236" y="-99"/>
      <point x="281" y="-52"/>
      <point x="281" y="29" type="curve" smooth="yes"/>
      <point x="281" y="107"/>
      <point x="239" y="154"/>
      <point x="167" y="154" type="curve" smooth="yes"/>
      <point x="105" y="154"/>
      <point x="65" y="121"/>
      <point x="65" y="71" type="curve" smooth="yes"/>
      <point x="65" y="24"/>
      <point x="99" y="-9"/>
      <point x="149" y="-9" type="curve" smooth="yes"/>
      <point x="187" y="-9"/>
      <point x="225" y="11"/>
      <point x="248" y="11" type="curve" smooth="yes"/>
      <point x="261" y="11"/>
      <point x="269" y="2"/>
      <point x="269" y="-15" type="curve" smooth="yes"/>
      <point x="269" y="-55"/>
      <point x="227" y="-101"/>
      <point x="134" y="-123" type="curve"/>
    </contour>
  </outline>
</glyph>
<glyph name="hyphen" format="2">
  <advance width="578"/>
  <unicode hex="002D"/>
  <outline>
    <contour>
      <point x="71" y="242" type="line"/>
      <point x="507" y="242" type="line"/>
      <point x="507" y="321" type="line"/>
      <point x="71" y="321" type="line"/>
    </contour>
  </outline>
</glyph>
<glyph name="period" format="2">
  <advance width="346"/>
  <unicode hex="002E"/>
  <anchor x="0" y="0" name="^entry"/>
  <anchor x="429" y="0" name="^exit"/>
  <anchor x="173" y="0" name="_Ldot"/>
  <anchor x="173" y="140" name="_ascender"/>
  <anchor x="173" y="0" name="_baseline"/>
  <anchor x="173" y="0" name="_center"/>
  <anchor x="173" y="0" name="center"/>
  <outline>
    <contour>
      <point x="173" y="-14" type="curve" smooth="yes"/>
      <point x="237" y="-14"/>
      <point x="281" y="15"/>
      <point x="281" y="70" type="curve" smooth="yes"/>
      <point x="281" y="125"/>
      <point x="237" y="154"/>
      <point x="173" y="154" type="curve" smooth="yes"/>
      <point x="107" y="154"/>
      <point x="65" y="125"/>
      <point x="65" y="70" type="curve" smooth="yes"/>
      <point x="65" y="15"/>
      <point x="107" y="-14"/>
    </contour>
  </outline>
</glyph>
<glyph name="slash" format="2">
  <advance width="406"/>
  <unicode hex="002F"/>
  <anchor x="97" y="708" name="ascender"/>
  <anchor x="310" y="0" name="baseline"/>
  <outline>
    <contour>
      <point x="36" y="-14" type="line"/>
      <point x="37" y="-14" type="line"/>
      <point x="370" y="722" type="line"/>
      <point x="369" y="722" type="line"/>
    </contour>
  </outline>
</glyph>
<glyph name="zero" format="2">
  <advance width="825"/>
  <unicode hex="0030"/>
  <anchor x="413" y="260" name="center"/>
  <outline>
    <contour>
      <point x="406" y="-14" type="curve" smooth="yes"/>
      <point x="604" y="-14"/>
      <point x="753" y="104"/>
      <point x="753" y="268" type="curve" smooth="yes"/>
      <point x="753" y="425"/>
      <point x="614" y="533"/>
      <point x="419" y="533" type="curve" smooth="yes"/>
      <point x="220" y="533"/>
      <point x="72" y="416"/>
      <point x="72" y="252" type="curve" smooth="yes"/>
      <point x="72" y="95"/>
      <point x="211" y="-14"/>
    </contour>
    <contour>
      <point x="407" y="-13" type="curve" smooth="yes"/>
      <point x="317" y="-13"/>
      <point x="259" y="91"/>
      <point x="259" y="255" type="curve" smooth="yes"/>
      <point x="259" y="425"/>
      <point x="321" y="532"/>
      <point x="417" y="532" type="curve" smooth="yes"/>
      <point x="508" y="532"/>
      <point x="566" y="429"/>
      <point x="566" y="264" type="curve" smooth="yes"/>
      <point x="566" y="95"/>
      <point x="505" y="-13"/>
    </contour>
  </outline>
</glyph>
<glyph name="one" format="2">
  <advance width="457"/>
  <unicode hex="0031"/>
  <outline>
    <contour>
      <point x="34" y="0" type="line"/>
      <point x="77" y="1"/>
      <point x="158" y="4"/>
      <point x="243" y="4" type="curve" smooth="yes"/>
      <point x="307" y="4"/>
      <point x="375" y="1"/>
      <point x="407" y="0" type="curve"/>
      <point x="407" y="1" type="line"/>
      <point x="346" y="3"/>
      <point x="325" y="18"/>
      <point x="325" y="73" type="curve" smooth="yes"/>
      <point x="325" y="540" type="line"/>
      <point x="255" y="504"/>
      <point x="168" y="491"/>
      <point x="30" y="489" type="curve"/>
      <point x="30" y="488" type="line"/>
      <point x="131" y="486"/>
      <point x="145" y="464"/>
      <point x="145" y="379" type="curve" smooth="yes"/>
      <point x="145" y="83" type="line" smooth="yes"/>
      <point x="145" y="21"/>
      <point x="100" y="3"/>
      <point x="34" y="1" type="curve"/>
    </contour>
  </outline>
</glyph>
<glyph name="two" format="2">
  <advance width="620"/>
  <unicode hex="0032"/>
  <outline>
    <contour>
      <point x="578" y="-5" type="curve"/>
      <point x="575" y="35"/>
      <point x="574" y="88"/>
      <point x="574" y="188" type="curve"/>
      <point x="573" y="188" type="line"/>
      <point x="569" y="155"/>
      <point x="557" y="147"/>
      <point x="515" y="147" type="curve" smooth="yes"/>
      <point x="195" y="147" type="line"/>
      <point x="195" y="148" type="line"/>
      <point x="421" y="231"/>
      <point x="526" y="315"/>
      <point x="526" y="406" type="curve" smooth="yes"/>
      <point x="526" y="487"/>
      <point x="446" y="533"/>
      <point x="307" y="533" type="curve" smooth="yes"/>
      <point x="148" y="533"/>
      <point x="33" y="473"/>
      <point x="33" y="390" type="curve" smooth="yes"/>
      <point x="33" y="344"/>
      <point x="67" y="312"/>
      <point x="115" y="312" type="curve" smooth="yes"/>
      <point x="155" y="312"/>
      <point x="180" y="335"/>
      <point x="180" y="370" type="curve" smooth="yes"/>
      <point x="180" y="418"/>
      <point x="133" y="436"/>
      <point x="133" y="473" type="curve" smooth="yes"/>
      <point x="133" y="503"/>
      <point x="163" y="520"/>
      <point x="217" y="520" type="curve" smooth="yes"/>
      <point x="298" y="520"/>
      <point x="339" y="481"/>
      <point x="339" y="404" type="curve" smooth="yes"/>
      <point x="339" y="293"/>
      <point x="263" y="196"/>
      <point x="25" y="1" type="curve"/>
      <point x="25" y="0" type="line"/>
      <point x="484" y="0" type="line" smooth="yes"/>
      <point x="532" y="0"/>
      <point x="569" y="-2"/>
    </contour>
  </outline>
</glyph>
<glyph name="three" format="2">
  <advance width="640"/>
  <unicode hex="0033"/>
  <outline>
    <contour>
      <point x="302" y="-150" type="curve" smooth="yes"/>
      <point x="477" y="-150"/>
      <point x="594" y="-79"/>
      <point x="594" y="25" type="curve" smooth="yes"/>
      <point x="594" y="126"/>
      <point x="474" y="192"/>
      <point x="290" y="195" type="curve"/>
      <point x="458" y="208"/>
      <point x="564" y="278"/>
      <point x="564" y="376" type="curve" smooth="yes"/>
      <point x="564" y="471"/>
      <point x="468" y="533"/>
      <point x="322" y="533" type="curve" smooth="yes"/>
      <point x="172" y="533"/>
      <point x="50" y="468"/>
      <point x="50" y="389" type="curve" smooth="yes"/>
      <point x="50" y="345"/>
      <point x="85" y="312"/>
      <point x="133" y="312" type="curve" smooth="yes"/>
      <point x="172" y="312"/>
      <point x="197" y="334"/>
      <point x="197" y="369" type="curve" smooth="yes"/>
      <point x="197" y="415"/>
      <point x="152" y="435"/>
      <point x="152" y="471" type="curve" smooth="yes"/>
      <point x="152" y="501"/>
      <point x="184" y="519"/>
      <point x="238" y="519" type="curve" smooth="yes"/>
      <point x="331" y="519"/>
      <point x="394" y="458"/>
      <point x="394" y="368" type="curve" smooth="yes"/>
      <point x="394" y="294"/>
      <point x="351" y="224"/>
      <point x="289" y="196" type="curve"/>
      <point x="273" y="197"/>
      <point x="259" y="198"/>
      <point x="246" y="198" type="curve" smooth="yes"/>
      <point x="226" y="198"/>
      <point x="216" y="195"/>
      <point x="216" y="189" type="curve" smooth="yes"/>
      <point x="216" y="184"/>
      <point x="221" y="182"/>
      <point x="233" y="182" type="curve" smooth="yes"/>
      <point x="251" y="182"/>
      <point x="274" y="187"/>
      <point x="289" y="194" type="curve"/>
      <point x="355" y="194"/>
      <point x="407" y="123"/>
      <point x="407" y="34" type="curve" smooth="yes"/>
      <point x="407" y="-70"/>
      <point x="336" y="-142"/>
      <point x="232" y="-142" type="curve" smooth="yes"/>
      <point x="181" y="-142"/>
      <point x="146" y="-125"/>
      <point x="146" y="-100" type="curve" smooth="yes"/>
      <point x="146" y="-66"/>
      <point x="213" y="-36"/>
      <point x="213" y="21" type="curve" smooth="yes"/>
      <point x="213" y="61"/>
      <point x="179" y="89"/>
      <point x="129" y="89" type="curve" smooth="yes"/>
      <point x="74" y="89"/>
      <point x="36" y="52"/>
      <point x="36" y="-1" type="curve" smooth="yes"/>
      <point x="36" y="-91"/>
      <point x="141" y="-150"/>
    </contour>
  </outline>
</glyph>
<glyph name="four" format="2">
  <advance width="629"/>
  <unicode hex="0034"/>
  <outline>
    <contour>
      <point x="61" y="24" type="line"/>
      <point x="618" y="24" type="line"/>
      <point x="618" y="161" type="line"/>
      <point x="80" y="161" type="line"/>
      <point x="79" y="159" type="line"/>
      <point x="287" y="242"/>
      <point x="482" y="364"/>
      <point x="550" y="533" type="curve"/>
      <point x="334" y="533" type="line"/>
      <point x="282" y="312"/>
      <point x="238" y="284"/>
      <point x="61" y="160" type="curve"/>
    </contour>
    <contour>
      <point x="331" y="-141" type="line"/>
      <point x="471" y="-141" type="line"/>
      <point x="470" y="295" type="line"/>
      <point x="331" y="193" type="line"/>
    </contour>
  </outline>
</glyph>
<glyph name="five" format="2">
  <advance width="613"/>
  <unicode hex="0035"/>
  <outline>
    <contour>
      <point x="277" y="-150" type="curve" smooth="yes"/>
      <point x="446" y="-150"/>
      <point x="570" y="-70"/>
      <point x="570" y="57" type="curve" smooth="yes"/>
      <point x="570" y="180"/>
      <point x="469" y="251"/>
      <point x="306" y="251" type="curve" smooth="yes"/>
      <point x="227" y="251"/>
      <point x="153" y="232"/>
      <point x="115" y="215" type="curve"/>
      <point x="140" y="367" type="line"/>
      <point x="191" y="358"/>
      <point x="248" y="353"/>
      <point x="299" y="353" type="curve" smooth="yes"/>
      <point x="454" y="353"/>
      <point x="540" y="419"/>
      <point x="543" y="548" type="curve"/>
      <point x="542" y="548" type="line"/>
      <point x="499" y="519"/>
      <point x="414" y="503"/>
      <point x="324" y="503" type="curve" smooth="yes"/>
      <point x="261" y="503"/>
      <point x="196" y="510"/>
      <point x="163" y="519" type="curve"/>
      <point x="113" y="213" type="line"/>
      <point x="115" y="213" type="line"/>
      <point x="142" y="224"/>
      <point x="174" y="231"/>
      <point x="216" y="231" type="curve" smooth="yes"/>
      <point x="316" y="231"/>
      <point x="383" y="167"/>
      <point x="383" y="54" type="curve" smooth="yes"/>
      <point x="383" y="-64"/>
      <point x="312" y="-142"/>
      <point x="206" y="-142" type="curve" smooth="yes"/>
      <point x="168" y="-142"/>
      <point x="149" y="-130"/>
      <point x="149" y="-107" type="curve" smooth="yes"/>
      <point x="149" y="-60"/>
      <point x="203" y="-48"/>
      <point x="203" y="12" type="curve" smooth="yes"/>
      <point x="203" y="54"/>
      <point x="173" y="79"/>
      <point x="126" y="79" type="curve" smooth="yes"/>
      <point x="73" y="79"/>
      <point x="36" y="42"/>
      <point x="36" y="-14" type="curve" smooth="yes"/>
      <point x="36" y="-97"/>
      <point x="132" y="-150"/>
    </contour>
    <contour>
      <point x="93" y="177" type="curve" smooth="yes"/>
      <point x="105" y="177"/>
      <point x="114" y="192"/>
      <point x="115" y="214" type="curve"/>
      <point x="114" y="214" type="line"/>
      <point x="95" y="204"/>
      <point x="85" y="194"/>
      <point x="85" y="185" type="curve" smooth="yes"/>
      <point x="85" y="180"/>
      <point x="88" y="177"/>
    </contour>
  </outline>
</glyph>
<glyph name="six" format="2">
  <advance width="741"/>
  <unicode hex="0036"/>
  <outline>
    <contour>
      <point x="377" y="-14" type="curve" smooth="yes"/>
      <point x="556" y="-14"/>
      <point x="669" y="80"/>
      <point x="669" y="227" type="curve" smooth="yes"/>
      <point x="669" y="360"/>
      <point x="576" y="448"/>
      <point x="437" y="448" type="curve" smooth="yes"/>
      <point x="350" y="448"/>
      <point x="287" y="411"/>
      <point x="253" y="348" type="curve"/>
      <point x="254" y="348" type="line"/>
      <point x="284" y="397"/>
      <point x="319" y="420"/>
      <point x="364" y="420" type="curve" smooth="yes"/>
      <point x="444" y="420"/>
      <point x="482" y="353"/>
      <point x="482" y="214" type="curve" smooth="yes"/>
      <point x="482" y="73"/>
      <point x="443" y="-13"/>
      <point x="378" y="-13" type="curve" smooth="yes"/>
      <point x="301" y="-13"/>
      <point x="259" y="106"/>
      <point x="259" y="323" type="curve" smooth="yes"/>
      <point x="259" y="588"/>
      <point x="323" y="716"/>
      <point x="457" y="716" type="curve" smooth="yes"/>
      <point x="503" y="716"/>
      <point x="528" y="701"/>
      <point x="528" y="675" type="curve" smooth="yes"/>
      <point x="528" y="638"/>
      <point x="480" y="614"/>
      <point x="480" y="568" type="curve" smooth="yes"/>
      <point x="480" y="533"/>
      <point x="506" y="511"/>
      <point x="546" y="511" type="curve" smooth="yes"/>
      <point x="594" y="511"/>
      <point x="627" y="543"/>
      <point x="627" y="589" type="curve" smooth="yes"/>
      <point x="627" y="665"/>
      <point x="536" y="722"/>
      <point x="416" y="722" type="curve" smooth="yes"/>
      <point x="212" y="722"/>
      <point x="72" y="556"/>
      <point x="72" y="313" type="curve" smooth="yes"/>
      <point x="72" y="100"/>
      <point x="178" y="-14"/>
    </contour>
  </outline>
</glyph>
<glyph name="seven" format="2">
  <advance width="578"/>
  <unicode hex="0037"/>
  <outline>
    <contour>
      <point x="287" y="-148" type="curve" smooth="yes"/>
      <point x="346" y="-148"/>
      <point x="375" y="-111"/>
      <point x="375" y="-60" type="curve" smooth="yes"/>
      <point x="375" y="-28"/>
      <point x="369" y="-10"/>
      <point x="369" y="22" type="curve" smooth="yes"/>
      <point x="369" y="229"/>
      <point x="518" y="408"/>
      <point x="583" y="518" type="curve"/>
      <point x="583" y="519" type="line"/>
      <point x="175" y="519" type="line" smooth="yes"/>
      <point x="124" y="519"/>
      <point x="58" y="520"/>
      <point x="42" y="524" type="curve"/>
      <point x="46" y="474"/>
      <point x="47" y="415"/>
      <point x="47" y="301" type="curve"/>
      <point x="48" y="301" type="line"/>
      <point x="54" y="355"/>
      <point x="74" y="372"/>
      <point x="135" y="372" type="curve" smooth="yes"/>
      <point x="487" y="372" type="line"/>
      <point x="487" y="371" type="line"/>
      <point x="434" y="288"/>
      <point x="193" y="115"/>
      <point x="193" y="-39" type="curve" smooth="yes"/>
      <point x="193" y="-105"/>
      <point x="223" y="-148"/>
    </contour>
  </outline>
</glyph>
<glyph name="eight" format="2">
  <advance width="668"/>
  <unicode hex="0038"/>
  <outline>
    <contour>
      <point x="334" y="-14" type="curve" smooth="yes"/>
      <point x="497" y="-14"/>
      <point x="622" y="72"/>
      <point x="622" y="199" type="curve" smooth="yes"/>
      <point x="622" y="445"/>
      <point x="211" y="435"/>
      <point x="211" y="621" type="curve" smooth="yes"/>
      <point x="211" y="680"/>
      <point x="253" y="720"/>
      <point x="315" y="720" type="curve" smooth="yes"/>
      <point x="403" y="720"/>
      <point x="469" y="648"/>
      <point x="469" y="553" type="curve" smooth="yes"/>
      <point x="469" y="504"/>
      <point x="460" y="460"/>
      <point x="440" y="419" type="curve"/>
      <point x="441" y="418" type="line"/>
      <point x="536" y="461"/>
      <point x="583" y="511"/>
      <point x="583" y="572" type="curve" smooth="yes"/>
      <point x="583" y="659"/>
      <point x="483" y="722"/>
      <point x="335" y="722" type="curve" smooth="yes"/>
      <point x="185" y="722"/>
      <point x="81" y="644"/>
      <point x="81" y="525" type="curve" smooth="yes"/>
      <point x="81" y="274"/>
      <point x="474" y="307"/>
      <point x="474" y="110" type="curve" smooth="yes"/>
      <point x="474" y="37"/>
      <point x="422" y="-12"/>
      <point x="344" y="-12" type="curve" smooth="yes"/>
      <point x="245" y="-12"/>
      <point x="176" y="69"/>
      <point x="176" y="193" type="curve" smooth="yes"/>
      <point x="176" y="244"/>
      <point x="187" y="285"/>
      <point x="210" y="334" type="curve"/>
      <point x="209" y="335" type="line"/>
      <point x="101" y="290"/>
      <point x="46" y="232"/>
      <point x="46" y="161" type="curve" smooth="yes"/>
      <point x="46" y="60"/>
      <point x="160" y="-14"/>
    </contour>
  </outline>
</glyph>
<glyph name="nine" format="2">
  <advance width="741"/>
  <unicode hex="0039"/>
  <outline>
    <contour>
      <point x="330" y="-149" type="curve" smooth="yes"/>
      <point x="534" y="-149"/>
      <point x="669" y="-3"/>
      <point x="669" y="219" type="curve" smooth="yes"/>
      <point x="669" y="420"/>
      <point x="559" y="533"/>
      <point x="361" y="533" type="curve" smooth="yes"/>
      <point x="186" y="533"/>
      <point x="72" y="446"/>
      <point x="72" y="313" type="curve" smooth="yes"/>
      <point x="72" y="192"/>
      <point x="164" y="111"/>
      <point x="301" y="111" type="curve" smooth="yes"/>
      <point x="389" y="111"/>
      <point x="453" y="146"/>
      <point x="488" y="211" type="curve"/>
      <point x="487" y="211" type="line"/>
      <point x="457" y="162"/>
      <point x="422" y="139"/>
      <point x="377" y="139" type="curve" smooth="yes"/>
      <point x="297" y="139"/>
      <point x="259" y="199"/>
      <point x="259" y="325" type="curve" smooth="yes"/>
      <point x="259" y="453"/>
      <point x="298" y="532"/>
      <point x="361" y="532" type="curve" smooth="yes"/>
      <point x="438" y="532"/>
      <point x="482" y="414"/>
      <point x="482" y="209" type="curve" smooth="yes"/>
      <point x="482" y="-32"/>
      <point x="420" y="-143"/>
      <point x="286" y="-143" type="curve" smooth="yes"/>
      <point x="238" y="-143"/>
      <point x="213" y="-129"/>
      <point x="213" y="-102" type="curve" smooth="yes"/>
      <point x="213" y="-65"/>
      <point x="261" y="-41"/>
      <point x="261" y="5" type="curve" smooth="yes"/>
      <point x="261" y="40"/>
      <point x="235" y="62"/>
      <point x="195" y="62" type="curve" smooth="yes"/>
      <point x="147" y="62"/>
      <point x="114" y="30"/>
      <point x="114" y="-16" type="curve" smooth="yes"/>
      <point x="114" y="-93"/>
      <point x="205" y="-149"/>
    </contour>
  </outline>
</glyph>
<glyph name="at" format="2">
  <advance width="1176"/>
  <unicode hex="0040"/>
  <outline>
    <contour>
      <point x="486" y="-161" type="curve" smooth="yes"/>
      <point x="593" y="-161"/>
      <point x="684" y="-141"/>
      <point x="752" y="-102" type="curve"/>
      <point x="752" y="-101" type="line"/>
      <point x="684" y="-140"/>
      <point x="593" y="-160"/>
      <point x="486" y="-160" type="curve" smooth="yes"/>
      <point x="225" y="-160"/>
      <point x="80" y="-51"/>
      <point x="80" y="144" type="curve" smooth="yes"/>
      <point x="80" y="423"/>
      <point x="369" y="667"/>
      <point x="717" y="667" type="curve" smooth="yes"/>
      <point x="955" y="667"/>
      <point x="1104" y="563"/>
      <point x="1104" y="397" type="curve" smooth="yes"/>
      <point x="1104" y="183"/>
      <point x="929" y="47"/>
      <point x="808" y="47" type="curve" smooth="yes"/>
      <point x="773" y="47"/>
      <point x="767" y="55"/>
      <point x="776" y="87" type="curve" smooth="yes"/>
      <point x="868" y="415" type="line" smooth="yes"/>
      <point x="879" y="453"/>
      <point x="889" y="468"/>
      <point x="902" y="483" type="curve"/>
      <point x="901" y="484" type="line"/>
      <point x="863" y="439"/>
      <point x="795" y="410"/>
      <point x="707" y="393" type="curve"/>
      <point x="640" y="148" type="line" smooth="yes"/>
      <point x="618" y="67"/>
      <point x="655" y="26"/>
      <point x="738" y="26" type="curve" smooth="yes"/>
      <point x="928" y="26"/>
      <point x="1105" y="183"/>
      <point x="1105" y="396" type="curve" smooth="yes"/>
      <point x="1105" y="564"/>
      <point x="956" y="668"/>
      <point x="718" y="668" type="curve" smooth="yes"/>
      <point x="368" y="668"/>
      <point x="79" y="424"/>
      <point x="79" y="144" type="curve" smooth="yes"/>
      <point x="79" y="-52"/>
      <point x="224" y="-161"/>
    </contour>
    <contour>
      <point x="487" y="26" type="curve" smooth="yes"/>
      <point x="544" y="26"/>
      <point x="593" y="44"/>
      <point x="635" y="97" type="curve"/>
      <point x="635" y="98" type="line"/>
      <point x="607" y="88"/>
      <point x="589" y="84"/>
      <point x="561" y="84" type="curve" smooth="yes"/>
      <point x="503" y="84"/>
      <point x="471" y="119"/>
      <point x="471" y="206" type="curve" smooth="yes"/>
      <point x="471" y="341"/>
      <point x="551" y="476"/>
      <point x="640" y="476" type="curve" smooth="yes"/>
      <point x="681" y="476"/>
      <point x="706" y="447"/>
      <point x="705" y="369" type="curve"/>
      <point x="814" y="405" type="line"/>
      <point x="766" y="456"/>
      <point x="706" y="478"/>
      <point x="627" y="478" type="curve" smooth="yes"/>
      <point x="453" y="478"/>
      <point x="312" y="352"/>
      <point x="312" y="202" type="curve" smooth="yes"/>
      <point x="312" y="95"/>
      <point x="381" y="26"/>
    </contour>
  </outline>
</glyph>
<glyph name="A" format="2">
  <advance width="882"/>
  <unicode hex="0041"/>
  <anchor x="447" y="0" name="bottom"/>
  <anchor x="431" y="354" name="center"/>
  <anchor x="700" y="0" name="ogonek"/>
  <anchor x="433" y="708" name="top"/>
  <anchor x="433" y="688" name="top_low_1"/>
  <anchor x="433" y="668" name="top_low_2"/>
  <anchor x="433" y="648" name="top_low_3"/>
  <outline>
    <contour>
      <point x="181" y="237" type="curve"/>
      <point x="340" y="546" type="line"/>
      <point x="320" y="509" type="line"/>
      <point x="551" y="88" type="line"/>
      <point x="587" y="23"/>
      <point x="571" y="9"/>
      <point x="506" y="3" type="curve"/>
      <point x="486" y="1" type="line"/>
      <point x="486" y="0" type="line"/>
      <point x="532" y="1"/>
      <point x="612" y="3"/>
      <point x="713" y="3" type="curve"/>
      <point x="713" y="3" type="line"/>
      <point x="713" y="3" type="line"/>
      <point x="793" y="3"/>
      <point x="856" y="1"/>
      <point x="893" y="0" type="curve"/>
      <point x="893" y="1" type="line"/>
      <point x="873" y="3" type="line"/>
      <point x="832" y="7"/>
      <point x="817" y="20"/>
      <point x="790" y="68" type="curve"/>
      <point x="431" y="723" type="line"/>
      <point x="430" y="723" type="line"/>
      <point x="179" y="237" type="line"/>
      <point x="93" y="71"/>
      <point x="58" y="27"/>
      <point x="-8" y="8" type="curve"/>
      <point x="-32" y="1" type="line"/>
      <point x="-32" y="0" type="line"/>
      <point x="18" y="2"/>
      <point x="45" y="3"/>
      <point x="90" y="3" type="curve"/>
      <point x="137" y="3"/>
      <point x="167" y="2"/>
      <point x="242" y="0" type="curve"/>
      <point x="242" y="1" type="line"/>
      <point x="234" y="2" type="line"/>
      <point x="127" y="13"/>
      <point x="108" y="95"/>
    </contour>
    <contour>
      <point x="172" y="222" type="line"/>
      <point x="538" y="222" type="line"/>
      <point x="537" y="223" type="line"/>
      <point x="173" y="223" type="line"/>
    </contour>
  </outline>
</glyph>
<glyph name="B" format="2">
  <advance width="821"/>
  <unicode hex="0042"/>
  <anchor x="411" y="0" name="bottom"/>
  <anchor x="231" y="367" name="center"/>
  <anchor x="422" y="0" name="currency"/>
  <anchor x="411" y="708" name="top"/>
  <anchor x="411" y="688" name="top_low_1"/>
  <anchor x="411" y="668" name="top_low_2"/>
  <anchor x="411" y="648" name="top_low_3"/>
  <outline>
    <contour>
      <point x="352" y="0" type="curve"/>
      <point x="445" y="0" type="line" smooth="yes"/>
      <point x="675" y="0"/>
      <point x="788" y="60"/>
      <point x="788" y="182" type="curve" smooth="yes"/>
      <point x="788" y="304"/>
      <point x="673" y="367"/>
      <point x="449" y="367" type="curve"/>
      <point x="449" y="368" type="line"/>
      <point x="632" y="378"/>
      <point x="725" y="437"/>
      <point x="725" y="543" type="curve" smooth="yes"/>
      <point x="725" y="654"/>
      <point x="630" y="708"/>
      <point x="434" y="708" type="curve" smooth="yes"/>
      <point x="352" y="708" type="line"/>
      <point x="320" y="708"/>
      <point x="283" y="705"/>
      <point x="236" y="705" type="curve"/>
      <point x="149" y="705"/>
      <point x="80" y="707"/>
      <point x="40" y="708" type="curve"/>
      <point x="40" y="707" type="line"/>
      <point x="60" y="705" type="line"/>
      <point x="118" y="699"/>
      <point x="130" y="685"/>
      <point x="130" y="621" type="curve"/>
      <point x="130" y="87" type="line"/>
      <point x="130" y="23"/>
      <point x="118" y="9"/>
      <point x="60" y="3" type="curve"/>
      <point x="40" y="1" type="line"/>
      <point x="40" y="0" type="line"/>
      <point x="80" y="1"/>
      <point x="149" y="3"/>
      <point x="236" y="3" type="curve"/>
      <point x="283" y="3"/>
      <point x="320" y="0"/>
    </contour>
    <contour>
      <point x="402" y="2" type="curve" smooth="yes"/>
      <point x="346" y="2"/>
      <point x="333" y="18"/>
      <point x="333" y="87" type="curve" smooth="yes"/>
      <point x="333" y="705" type="line"/>
      <point x="416" y="705" type="line" smooth="yes"/>
      <point x="491" y="705"/>
      <point x="539" y="640"/>
      <point x="539" y="537" type="curve" smooth="yes"/>
      <point x="539" y="437"/>
      <point x="494" y="368"/>
      <point x="430" y="368" type="curve" smooth="yes"/>
      <point x="278" y="368" type="line"/>
      <point x="278" y="367" type="line"/>
      <point x="422" y="367" type="line" smooth="yes"/>
      <point x="520" y="367"/>
      <point x="578" y="300"/>
      <point x="578" y="186" type="curve" smooth="yes"/>
      <point x="578" y="68"/>
      <point x="515" y="2"/>
    </contour>
  </outline>
</glyph>
<glyph name="C" format="2">
  <advance width="851"/>
  <unicode hex="0043"/>
  <anchor x="494" y="0" name="bottom"/>
  <anchor x="454" y="354" name="center"/>
  <anchor x="494" y="0" name="currency"/>
  <anchor x="260" y="354" name="middlestroke"/>
  <anchor x="455" y="708" name="top"/>
  <anchor x="455" y="688" name="top_low_1"/>
  <anchor x="455" y="668" name="top_low_2"/>
  <anchor x="455" y="648" name="top_low_3"/>
  <outline>
    <contour>
      <point x="483" y="-14" type="curve" smooth="yes"/>
      <point x="639" y="-14"/>
      <point x="663" y="39"/>
      <point x="726" y="39" type="curve" smooth="yes"/>
      <point x="759" y="39"/>
      <point x="773" y="26"/>
      <point x="782" y="-14" type="curve"/>
      <point x="783" y="-14" type="line"/>
      <point x="780" y="37"/>
      <point x="779" y="94"/>
      <point x="779" y="260" type="curve"/>
      <point x="778" y="260" type="line"/>
      <point x="762" y="85"/>
      <point x="672" y="-6"/>
      <point x="539" y="-6" type="curve" smooth="yes"/>
      <point x="361" y="-6"/>
      <point x="260" y="124"/>
      <point x="260" y="355" type="curve" smooth="yes"/>
      <point x="260" y="584"/>
      <point x="359" y="711"/>
      <point x="535" y="711" type="curve" smooth="yes"/>
      <point x="667" y="711"/>
      <point x="760" y="621"/>
      <point x="777" y="448" type="curve"/>
      <point x="778" y="448" type="line"/>
      <point x="778" y="620"/>
      <point x="780" y="678"/>
      <point x="783" y="722" type="curve"/>
      <point x="782" y="722" type="line"/>
      <point x="772" y="685"/>
      <point x="757" y="668"/>
      <point x="726" y="668" type="curve" smooth="yes"/>
      <point x="658" y="668"/>
      <point x="622" y="722"/>
      <point x="473" y="722" type="curve" smooth="yes"/>
      <point x="223" y="722"/>
      <point x="50" y="575"/>
      <point x="50" y="349" type="curve" smooth="yes"/>
      <point x="50" y="125"/>
      <point x="211" y="-14"/>
    </contour>
  </outline>
</glyph>
<glyph name="D" format="2">
  <advance width="947"/>
  <unicode hex="0044"/>
  <anchor x="451" y="0" name="bottom"/>
  <anchor x="240" y="356" name="center"/>
  <anchor x="480" y="708" name="top"/>
  <anchor x="480" y="688" name="top_low_1"/>
  <anchor x="480" y="668" name="top_low_2"/>
  <anchor x="480" y="648" name="top_low_3"/>
  <outline>
    <contour>
      <point x="352" y="0" type="curve"/>
      <point x="410" y="0" type="line" smooth="yes"/>
      <point x="709" y="0"/>
      <point x="897" y="143"/>
      <point x="897" y="371" type="curve" smooth="yes"/>
      <point x="897" y="594"/>
      <point x="722" y="708"/>
      <point x="381" y="708" type="curve" smooth="yes"/>
      <point x="352" y="708" type="line"/>
      <point x="320" y="708"/>
      <point x="283" y="705"/>
      <point x="236" y="705" type="curve"/>
      <point x="149" y="705"/>
      <point x="80" y="707"/>
      <point x="40" y="708" type="curve"/>
      <point x="40" y="707" type="line"/>
      <point x="60" y="705" type="line"/>
      <point x="118" y="699"/>
      <point x="130" y="685"/>
      <point x="130" y="621" type="curve"/>
      <point x="130" y="87" type="line"/>
      <point x="130" y="23"/>
      <point x="118" y="9"/>
      <point x="60" y="3" type="curve"/>
      <point x="40" y="1" type="line"/>
      <point x="40" y="0" type="line"/>
      <point x="80" y="1"/>
      <point x="149" y="3"/>
      <point x="236" y="3" type="curve"/>
      <point x="283" y="3"/>
      <point x="320" y="0"/>
    </contour>
    <contour>
      <point x="416" y="2" type="curve" smooth="yes"/>
      <point x="345" y="2"/>
      <point x="333" y="14"/>
      <point x="333" y="85" type="curve" smooth="yes"/>
      <point x="333" y="706" type="line"/>
      <point x="410" y="706" type="line" smooth="yes"/>
      <point x="598" y="706"/>
      <point x="687" y="588"/>
      <point x="687" y="353" type="curve" smooth="yes"/>
      <point x="687" y="118"/>
      <point x="598" y="2"/>
    </contour>
  </outline>
</glyph>
<glyph name="E" format="2">
  <advance width="801"/>
  <unicode hex="0045"/>
  <anchor x="403" y="0" name="bottom"/>
  <anchor x="382" y="354" name="center"/>
  <anchor x="667" y="0" name="ogonek"/>
  <anchor x="383" y="708" name="top"/>
  <anchor x="383" y="688" name="top_low_1"/>
  <anchor x="383" y="668" name="top_low_2"/>
  <anchor x="383" y="648" name="top_low_3"/>
  <outline>
    <contour>
      <point x="216" y="3" type="curve"/>
      <point x="232" y="3" type="line"/>
      <point x="424" y="3" type="line"/>
      <point x="567" y="3"/>
      <point x="654" y="2"/>
      <point x="724" y="0" type="curve"/>
      <point x="721" y="87"/>
      <point x="727" y="183"/>
      <point x="737" y="280" type="curve"/>
      <point x="736" y="280" type="line"/>
      <point x="674" y="118"/>
      <point x="577" y="4"/>
      <point x="410" y="4" type="curve"/>
      <point x="402" y="4" type="line"/>
      <point x="343" y="4"/>
      <point x="333" y="18"/>
      <point x="333" y="94" type="curve"/>
      <point x="333" y="704" type="line"/>
      <point x="386" y="704" type="line"/>
      <point x="535" y="704"/>
      <point x="620" y="635"/>
      <point x="677" y="508" type="curve"/>
      <point x="678" y="508" type="line"/>
      <point x="672" y="577"/>
      <point x="669" y="646"/>
      <point x="672" y="708" type="curve"/>
      <point x="607" y="706"/>
      <point x="525" y="705"/>
      <point x="392" y="705" type="curve"/>
      <point x="232" y="705" type="line"/>
      <point x="216" y="705" type="line"/>
      <point x="137" y="705"/>
      <point x="76" y="707"/>
      <point x="40" y="708" type="curve"/>
      <point x="40" y="707" type="line"/>
      <point x="62" y="704" type="line"/>
      <point x="118" y="695"/>
      <point x="130" y="685"/>
      <point x="130" y="621" type="curve"/>
      <point x="130" y="87" type="line"/>
      <point x="130" y="23"/>
      <point x="118" y="13"/>
      <point x="62" y="4" type="curve"/>
      <point x="40" y="1" type="line"/>
      <point x="40" y="0" type="line"/>
      <point x="76" y="1"/>
      <point x="137" y="3"/>
    </contour>
    <contour>
      <point x="298" y="355" type="line"/>
      <point x="564" y="355" type="line"/>
      <point x="564" y="356" type="line"/>
      <point x="298" y="356" type="line"/>
    </contour>
    <contour>
      <point x="594" y="194" type="curve"/>
      <point x="595" y="194" type="line"/>
      <point x="589" y="298"/>
      <point x="588" y="323"/>
      <point x="588" y="356" type="curve" smooth="yes"/>
      <point x="588" y="398"/>
      <point x="585" y="431"/>
      <point x="592" y="518" type="curve"/>
      <point x="591" y="518" type="line"/>
      <point x="574" y="411"/>
      <point x="517" y="356"/>
      <point x="424" y="356" type="curve"/>
      <point x="424" y="355" type="line"/>
      <point x="526" y="355"/>
      <point x="579" y="305"/>
    </contour>
  </outline>
</glyph>
<glyph name="F" format="2">
  <advance width="723"/>
  <unicode hex="0046"/>
  <anchor x="331" y="0" name="bottom"/>
  <anchor x="236" y="140" name="center"/>
  <anchor x="130" y="250" name="stem"/>
  <anchor x="365" y="708" name="top"/>
  <anchor x="365" y="688" name="top_low_1"/>
  <anchor x="365" y="668" name="top_low_2"/>
  <anchor x="365" y="648" name="top_low_3"/>
  <outline>
    <contour>
      <point x="130" y="250" type="line"/>
      <point x="333" y="250" type="line"/>
      <point x="333" y="704" type="line"/>
      <point x="386" y="704" type="line"/>
      <point x="537" y="704"/>
      <point x="625" y="615"/>
      <point x="681" y="468" type="curve"/>
      <point x="682" y="468" type="line"/>
      <point x="674" y="551"/>
      <point x="669" y="634"/>
      <point x="672" y="708" type="curve"/>
      <point x="607" y="706"/>
      <point x="525" y="705"/>
      <point x="392" y="705" type="curve"/>
      <point x="235" y="705" type="line"/>
      <point x="216" y="706" type="line"/>
      <point x="137" y="705"/>
      <point x="76" y="708"/>
      <point x="40" y="709" type="curve"/>
      <point x="40" y="708" type="line"/>
      <point x="62" y="705" type="line"/>
      <point x="118" y="696"/>
      <point x="130" y="686"/>
      <point x="130" y="622" type="curve"/>
    </contour>
    <contour>
      <point x="298" y="355" type="line"/>
      <point x="570" y="355" type="line"/>
      <point x="570" y="356" type="line"/>
      <point x="298" y="356" type="line"/>
    </contour>
    <contour>
      <point x="594" y="184" type="curve"/>
      <point x="595" y="184" type="line"/>
      <point x="589" y="294"/>
      <point x="588" y="321"/>
      <point x="588" y="356" type="curve" smooth="yes"/>
      <point x="588" y="398"/>
      <point x="585" y="431"/>
      <point x="592" y="518" type="curve"/>
      <point x="591" y="518" type="line"/>
      <point x="574" y="411"/>
      <point x="517" y="356"/>
      <point x="424" y="356" type="curve"/>
      <point x="424" y="355" type="line"/>
      <point x="526" y="355"/>
      <point x="579" y="302"/>
    </contour>
    <component base="_UC-bottom-stem-normal-wide"/>
  </outline>
</glyph>
<glyph name="I" format="2">
  <advance width="463"/>
  <unicode hex="0049"/>
  <anchor x="40" y="0" name="#entry"/>
  <anchor x="423" y="0" name="^exit"/>
  <anchor x="232" y="0" name="bottom"/>
  <anchor x="231" y="354" name="center"/>
  <anchor x="397" y="0" name="ogonek"/>
  <anchor x="231" y="708" name="top"/>
  <anchor x="231" y="688" name="top_low_1"/>
  <anchor x="231" y="668" name="top_low_2"/>
  <anchor x="231" y="648" name="top_low_3"/>
  <outline>
    <contour>
      <point x="216" y="3" type="curve"/>
      <point x="232" y="3" type="line"/>
      <point x="247" y="3" type="line"/>
      <point x="326" y="3"/>
      <point x="387" y="1"/>
      <point x="423" y="0" type="curve"/>
      <point x="423" y="1" type="line"/>
      <point x="401" y="4" type="line"/>
      <point x="345" y="13"/>
      <point x="333" y="23"/>
      <point x="333" y="87" type="curve"/>
      <point x="333" y="621" type="line"/>
      <point x="333" y="685"/>
      <point x="345" y="695"/>
      <point x="401" y="704" type="curve"/>
      <point x="423" y="707" type="line"/>
      <point x="423" y="708" type="line"/>
      <point x="387" y="707"/>
      <point x="326" y="705"/>
      <point x="247" y="705" type="curve"/>
      <point x="232" y="705" type="line"/>
      <point x="216" y="705" type="line"/>
      <point x="137" y="705"/>
      <point x="76" y="707"/>
      <point x="40" y="708" type="curve"/>
      <point x="40" y="707" type="line"/>
      <point x="62" y="704" type="line"/>
      <point x="118" y="695"/>
      <point x="130" y="685"/>
      <point x="130" y="621" type="curve"/>
      <point x="130" y="87" type="line"/>
      <point x="130" y="23"/>
      <point x="118" y="13"/>
      <point x="62" y="4" type="curve"/>
      <point x="40" y="1" type="line"/>
      <point x="40" y="0" type="line"/>
      <point x="76" y="1"/>
      <point x="137" y="3"/>
    </contour>
  </outline>
</glyph>
<glyph name="K" format="2">
  <advance width="875"/>
  <unicode hex="004B"/>
  <anchor x="470" y="0" name="bottom"/>
  <anchor x="487" y="354" name="center"/>
  <anchor x="231" y="520" name="stroke"/>
  <anchor x="451" y="708" name="top"/>
  <anchor x="451" y="688" name="top_low_1"/>
  <anchor x="451" y="668" name="top_low_2"/>
  <anchor x="451" y="648" name="top_low_3"/>
  <outline>
    <contour>
      <point x="616" y="0" type="curve"/>
      <point x="670" y="2"/>
      <point x="716" y="3"/>
      <point x="761" y="3" type="curve" smooth="yes"/>
      <point x="817" y="3"/>
      <point x="865" y="2"/>
      <point x="904" y="0" type="curve"/>
      <point x="904" y="1" type="line"/>
      <point x="863" y="10"/>
      <point x="838" y="20"/>
      <point x="801" y="96" type="curve" smooth="yes"/>
      <point x="733" y="234" type="line" smooth="yes"/>
      <point x="669" y="364"/>
      <point x="610" y="414"/>
      <point x="501" y="431" type="curve"/>
      <point x="493" y="422" type="line"/>
      <point x="639" y="557" type="line" smooth="yes"/>
      <point x="715" y="627"/>
      <point x="771" y="668"/>
      <point x="846" y="707" type="curve"/>
      <point x="846" y="708" type="line"/>
      <point x="785" y="706"/>
      <point x="760" y="705"/>
      <point x="716" y="705" type="curve" smooth="yes"/>
      <point x="634" y="705"/>
      <point x="560" y="706"/>
      <point x="509" y="708" type="curve"/>
      <point x="509" y="707" type="line"/>
      <point x="654" y="695"/>
      <point x="668" y="584"/>
      <point x="567" y="492" type="curve" smooth="yes"/>
      <point x="494" y="425" type="line" smooth="yes"/>
      <point x="438" y="374"/>
      <point x="394" y="355"/>
      <point x="333" y="355" type="curve" smooth="yes"/>
      <point x="301" y="355" type="line"/>
      <point x="301" y="354" type="line"/>
      <point x="333" y="354" type="line" smooth="yes"/>
      <point x="431" y="354"/>
      <point x="473" y="321"/>
      <point x="533" y="199" type="curve" smooth="yes"/>
      <point x="593" y="76" type="line" smooth="yes"/>
      <point x="606" y="50"/>
      <point x="613" y="25"/>
    </contour>
    <contour>
      <point x="216" y="3" type="curve"/>
      <point x="231" y="3" type="line"/>
      <point x="247" y="3" type="line"/>
      <point x="326" y="3"/>
      <point x="387" y="1"/>
      <point x="423" y="0" type="curve"/>
      <point x="423" y="1" type="line"/>
      <point x="401" y="4" type="line"/>
      <point x="345" y="13"/>
      <point x="333" y="23"/>
      <point x="333" y="87" type="curve"/>
      <point x="333" y="708" type="line"/>
      <point x="299" y="706"/>
      <point x="265" y="705"/>
      <point x="231" y="705" type="curve"/>
      <point x="216" y="705" type="line"/>
      <point x="137" y="705"/>
      <point x="76" y="707"/>
      <point x="40" y="708" type="curve"/>
      <point x="40" y="707" type="line"/>
      <point x="62" y="704" type="line"/>
      <point x="118" y="695"/>
      <point x="130" y="685"/>
      <point x="130" y="621" type="curve"/>
      <point x="130" y="87" type="line"/>
      <point x="130" y="23"/>
      <point x="118" y="13"/>
      <point x="62" y="4" type="curve"/>
      <point x="40" y="1" type="line"/>
      <point x="40" y="0" type="line"/>
      <point x="76" y="1"/>
      <point x="137" y="3"/>
    </contour>
  </outline>
</glyph>
<glyph name="M" format="2">
  <advance width="1132"/>
  <unicode hex="004D"/>
  <anchor x="565" y="0" name="bottom"/>
  <anchor x="566" y="708" name="top"/>
  <anchor x="566" y="688" name="top_low_1"/>
  <anchor x="566" y="668" name="top_low_2"/>
  <anchor x="566" y="648" name="top_low_3"/>
  <outline>
    <contour>
      <point x="481" y="-15" type="line"/>
      <point x="482" y="-15" type="line"/>
      <point x="798" y="706" type="line"/>
      <point x="799" y="706" type="line"/>
      <point x="799" y="87" type="line"/>
      <point x="799" y="23"/>
      <point x="787" y="13"/>
      <point x="731" y="4" type="curve"/>
      <point x="709" y="1" type="line"/>
      <point x="709" y="0" type="line"/>
      <point x="745" y="1"/>
      <point x="806" y="3"/>
      <point x="885" y="3" type="curve"/>
      <point x="901" y="3" type="line"/>
      <point x="916" y="3" type="line"/>
      <point x="995" y="3"/>
      <point x="1056" y="1"/>
      <point x="1092" y="0" type="curve"/>
      <point x="1092" y="1" type="line"/>
      <point x="1070" y="4" type="line"/>
      <point x="1014" y="13"/>
      <point x="1002" y="23"/>
      <point x="1002" y="87" type="curve"/>
      <point x="1002" y="621" type="line"/>
      <point x="1002" y="685"/>
      <point x="1014" y="695"/>
      <point x="1070" y="704" type="curve"/>
      <point x="1092" y="706" type="line"/>
      <point x="1092" y="707" type="line"/>
      <point x="1056" y="707"/>
      <point x="995" y="705"/>
      <point x="916" y="706" type="curve"/>
      <point x="899" y="705" type="line"/>
      <point x="871" y="705"/>
      <point x="831" y="705"/>
      <point x="797" y="708" type="curve"/>
      <point x="559" y="164" type="line"/>
      <point x="585" y="221" type="line"/>
      <point x="336" y="708" type="line"/>
      <point x="307" y="706"/>
      <point x="268" y="705"/>
      <point x="230" y="705" type="curve"/>
      <point x="216" y="705" type="line"/>
      <point x="137" y="705"/>
      <point x="76" y="707"/>
      <point x="40" y="708" type="curve"/>
      <point x="40" y="707" type="line"/>
      <point x="62" y="704" type="line"/>
      <point x="118" y="695"/>
      <point x="130" y="685"/>
      <point x="130" y="621" type="curve"/>
      <point x="130" y="87" type="line"/>
      <point x="130" y="23"/>
      <point x="118" y="9"/>
      <point x="60" y="3" type="curve"/>
      <point x="40" y="1" type="line"/>
      <point x="40" y="0" type="line"/>
      <point x="59" y="1"/>
      <point x="90" y="3"/>
      <point x="131" y="3" type="curve"/>
      <point x="182" y="3"/>
      <point x="221" y="1"/>
      <point x="245" y="0" type="curve"/>
      <point x="245" y="1" type="line"/>
      <point x="210" y="4" type="line"/>
      <point x="144" y="10"/>
      <point x="131" y="25"/>
      <point x="131" y="87" type="curve"/>
      <point x="131" y="667" type="line"/>
      <point x="132" y="667" type="line"/>
    </contour>
  </outline>
</glyph>
<glyph name="O" format="2">
  <advance width="967"/>
  <unicode hex="004F"/>
  <anchor x="484" y="0" name="bottom"/>
  <anchor x="485" y="354" name="center"/>
  <anchor x="617" y="0" name="ogonek"/>
  <anchor x="483" y="708" name="top"/>
  <anchor x="483" y="688" name="top_low_1"/>
  <anchor x="483" y="668" name="top_low_2"/>
  <anchor x="483" y="648" name="top_low_3"/>
  <anchor x="24" y="708" name="topleft"/>
  <anchor x="943" y="708" name="topright"/>
  <outline>
    <contour>
      <point x="483" y="-14" type="curve" smooth="yes"/>
      <point x="734" y="-14"/>
      <point x="917" y="138"/>
      <point x="917" y="354" type="curve" smooth="yes"/>
      <point x="917" y="570"/>
      <point x="740" y="722"/>
      <point x="484" y="722" type="curve" smooth="yes"/>
      <point x="233" y="722"/>
      <point x="50" y="570"/>
      <point x="50" y="354" type="curve" smooth="yes"/>
      <point x="50" y="138"/>
      <point x="227" y="-14"/>
    </contour>
    <contour>
      <point x="487" y="-13" type="curve" smooth="yes"/>
      <point x="374" y="-13"/>
      <point x="260" y="130"/>
      <point x="260" y="354" type="curve" smooth="yes"/>
      <point x="260" y="578"/>
      <point x="359" y="721"/>
      <point x="480" y="721" type="curve" smooth="yes"/>
      <point x="592" y="721"/>
      <point x="707" y="579"/>
      <point x="707" y="354" type="curve" smooth="yes"/>
      <point x="707" y="129"/>
      <point x="607" y="-13"/>
    </contour>
  </outline>
</glyph>
<glyph name="R" format="2">
  <advance width="846"/>
  <unicode hex="0052"/>
  <anchor x="131" y="0" name="baseline_left"/>
  <anchor x="448" y="0" name="bottom"/>
  <anchor x="232" y="346" name="center"/>
  <anchor x="131" y="180" name="stem"/>
  <anchor x="398" y="708" name="top"/>
  <outline>
    <contour>
      <point x="131" y="180" type="line"/>
      <point x="334" y="180" type="line"/>
      <point x="334" y="705" type="line"/>
      <point x="397" y="705" type="line" smooth="yes"/>
      <point x="508" y="705"/>
      <point x="561" y="649"/>
      <point x="561" y="532" type="curve" smooth="yes"/>
      <point x="561" y="403"/>
      <point x="506" y="346"/>
      <point x="382" y="346" type="curve" smooth="yes"/>
      <point x="240" y="346" type="line"/>
      <point x="240" y="345" type="line"/>
      <point x="394" y="345" type="line" smooth="yes"/>
      <point x="618" y="345"/>
      <point x="751" y="415"/>
      <point x="751" y="533" type="curve" smooth="yes"/>
      <point x="751" y="650"/>
      <point x="641" y="708"/>
      <point x="422" y="708" type="curve" smooth="yes"/>
      <point x="387" y="708"/>
      <point x="319" y="705"/>
      <point x="232" y="705" type="curve"/>
      <point x="217" y="705" type="line"/>
      <point x="138" y="705"/>
      <point x="77" y="707"/>
      <point x="41" y="708" type="curve"/>
      <point x="41" y="707" type="line"/>
      <point x="63" y="704" type="line"/>
      <point x="119" y="695"/>
      <point x="131" y="685"/>
      <point x="131" y="621" type="curve"/>
    </contour>
    <contour>
      <point x="724" y="-14" type="curve" smooth="yes"/>
      <point x="792" y="-14"/>
      <point x="832" y="0"/>
      <point x="881" y="40" type="curve"/>
      <point x="880" y="41" type="line"/>
      <point x="865" y="31"/>
      <point x="854" y="27"/>
      <point x="841" y="27" type="curve" smooth="yes"/>
      <point x="805" y="27"/>
      <point x="789" y="44"/>
      <point x="769" y="103" type="curve" smooth="yes"/>
      <point x="743" y="181" type="line" smooth="yes"/>
      <point x="702" y="304"/>
      <point x="611" y="346"/>
      <point x="386" y="346" type="curve" smooth="yes"/>
      <point x="262" y="346" type="line"/>
      <point x="262" y="345" type="line"/>
      <point x="383" y="345" type="line" smooth="yes"/>
      <point x="478" y="345"/>
      <point x="504" y="325"/>
      <point x="524" y="235" type="curve" smooth="yes"/>
      <point x="546" y="134" type="line" smooth="yes"/>
      <point x="569" y="28"/>
      <point x="619" y="-14"/>
    </contour>
    <contour>
      <point x="216" y="2" type="curve"/>
      <point x="237" y="3" type="line"/>
      <point x="248" y="3" type="line"/>
      <point x="327" y="3"/>
      <point x="388" y="1"/>
      <point x="424" y="1" type="curve"/>
      <point x="424" y="2" type="line"/>
      <point x="402" y="5" type="line"/>
      <point x="346" y="13"/>
      <point x="334" y="23"/>
      <point x="334" y="87" type="curve"/>
      <point x="333" y="180" type="line"/>
      <point x="130" y="180" type="line"/>
      <point x="131" y="87" type="line"/>
      <point x="131" y="23"/>
      <point x="118" y="13"/>
      <point x="62" y="4" type="curve"/>
      <point x="40" y="2" type="line"/>
      <point x="40" y="1" type="line"/>
      <point x="76" y="1"/>
      <point x="137" y="3"/>
    </contour>
  </outline>
</glyph>
<glyph name="S" format="2">
  <advance width="722"/>
  <unicode hex="0053"/>
  <anchor x="368" y="0" name="bottom"/>
  <anchor x="365" y="354" name="center"/>
  <anchor x="360" y="0" name="currency"/>
  <anchor x="365" y="708" name="top"/>
  <anchor x="365" y="688" name="top_low_1"/>
  <anchor x="365" y="668" name="top_low_2"/>
  <anchor x="365" y="648" name="top_low_3"/>
  <outline>
    <contour>
      <point x="359" y="-14" type="curve" smooth="yes"/>
      <point x="561" y="-14"/>
      <point x="670" y="65"/>
      <point x="670" y="213" type="curve" smooth="yes"/>
      <point x="670" y="337"/>
      <point x="593" y="407"/>
      <point x="404" y="455" type="curve" smooth="yes"/>
      <point x="273" y="488"/>
      <point x="229" y="525"/>
      <point x="229" y="601" type="curve" smooth="yes"/>
      <point x="229" y="678"/>
      <point x="274" y="720"/>
      <point x="359" y="720" type="curve" smooth="yes"/>
      <point x="491" y="720"/>
      <point x="594" y="617"/>
      <point x="620" y="458" type="curve"/>
      <point x="621" y="458" type="line"/>
      <point x="621" y="634"/>
      <point x="622" y="678"/>
      <point x="627" y="722" type="curve"/>
      <point x="626" y="722" type="line"/>
      <point x="617" y="691"/>
      <point x="605" y="680"/>
      <point x="576" y="680" type="curve" smooth="yes"/>
      <point x="518" y="680"/>
      <point x="475" y="722"/>
      <point x="350" y="722" type="curve" smooth="yes"/>
      <point x="177" y="722"/>
      <point x="73" y="641"/>
      <point x="73" y="507" type="curve" smooth="yes"/>
      <point x="73" y="391"/>
      <point x="149" y="320"/>
      <point x="324" y="274" type="curve" smooth="yes"/>
      <point x="458" y="239"/>
      <point x="508" y="198"/>
      <point x="508" y="124" type="curve" smooth="yes"/>
      <point x="508" y="42"/>
      <point x="441" y="-12"/>
      <point x="339" y="-12" type="curve" smooth="yes"/>
      <point x="198" y="-12"/>
      <point x="106" y="95"/>
      <point x="77" y="293" type="curve"/>
      <point x="76" y="293" type="line"/>
      <point x="76" y="101"/>
      <point x="75" y="39"/>
      <point x="71" y="-14" type="curve"/>
      <point x="72" y="-14" type="line"/>
      <point x="81" y="15"/>
      <point x="95" y="25"/>
      <point x="122" y="25" type="curve" smooth="yes"/>
      <point x="176" y="25"/>
      <point x="218" y="-14"/>
    </contour>
  </outline>
</glyph>
<glyph name="T" format="2">
  <advance width="814"/>
  <unicode hex="0054"/>
  <anchor x="509" y="0" name="#exit"/>
  <anchor x="509" y="0" name="%exit"/>
  <anchor x="407" y="0" name="bottom"/>
  <anchor x="407" y="354" name="center"/>
  <anchor x="407" y="285" name="center_lowered"/>
  <outline>
    <contour>
      <point x="392" y="3" type="curve"/>
      <point x="408" y="3" type="line"/>
      <point x="423" y="3" type="line"/>
      <point x="510" y="3"/>
      <point x="577" y="1"/>
      <point x="617" y="0" type="curve"/>
      <point x="617" y="1" type="line"/>
      <point x="578" y="5" type="line"/>
      <point x="521" y="13"/>
      <point x="509" y="24"/>
      <point x="509" y="87" type="curve"/>
      <point x="509" y="250" type="line"/>
      <point x="306" y="250" type="line"/>
      <point x="306" y="87" type="line"/>
      <point x="306" y="24"/>
      <point x="294" y="13"/>
      <point x="237" y="6" type="curve"/>
      <point x="198" y="2" type="line"/>
      <point x="198" y="1" type="line"/>
      <point x="237" y="1"/>
      <point x="305" y="3"/>
    </contour>
    <component base="_UC-T-upper"/>
  </outline>
</glyph>
<glyph name="V" format="2">
  <advance width="882"/>
  <unicode hex="0056"/>
  <anchor x="451" y="0" name="bottom"/>
  <anchor x="443" y="708" name="top"/>
  <anchor x="443" y="688" name="top_low_1"/>
  <anchor x="443" y="668" name="top_low_2"/>
  <anchor x="443" y="648" name="top_low_3"/>
  <outline>
    <contour>
      <point x="451" y="-15" type="line"/>
      <point x="452" y="-15" type="line"/>
      <point x="703" y="471" type="line"/>
      <point x="789" y="637"/>
      <point x="824" y="681"/>
      <point x="890" y="700" type="curve"/>
      <point x="914" y="707" type="line"/>
      <point x="914" y="708" type="line"/>
      <point x="864" y="706"/>
      <point x="837" y="705"/>
      <point x="792" y="705" type="curve"/>
      <point x="745" y="705"/>
      <point x="715" y="706"/>
      <point x="640" y="708" type="curve"/>
      <point x="640" y="707" type="line"/>
      <point x="648" y="706" type="line"/>
      <point x="755" y="695"/>
      <point x="774" y="613"/>
      <point x="701" y="471" type="curve"/>
      <point x="542" y="162" type="line"/>
      <point x="562" y="199" type="line"/>
      <point x="331" y="620" type="line"/>
      <point x="295" y="685"/>
      <point x="311" y="699"/>
      <point x="376" y="705" type="curve"/>
      <point x="396" y="707" type="line"/>
      <point x="396" y="708" type="line"/>
      <point x="350" y="707"/>
      <point x="270" y="705"/>
      <point x="169" y="705" type="curve"/>
      <point x="169" y="705" type="line"/>
      <point x="169" y="705" type="line"/>
      <point x="89" y="705"/>
      <point x="26" y="707"/>
      <point x="-11" y="708" type="curve"/>
      <point x="-11" y="707" type="line"/>
      <point x="9" y="705" type="line"/>
      <point x="50" y="701"/>
      <point x="65" y="688"/>
      <point x="92" y="640" type="curve"/>
    </contour>
  </outline>
</glyph>
<glyph name="W" format="2">
  <advance width="1247"/>
  <unicode hex="0057"/>
  <anchor x="645" y="0" name="bottom"/>
  <anchor x="649" y="355" name="currency"/>
  <anchor x="645" y="708" name="top"/>
  <anchor x="645" y="688" name="top_low_1"/>
  <anchor x="645" y="668" name="top_low_2"/>
  <anchor x="645" y="648" name="top_low_3"/>
  <outline>
    <contour>
      <point x="860" y="-15" type="line"/>
      <point x="861" y="-15" type="line"/>
      <point x="1068" y="464" type="line"/>
      <point x="1143" y="635"/>
      <point x="1173" y="681"/>
      <point x="1239" y="700" type="curve"/>
      <point x="1263" y="707" type="line"/>
      <point x="1263" y="708" type="line"/>
      <point x="1213" y="706"/>
      <point x="1186" y="705"/>
      <point x="1141" y="705" type="curve"/>
      <point x="1094" y="705"/>
      <point x="1064" y="706"/>
      <point x="989" y="708" type="curve"/>
      <point x="989" y="707" type="line"/>
      <point x="997" y="706" type="line"/>
      <point x="1104" y="695"/>
      <point x="1130" y="610"/>
      <point x="1066" y="464" type="curve"/>
      <point x="943" y="179" type="line"/>
      <point x="964" y="225" type="line"/>
      <point x="777" y="617" type="line"/>
      <point x="744" y="684"/>
      <point x="761" y="699"/>
      <point x="826" y="705" type="curve"/>
      <point x="846" y="707" type="line"/>
      <point x="846" y="708" type="line"/>
      <point x="800" y="707"/>
      <point x="720" y="705"/>
      <point x="619" y="705" type="curve"/>
      <point x="625" y="705" type="line"/>
      <point x="630" y="705" type="line"/>
      <point x="550" y="705"/>
      <point x="487" y="707"/>
      <point x="450" y="708" type="curve"/>
      <point x="450" y="707" type="line"/>
      <point x="470" y="705" type="line"/>
      <point x="511" y="701"/>
      <point x="525" y="687"/>
      <point x="549" y="638" type="curve"/>
    </contour>
    <contour>
      <point x="414" y="-15" type="line"/>
      <point x="415" y="-15" type="line"/>
      <point x="655" y="464" type="line"/>
      <point x="654" y="465" type="line"/>
      <point x="511" y="180" type="line"/>
      <point x="528" y="212" type="line"/>
      <point x="330" y="617" type="line"/>
      <point x="297" y="684"/>
      <point x="314" y="699"/>
      <point x="379" y="705" type="curve"/>
      <point x="399" y="707" type="line"/>
      <point x="399" y="708" type="line"/>
      <point x="353" y="707"/>
      <point x="273" y="705"/>
      <point x="172" y="705" type="curve"/>
      <point x="173" y="705" type="line"/>
      <point x="174" y="705" type="line"/>
      <point x="94" y="705"/>
      <point x="31" y="707"/>
      <point x="-6" y="708" type="curve"/>
      <point x="-6" y="707" type="line"/>
      <point x="14" y="705" type="line"/>
      <point x="55" y="701"/>
      <point x="70" y="687"/>
      <point x="94" y="638" type="curve"/>
    </contour>
  </outline>
</glyph>
<glyph name="X" format="2">
  <advance width="845"/>
  <unicode hex="0058"/>
  <anchor x="423" y="0" name="bottom"/>
  <anchor x="876" y="0" name="bottomright"/>
  <anchor x="423" y="708" name="top"/>
  <anchor x="423" y="688" name="top_low_1"/>
  <anchor x="423" y="668" name="top_low_2"/>
  <anchor x="423" y="648" name="top_low_3"/>
  <outline>
    <contour>
      <point x="711" y="3" type="curve"/>
      <point x="711" y="3" type="line"/>
      <point x="712" y="3" type="line"/>
      <point x="792" y="3"/>
      <point x="855" y="1"/>
      <point x="892" y="0" type="curve"/>
      <point x="892" y="1" type="line"/>
      <point x="872" y="3" type="line"/>
      <point x="831" y="7"/>
      <point x="812" y="18"/>
      <point x="778" y="61" type="curve"/>
      <point x="329" y="629" type="line"/>
      <point x="283" y="687"/>
      <point x="295" y="699"/>
      <point x="360" y="705" type="curve"/>
      <point x="380" y="707" type="line"/>
      <point x="380" y="708" type="line"/>
      <point x="334" y="707"/>
      <point x="254" y="705"/>
      <point x="153" y="705" type="curve"/>
      <point x="153" y="705" type="line"/>
      <point x="152" y="705" type="line"/>
      <point x="72" y="705"/>
      <point x="9" y="707"/>
      <point x="-28" y="708" type="curve"/>
      <point x="-28" y="707" type="line"/>
      <point x="-8" y="705" type="line"/>
      <point x="33" y="701"/>
      <point x="52" y="690"/>
      <point x="86" y="647" type="curve"/>
      <point x="534" y="79" type="line"/>
      <point x="581" y="21"/>
      <point x="569" y="9"/>
      <point x="504" y="3" type="curve"/>
      <point x="484" y="1" type="line"/>
      <point x="484" y="0" type="line"/>
      <point x="530" y="1"/>
      <point x="610" y="3"/>
    </contour>
    <contour>
      <point x="256" y="195" type="curve"/>
      <point x="382" y="332" type="line"/>
      <point x="381" y="333" type="line"/>
      <point x="254" y="195" type="line"/>
      <point x="126" y="59"/>
      <point x="74" y="27"/>
      <point x="8" y="8" type="curve"/>
      <point x="-16" y="1" type="line"/>
      <point x="-16" y="0" type="line"/>
      <point x="34" y="2"/>
      <point x="61" y="3"/>
      <point x="106" y="3" type="curve"/>
      <point x="153" y="3"/>
      <point x="183" y="2"/>
      <point x="258" y="0" type="curve"/>
      <point x="258" y="1" type="line"/>
      <point x="250" y="2" type="line"/>
      <point x="143" y="13"/>
      <point x="148" y="79"/>
    </contour>
    <contour>
      <point x="444" y="375" type="line"/>
      <point x="571" y="512" type="line"/>
      <point x="698" y="649"/>
      <point x="750" y="681"/>
      <point x="816" y="700" type="curve"/>
      <point x="840" y="707" type="line"/>
      <point x="840" y="708" type="line"/>
      <point x="790" y="706"/>
      <point x="763" y="705"/>
      <point x="718" y="705" type="curve"/>
      <point x="671" y="705"/>
      <point x="641" y="706"/>
      <point x="566" y="708" type="curve"/>
      <point x="566" y="707" type="line"/>
      <point x="574" y="706" type="line"/>
      <point x="681" y="695"/>
      <point x="677" y="629"/>
      <point x="569" y="512" type="curve"/>
      <point x="443" y="376" type="line"/>
    </contour>
  </outline>
</glyph>
<glyph name="Y" format="2">
  <advance width="815"/>
  <unicode hex="0059"/>
  <anchor x="417" y="0" name="bottom"/>
  <anchor x="416" y="255" name="center"/>
  <anchor x="412" y="708" name="top"/>
  <anchor x="412" y="688" name="top_low_1"/>
  <anchor x="412" y="668" name="top_low_2"/>
  <anchor x="412" y="648" name="top_low_3"/>
  <outline>
    <contour>
      <point x="369" y="199" type="line"/>
      <point x="410" y="199" type="line"/>
      <point x="597" y="485" type="line"/>
      <point x="699" y="641"/>
      <point x="741" y="681"/>
      <point x="807" y="700" type="curve"/>
      <point x="831" y="707" type="line"/>
      <point x="831" y="708" type="line"/>
      <point x="781" y="706"/>
      <point x="754" y="705"/>
      <point x="709" y="705" type="curve"/>
      <point x="662" y="705"/>
      <point x="632" y="706"/>
      <point x="557" y="708" type="curve"/>
      <point x="557" y="707" type="line"/>
      <point x="565" y="706" type="line"/>
      <point x="672" y="695"/>
      <point x="682" y="618"/>
      <point x="595" y="485" type="curve"/>
      <point x="494" y="331" type="line"/>
      <point x="509" y="346" type="line"/>
      <point x="336" y="623" type="line"/>
      <point x="296" y="685"/>
      <point x="310" y="699"/>
      <point x="375" y="705" type="curve"/>
      <point x="395" y="707" type="line"/>
      <point x="395" y="708" type="line"/>
      <point x="349" y="707"/>
      <point x="269" y="705"/>
      <point x="168" y="705" type="curve"/>
      <point x="164" y="705" type="line"/>
      <point x="164" y="705" type="line"/>
      <point x="84" y="705"/>
      <point x="21" y="707"/>
      <point x="-16" y="708" type="curve"/>
      <point x="-16" y="707" type="line"/>
      <point x="4" y="705" type="line"/>
      <point x="45" y="701"/>
      <point x="62" y="688"/>
      <point x="91" y="642" type="curve"/>
    </contour>
    <contour>
      <point x="400" y="3" type="curve"/>
      <point x="416" y="3" type="line"/>
      <point x="431" y="3" type="line"/>
      <point x="518" y="3"/>
      <point x="585" y="1"/>
      <point x="625" y="0" type="curve"/>
      <point x="625" y="1" type="line"/>
      <point x="586" y="5" type="line"/>
      <point x="529" y="13"/>
      <point x="517" y="24"/>
      <point x="517" y="87" type="curve"/>
      <point x="517" y="364" type="line"/>
      <point x="443" y="253" type="line"/>
      <point x="314" y="311" type="line"/>
      <point x="314" y="87" type="line"/>
      <point x="314" y="24"/>
      <point x="302" y="13"/>
      <point x="245" y="6" type="curve"/>
      <point x="206" y="2" type="line"/>
      <point x="206" y="1" type="line"/>
      <point x="245" y="1"/>
      <point x="313" y="3"/>
    </contour>
  </outline>
</glyph>
<glyph name="Z" format="2">
  <advance width="739"/>
  <unicode hex="005A"/>
  <anchor x="371" y="0" name="bottom"/>
  <anchor x="370" y="354" name="center"/>
  <anchor x="366" y="708" name="top"/>
  <anchor x="366" y="688" name="top_low_1"/>
  <anchor x="366" y="668" name="top_low_2"/>
  <anchor x="366" y="648" name="top_low_3"/>
  <outline>
    <contour>
      <point x="43" y="0" type="line"/>
      <point x="116" y="3"/>
      <point x="204" y="3"/>
      <point x="280" y="3" type="curve" smooth="yes"/>
      <point x="385" y="3" type="line"/>
      <point x="528" y="3"/>
      <point x="615" y="2"/>
      <point x="685" y="0" type="curve"/>
      <point x="682" y="87"/>
      <point x="688" y="183"/>
      <point x="698" y="280" type="curve"/>
      <point x="697" y="280" type="line"/>
      <point x="635" y="118"/>
      <point x="538" y="4"/>
      <point x="371" y="4" type="curve"/>
      <point x="273" y="4" type="line"/>
      <point x="686" y="707" type="line"/>
      <point x="686" y="708" type="line"/>
      <point x="612" y="705"/>
      <point x="521" y="705"/>
      <point x="446" y="705" type="curve" smooth="yes"/>
      <point x="383" y="705" type="line"/>
      <point x="240" y="705"/>
      <point x="153" y="706"/>
      <point x="83" y="708" type="curve"/>
      <point x="86" y="646"/>
      <point x="83" y="577"/>
      <point x="77" y="508" type="curve"/>
      <point x="78" y="508" type="line"/>
      <point x="143" y="631"/>
      <point x="234" y="704"/>
      <point x="397" y="704" type="curve"/>
      <point x="456" y="704" type="line"/>
      <point x="43" y="1" type="line"/>
    </contour>
  </outline>
</glyph>
<glyph name="bracketleft" format="2">
  <advance width="404"/>
  <unicode hex="005B"/>
  <outline>
    <contour>
      <point x="100" y="-181" type="line"/>
      <point x="347" y="-181" type="line"/>
      <point x="347" y="-180" type="line"/>
      <point x="280" y="-180" type="line"/>
      <point x="280" y="771" type="line"/>
      <point x="347" y="771" type="line"/>
      <point x="347" y="772" type="line"/>
      <point x="100" y="772" type="line"/>
    </contour>
  </outline>
</glyph>
<glyph name="asciicircum" format="2">
  <advance width="615"/>
  <unicode hex="005E"/>
  <outline>
    <contour>
      <point x="74" y="292" type="line"/>
      <point x="268" y="377" type="line"/>
      <point x="541" y="294" type="line"/>
      <point x="541" y="295" type="line"/>
      <point x="307" y="543" type="line"/>
      <point x="306" y="543" type="line"/>
      <point x="74" y="293" type="line"/>
    </contour>
  </outline>
</glyph>
<glyph name="a" format="2">
  <advance width="651"/>
  <unicode hex="0061"/>
  <anchor x="-127" y="260" name="#entry"/>
  <anchor x="332" y="0" name="bottom"/>
  <anchor x="319" y="259" name="center"/>
  <anchor x="597" y="0" name="ogonek"/>
  <anchor x="320" y="520" name="top"/>
  <anchor x="320" y="500" name="top_low_1"/>
  <anchor x="320" y="480" name="top_low_2"/>
  <anchor x="320" y="460" name="top_low_3"/>
  <outline>
    <contour>
      <point x="560" y="46" type="curve"/>
      <point x="560" y="293" type="line" smooth="yes"/>
      <point x="560" y="465"/>
      <point x="500" y="533"/>
      <point x="328" y="533" type="curve" smooth="yes"/>
      <point x="179" y="533"/>
      <point x="82" y="481"/>
      <point x="82" y="400" type="curve" smooth="yes"/>
      <point x="82" y="353"/>
      <point x="116" y="322"/>
      <point x="169" y="322" type="curve" smooth="yes"/>
      <point x="222" y="322"/>
      <point x="260" y="347"/>
      <point x="260" y="382" type="curve" smooth="yes"/>
      <point x="260" y="432"/>
      <point x="193" y="457"/>
      <point x="193" y="489" type="curve" smooth="yes"/>
      <point x="193" y="510"/>
      <point x="224" y="526"/>
      <point x="266" y="526" type="curve" smooth="yes"/>
      <point x="339" y="526"/>
      <point x="380" y="473"/>
      <point x="380" y="376" type="curve" smooth="yes"/>
      <point x="380" y="66" type="line"/>
      <point x="380" y="11"/>
      <point x="424" y="-14"/>
      <point x="504" y="-14" type="curve"/>
      <point x="561" y="-14"/>
      <point x="600" y="-3"/>
      <point x="636" y="23" type="curve"/>
      <point x="635" y="24" type="line"/>
      <point x="617" y="12"/>
      <point x="602" y="6"/>
      <point x="588" y="6" type="curve"/>
      <point x="568" y="6"/>
      <point x="560" y="17"/>
    </contour>
    <contour>
      <point x="202" y="-14" type="curve" smooth="yes"/>
      <point x="275" y="-14"/>
      <point x="341" y="11"/>
      <point x="382" y="64" type="curve"/>
      <point x="382" y="65" type="line"/>
      <point x="364" y="46"/>
      <point x="339" y="36"/>
      <point x="311" y="36" type="curve" smooth="yes"/>
      <point x="264" y="36"/>
      <point x="237" y="68"/>
      <point x="237" y="124" type="curve" smooth="yes"/>
      <point x="237" y="249"/>
      <point x="376" y="262"/>
      <point x="381" y="330" type="curve"/>
      <point x="381" y="337" type="line"/>
      <point x="380" y="223"/>
      <point x="50" y="300"/>
      <point x="50" y="107" type="curve" smooth="yes"/>
      <point x="50" y="33"/>
      <point x="113" y="-14"/>
    </contour>
  </outline>
</glyph>
<glyph name="b" format="2">
  <advance width="738"/>
  <unicode hex="0062"/>
  <anchor x="283" y="260" name="#entry"/>
  <anchor x="283" y="260" name="#exit"/>
  <anchor x="380" y="0" name="bottom"/>
  <anchor x="390" y="261" name="center"/>
  <anchor x="380" y="771" name="top"/>
  <anchor x="103" y="520" name="top-left"/>
  <outline>
    <contour>
      <point x="448" y="534" type="curve" smooth="yes"/>
      <point x="372" y="534"/>
      <point x="311" y="508"/>
      <point x="268" y="433" type="curve"/>
      <point x="269" y="432" type="line"/>
      <point x="302" y="488"/>
      <point x="339" y="503"/>
      <point x="374" y="503" type="curve" smooth="yes"/>
      <point x="454" y="503"/>
      <point x="497" y="418"/>
      <point x="497" y="258" type="curve" smooth="yes"/>
      <point x="497" y="90"/>
      <point x="450" y="5"/>
      <point x="358" y="5" type="curve" smooth="yes"/>
      <point x="324" y="5"/>
      <point x="297" y="19"/>
      <point x="280" y="37" type="curve"/>
      <point x="279" y="37" type="line"/>
      <point x="298" y="12"/>
      <point x="357" y="-13"/>
      <point x="424" y="-13" type="curve" smooth="yes"/>
      <point x="585" y="-13"/>
      <point x="684" y="94"/>
      <point x="684" y="267" type="curve" smooth="yes"/>
      <point x="684" y="432"/>
      <point x="594" y="534"/>
    </contour>
    <component base="_LC-ascender-left-inserif"/>
    <component base="_LC-baseline-left-instroke" xOffset="5"/>
  </outline>
</glyph>
<glyph name="c" format="2">
  <advance width="617"/>
  <unicode hex="0063"/>
  <anchor x="341" y="0" name="bottom"/>
  <anchor x="339" y="259" name="center"/>
  <anchor x="343" y="0" name="currency"/>
  <anchor x="477" y="519" name="hook"/>
  <anchor x="337" y="520" name="top"/>
  <outline>
    <contour>
      <point x="332" y="-14" type="curve" smooth="yes"/>
      <point x="460" y="-14"/>
      <point x="551" y="43"/>
      <point x="589" y="156" type="curve"/>
      <point x="588" y="156" type="line"/>
      <point x="554" y="81"/>
      <point x="499" y="46"/>
      <point x="421" y="46" type="curve" smooth="yes"/>
      <point x="303" y="46"/>
      <point x="241" y="126"/>
      <point x="241" y="280" type="curve" smooth="yes"/>
      <point x="241" y="429"/>
      <point x="304" y="526"/>
      <point x="410" y="526" type="curve" smooth="yes"/>
      <point x="443" y="526"/>
      <point x="466" y="514"/>
      <point x="466" y="494" type="curve" smooth="yes"/>
      <point x="466" y="451"/>
      <point x="393" y="430"/>
      <point x="393" y="373" type="curve" smooth="yes"/>
      <point x="393" y="336"/>
      <point x="423" y="312"/>
      <point x="467" y="312" type="curve" smooth="yes"/>
      <point x="526" y="312"/>
      <point x="568" y="348"/>
      <point x="568" y="401" type="curve" smooth="yes"/>
      <point x="568" y="481"/>
      <point x="476" y="533"/>
      <point x="354" y="533" type="curve" smooth="yes"/>
      <point x="172" y="533"/>
      <point x="54" y="430"/>
      <point x="54" y="256" type="curve" smooth="yes"/>
      <point x="54" y="88"/>
      <point x="166" y="-14"/>
    </contour>
  </outline>
</glyph>
<glyph name="d" format="2">
  <advance width="728"/>
  <unicode hex="0064"/>
  <anchor x="455" y="260" name="#entry"/>
  <anchor x="455" y="260" name="#exit"/>
  <anchor x="221" y="-14" name="%entry"/>
  <anchor x="352" y="0" name="^entry"/>
  <anchor x="690" y="0" name="^exit"/>
  <anchor x="406" y="0" name="bottom"/>
  <anchor x="635" y="0" name="bottom-right"/>
  <anchor x="348" y="259" name="center"/>
  <anchor x="455" y="260" name="stem"/>
  <outline>
    <contour>
      <point x="290" y="-14" type="curve" smooth="yes"/>
      <point x="366" y="-14"/>
      <point x="427" y="12"/>
      <point x="470" y="87" type="curve"/>
      <point x="469" y="88" type="line"/>
      <point x="436" y="32"/>
      <point x="399" y="17"/>
      <point x="364" y="17" type="curve" smooth="yes"/>
      <point x="284" y="17"/>
      <point x="241" y="102"/>
      <point x="241" y="262" type="curve" smooth="yes"/>
      <point x="241" y="430"/>
      <point x="288" y="515"/>
      <point x="380" y="515" type="curve" smooth="yes"/>
      <point x="414" y="515"/>
      <point x="441" y="501"/>
      <point x="458" y="483" type="curve"/>
      <point x="459" y="483" type="line"/>
      <point x="440" y="508"/>
      <point x="381" y="533"/>
      <point x="314" y="533" type="curve" smooth="yes"/>
      <point x="153" y="533"/>
      <point x="54" y="426"/>
      <point x="54" y="253" type="curve" smooth="yes"/>
      <point x="54" y="88"/>
      <point x="144" y="-14"/>
    </contour>
    <contour>
      <point x="455" y="0" type="line"/>
      <point x="455" y="-11" type="line"/>
      <point x="506" y="-1"/>
      <point x="551" y="3"/>
      <point x="609" y="3" type="curve"/>
      <point x="644" y="3"/>
      <point x="666" y="3"/>
      <point x="710" y="0" type="curve"/>
      <point x="710" y="1" type="line"/>
      <point x="699" y="2" type="line"/>
      <point x="651" y="6"/>
      <point x="635" y="27"/>
      <point x="635" y="83" type="curve"/>
      <point x="635" y="260" type="line"/>
      <point x="455" y="260" type="line"/>
    </contour>
    <component base="_LC-ascender-right-inserif" xOffset="350"/>
  </outline>
</glyph>
<glyph name="e" format="2">
  <advance width="634"/>
  <unicode hex="0065"/>
  <anchor x="339" y="0" name="bottom"/>
  <anchor x="349" y="259" name="center"/>
  <anchor x="440" y="0" name="ogonek"/>
  <anchor x="337" y="520" name="top"/>
  <anchor x="337" y="500" name="top_low_1"/>
  <anchor x="337" y="480" name="top_low_2"/>
  <anchor x="337" y="460" name="top_low_3"/>
  <outline>
    <contour>
      <point x="332" y="-14" type="curve" smooth="yes"/>
      <point x="467" y="-14"/>
      <point x="561" y="43"/>
      <point x="599" y="156" type="curve"/>
      <point x="598" y="156" type="line"/>
      <point x="561" y="78"/>
      <point x="507" y="46"/>
      <point x="427" y="46" type="curve" smooth="yes"/>
      <point x="304" y="46"/>
      <point x="241" y="134"/>
      <point x="241" y="273" type="curve" smooth="yes"/>
      <point x="241" y="288"/>
      <point x="241" y="303"/>
      <point x="242" y="317" type="curve"/>
      <point x="242" y="318" type="line"/>
      <point x="256" y="480"/>
      <point x="302" y="532"/>
      <point x="353" y="532" type="curve" smooth="yes"/>
      <point x="408" y="532"/>
      <point x="435" y="433"/>
      <point x="434" y="318" type="curve"/>
      <point x="186" y="318" type="line"/>
      <point x="188" y="317" type="line"/>
      <point x="590" y="317" type="line"/>
      <point x="587" y="472"/>
      <point x="490" y="533"/>
      <point x="357" y="533" type="curve" smooth="yes"/>
      <point x="190" y="533"/>
      <point x="54" y="451"/>
      <point x="54" y="258" type="curve" smooth="yes"/>
      <point x="54" y="88"/>
      <point x="166" y="-14"/>
    </contour>
  </outline>
</glyph>
<glyph name="f" format="2">
  <advance width="414"/>
  <unicode hex="0066"/>
  <outline>
    <contour>
      <point x="28" y="519" type="line"/>
      <point x="417" y="519" type="line"/>
      <point x="417" y="520" type="line"/>
      <point x="28" y="520" type="line"/>
    </contour>
  </outline>
</glyph>
<glyph name="g" format="2">
  <advance width="677"/>
  <unicode hex="0067"/>
  <anchor x="349" y="-231" name="bottom"/>
  <anchor x="316" y="0" name="center"/>
  <anchor x="309" y="520" name="top"/>
  <outline>
    <contour>
      <point x="273" y="-239" type="curve" smooth="yes"/>
      <point x="494" y="-239"/>
      <point x="638" y="-152"/>
      <point x="638" y="-18" type="curve" smooth="yes"/>
      <point x="638" y="79"/>
      <point x="562" y="130"/>
      <point x="417" y="130" type="curve" smooth="yes"/>
      <point x="267" y="130" type="line" smooth="yes"/>
      <point x="215" y="130"/>
      <point x="188" y="144"/>
      <point x="188" y="171" type="curve" smooth="yes"/>
      <point x="188" y="189"/>
      <point x="200" y="204"/>
      <point x="226" y="220" type="curve"/>
      <point x="225" y="220" type="line"/>
      <point x="141" y="180"/>
      <point x="101" y="137"/>
      <point x="101" y="86" type="curve" smooth="yes"/>
      <point x="101" y="23"/>
      <point x="160" y="-16"/>
      <point x="253" y="-16" type="curve" smooth="yes"/>
      <point x="358" y="-16" type="line" smooth="yes"/>
      <point x="452" y="-16"/>
      <point x="499" y="-44"/>
      <point x="499" y="-101" type="curve" smooth="yes"/>
      <point x="499" y="-179"/>
      <point x="423" y="-235"/>
      <point x="317" y="-235" type="curve" smooth="yes"/>
      <point x="212" y="-235"/>
      <point x="147" y="-187"/>
      <point x="147" y="-108" type="curve" smooth="yes"/>
      <point x="147" y="-67"/>
      <point x="164" y="-32"/>
      <point x="196" y="-9" type="curve"/>
      <point x="195" y="-9" type="line"/>
      <point x="82" y="-34"/>
      <point x="17" y="-79"/>
      <point x="17" y="-131" type="curve" smooth="yes"/>
      <point x="17" y="-196"/>
      <point x="118" y="-239"/>
    </contour>
    <contour>
      <point x="304" y="213" type="curve" smooth="yes"/>
      <point x="448" y="213"/>
      <point x="540" y="271"/>
      <point x="540" y="373" type="curve" smooth="yes"/>
      <point x="540" y="475"/>
      <point x="448" y="533"/>
      <point x="303" y="533" type="curve" smooth="yes"/>
      <point x="156" y="533"/>
      <point x="61" y="473"/>
      <point x="61" y="373" type="curve" smooth="yes"/>
      <point x="61" y="273"/>
      <point x="156" y="213"/>
    </contour>
    <contour>
      <point x="304" y="214" type="curve" smooth="yes"/>
      <point x="255" y="214"/>
      <point x="233" y="265"/>
      <point x="233" y="373" type="curve" smooth="yes"/>
      <point x="233" y="482"/>
      <point x="256" y="532"/>
      <point x="306" y="532" type="curve" smooth="yes"/>
      <point x="355" y="532"/>
      <point x="378" y="482"/>
      <point x="378" y="373" type="curve" smooth="yes"/>
      <point x="378" y="265"/>
      <point x="355" y="214"/>
    </contour>
    <contour>
      <point x="378" y="518" type="line"/>
      <point x="673" y="518" type="line"/>
      <point x="673" y="519" type="line"/>
      <point x="376" y="519" type="line"/>
    </contour>
  </outline>
</glyph>
<glyph name="k" format="2">
  <advance width="715"/>
  <unicode hex="006B"/>
  <anchor x="388" y="0" name="bottom"/>
  <anchor x="385" y="758" name="top"/>
  <outline>
    <contour>
      <point x="23" y="0" type="line"/>
      <point x="55" y="1"/>
      <point x="131" y="4"/>
      <point x="193" y="4" type="curve" smooth="yes"/>
      <point x="256" y="4"/>
      <point x="323" y="1"/>
      <point x="353" y="0" type="curve"/>
      <point x="353" y="1" type="line"/>
      <point x="302" y="3"/>
      <point x="278" y="18"/>
      <point x="278" y="73" type="curve" smooth="yes"/>
      <point x="278" y="782" type="line"/>
      <point x="223" y="773"/>
      <point x="162" y="768"/>
      <point x="103" y="768" type="curve" smooth="yes"/>
      <point x="84" y="768"/>
      <point x="69" y="769"/>
      <point x="23" y="771" type="curve"/>
      <point x="23" y="770" type="line"/>
      <point x="77" y="766"/>
      <point x="98" y="742"/>
      <point x="98" y="682" type="curve" smooth="yes"/>
      <point x="98" y="73" type="line" smooth="yes"/>
      <point x="98" y="27"/>
      <point x="83" y="3"/>
      <point x="23" y="1" type="curve"/>
    </contour>
    <contour>
      <point x="489" y="0" type="curve"/>
      <point x="528" y="2"/>
      <point x="560" y="3"/>
      <point x="592" y="3" type="curve" smooth="yes"/>
      <point x="648" y="3"/>
      <point x="696" y="2"/>
      <point x="735" y="0" type="curve"/>
      <point x="735" y="1" type="line"/>
      <point x="700" y="10"/>
      <point x="683" y="23"/>
      <point x="646" y="98" type="curve" smooth="yes"/>
      <point x="602" y="188" type="line" smooth="yes"/>
      <point x="554" y="285"/>
      <point x="515" y="311"/>
      <point x="408" y="316" type="curve"/>
      <point x="397" y="303" type="line"/>
      <point x="479" y="387" type="line" smooth="yes"/>
      <point x="550" y="460"/>
      <point x="603" y="493"/>
      <point x="688" y="518" type="curve"/>
      <point x="688" y="519" type="line"/>
      <point x="630" y="517"/>
      <point x="587" y="516"/>
      <point x="531" y="516" type="curve" smooth="yes"/>
      <point x="475" y="516"/>
      <point x="412" y="517"/>
      <point x="372" y="519" type="curve"/>
      <point x="372" y="518" type="line"/>
      <point x="449" y="514"/>
      <point x="492" y="401"/>
      <point x="423" y="332" type="curve" smooth="yes"/>
      <point x="417" y="326" type="line" smooth="yes"/>
      <point x="383" y="292"/>
      <point x="354" y="278"/>
      <point x="316" y="278" type="curve" smooth="yes"/>
      <point x="269" y="278" type="line"/>
      <point x="269" y="277" type="line"/>
      <point x="296" y="277" type="line" smooth="yes"/>
      <point x="351" y="277"/>
      <point x="372" y="266"/>
      <point x="397" y="215" type="curve" smooth="yes"/>
      <point x="466" y="75" type="line" smooth="yes"/>
      <point x="477" y="52"/>
      <point x="486" y="27"/>
    </contour>
    <component base="_LC-baseline-normal-narrow"/>
    <component base="_LC-ascender-left-inserif" xOffset="6"/>
    <component base="_LC-k-legs" xOffset="259"/>
  </outline>
</glyph>
<glyph name="l" format="2">
  <advance width="376"/>
  <unicode hex="006C"/>
  <anchor x="103" y="260" name="#entry"/>
  <anchor x="283" y="260" name="#exit"/>
  <anchor x="-137" y="0" name="%entry"/>
  <anchor x="103" y="0" name="%exit"/>
  <anchor x="0" y="0" name="^entry"/>
  <anchor x="338" y="0" name="^exit"/>
  <anchor x="193" y="0" name="bottom"/>
  <anchor x="193" y="354" name="center"/>
  <anchor x="312" y="520" name="right"/>
  <anchor x="103" y="260" name="stem"/>
  <anchor x="193" y="771" name="top"/>
  <anchor x="330" y="771" name="topright"/>
  <outline>
    <contour>
      <point x="193" y="3" type="curve"/>
      <point x="193" y="3" type="line"/>
      <point x="193" y="3" type="line"/>
      <point x="253" y="3"/>
      <point x="288" y="3"/>
      <point x="358" y="0" type="curve"/>
      <point x="358" y="1" type="line"/>
      <point x="347" y="2" type="line"/>
      <point x="299" y="6"/>
      <point x="283" y="24"/>
      <point x="283" y="73" type="curve"/>
      <point x="283" y="260" type="line"/>
      <point x="103" y="260" type="line"/>
      <point x="103" y="73" type="line"/>
      <point x="103" y="24"/>
      <point x="87" y="6"/>
      <point x="39" y="2" type="curve"/>
      <point x="28" y="1" type="line"/>
      <point x="28" y="0" type="line"/>
      <point x="98" y="3"/>
      <point x="133" y="3"/>
    </contour>
    <component base="_LC-ascender-left-inserif"/>
  </outline>
</glyph>
<glyph name="o" format="2">
  <advance width="706"/>
  <unicode hex="006F"/>
  <anchor x="-107" y="260" name="#entry"/>
  <anchor x="352" y="0" name="bottom"/>
  <anchor x="352" y="260" name="center"/>
  <anchor x="469" y="0" name="ogonek"/>
  <anchor x="353" y="520" name="top"/>
  <anchor x="353" y="500" name="top_low_1"/>
  <anchor x="353" y="480" name="top_low_2"/>
  <anchor x="353" y="460" name="top_low_3"/>
  <anchor x="353" y="440" name="top_low_4"/>
  <anchor x="652" y="520" name="topright"/>
  <outline>
    <contour>
      <point x="352" y="-14" type="curve" smooth="yes"/>
      <point x="538" y="-14"/>
      <point x="652" y="90"/>
      <point x="652" y="259" type="curve" smooth="yes"/>
      <point x="652" y="429"/>
      <point x="538" y="533"/>
      <point x="352" y="533" type="curve" smooth="yes"/>
      <point x="168" y="533"/>
      <point x="54" y="428"/>
      <point x="54" y="259" type="curve" smooth="yes"/>
      <point x="54" y="90"/>
      <point x="167" y="-14"/>
    </contour>
    <contour>
      <point x="353" y="-13" type="curve" smooth="yes"/>
      <point x="285" y="-13"/>
      <point x="241" y="95"/>
      <point x="241" y="260" type="curve" smooth="yes"/>
      <point x="241" y="423"/>
      <point x="286" y="532"/>
      <point x="353" y="532" type="curve" smooth="yes"/>
      <point x="420" y="532"/>
      <point x="465" y="423"/>
      <point x="465" y="259" type="curve" smooth="yes"/>
      <point x="465" y="94"/>
      <point x="421" y="-13"/>
    </contour>
  </outline>
</glyph>
<glyph name="p" format="2">
  <advance width="738"/>
  <unicode hex="0070"/>
  <anchor x="283" y="260" name="#entry"/>
  <anchor x="283" y="260" name="#exit"/>
  <anchor x="365" y="-231" name="bottom"/>
  <anchor x="390" y="261" name="center"/>
  <anchor x="103" y="0" name="lower-left"/>
  <anchor x="332" y="520" name="top"/>
  <anchor x="103" y="520" name="top-left"/>
  <outline>
    <contour>
      <point x="193" y="-228" type="curve"/>
      <point x="193" y="-228" type="line"/>
      <point x="193" y="-228" type="line"/>
      <point x="268" y="-228"/>
      <point x="311" y="-228"/>
      <point x="398" y="-231" type="curve"/>
      <point x="398" y="-230" type="line"/>
      <point x="367" y="-228" type="line"/>
      <point x="298" y="-223"/>
      <point x="283" y="-211"/>
      <point x="283" y="-158" type="curve"/>
      <point x="283" y="260" type="line"/>
      <point x="103" y="260" type="line"/>
      <point x="103" y="-158" type="line"/>
      <point x="103" y="-207"/>
      <point x="87" y="-225"/>
      <point x="39" y="-229" type="curve"/>
      <point x="28" y="-230" type="line"/>
      <point x="28" y="-231" type="line"/>
      <point x="98" y="-228"/>
      <point x="133" y="-228"/>
    </contour>
    <contour>
      <point x="448" y="534" type="curve" smooth="yes"/>
      <point x="372" y="534"/>
      <point x="311" y="508"/>
      <point x="268" y="433" type="curve"/>
      <point x="269" y="432" type="line"/>
      <point x="302" y="488"/>
      <point x="339" y="503"/>
      <point x="374" y="503" type="curve" smooth="yes"/>
      <point x="454" y="503"/>
      <point x="497" y="418"/>
      <point x="497" y="258" type="curve" smooth="yes"/>
      <point x="497" y="90"/>
      <point x="450" y="5"/>
      <point x="358" y="5" type="curve" smooth="yes"/>
      <point x="324" y="5"/>
      <point x="297" y="19"/>
      <point x="280" y="37" type="curve"/>
      <point x="279" y="37" type="line"/>
      <point x="298" y="12"/>
      <point x="357" y="-13"/>
      <point x="424" y="-13" type="curve" smooth="yes"/>
      <point x="585" y="-13"/>
      <point x="684" y="94"/>
      <point x="684" y="267" type="curve" smooth="yes"/>
      <point x="684" y="432"/>
      <point x="594" y="534"/>
    </contour>
    <component base="_n-1st-stroke-hook" xOffset="-2"/>
  </outline>
</glyph>
<glyph name="q" format="2">
  <advance width="740"/>
  <unicode hex="0071"/>
  <anchor x="455" y="260" name="#entry"/>
  <anchor x="455" y="260" name="#exit"/>
  <anchor x="406" y="0" name="bottom"/>
  <anchor x="635" y="0" name="bottom-right"/>
  <anchor x="348" y="259" name="center"/>
  <anchor x="635" y="0" name="lower-right"/>
  <outline>
    <contour>
      <point x="290" y="-14" type="curve" smooth="yes"/>
      <point x="366" y="-14"/>
      <point x="427" y="12"/>
      <point x="470" y="87" type="curve"/>
      <point x="469" y="88" type="line"/>
      <point x="436" y="32"/>
      <point x="399" y="17"/>
      <point x="364" y="17" type="curve" smooth="yes"/>
      <point x="284" y="17"/>
      <point x="241" y="102"/>
      <point x="241" y="262" type="curve" smooth="yes"/>
      <point x="241" y="430"/>
      <point x="288" y="515"/>
      <point x="380" y="515" type="curve" smooth="yes"/>
      <point x="414" y="515"/>
      <point x="441" y="501"/>
      <point x="458" y="483" type="curve"/>
      <point x="459" y="483" type="line"/>
      <point x="440" y="508"/>
      <point x="381" y="533"/>
      <point x="314" y="533" type="curve" smooth="yes"/>
      <point x="153" y="533"/>
      <point x="54" y="426"/>
      <point x="54" y="253" type="curve" smooth="yes"/>
      <point x="54" y="88"/>
      <point x="144" y="-14"/>
    </contour>
    <contour>
      <point x="545" y="-228" type="line"/>
      <point x="605" y="-228"/>
      <point x="640" y="-228"/>
      <point x="710" y="-231" type="curve"/>
      <point x="710" y="-230" type="line"/>
      <point x="699" y="-229" type="line"/>
      <point x="651" y="-225"/>
      <point x="635" y="-207"/>
      <point x="635" y="-158" type="curve"/>
      <point x="635" y="260" type="line"/>
      <point x="455" y="260" type="line"/>
      <point x="455" y="-158" type="line"/>
      <point x="455" y="-211"/>
      <point x="440" y="-223"/>
      <point x="371" y="-228" type="curve"/>
      <point x="340" y="-230" type="line"/>
      <point x="340" y="-231" type="line"/>
      <point x="427" y="-228"/>
      <point x="470" y="-228"/>
      <point x="545" y="-228" type="curve"/>
      <point x="545" y="-228" type="line"/>
    </contour>
    <component base="_LC-xheight-right-instroke" xOffset="255"/>
  </outline>
</glyph>
<glyph name="s" format="2">
  <advance width="557"/>
  <unicode hex="0073"/>
  <anchor x="495" y="0" name="^exit"/>
  <anchor x="291" y="0" name="bottom"/>
  <anchor x="286" y="259" name="center"/>
  <anchor x="276" y="520" name="top"/>
  <anchor x="276" y="500" name="top_low_1"/>
  <anchor x="276" y="480" name="top_low_2"/>
  <anchor x="276" y="460" name="top_low_3"/>
  <anchor x="276" y="440" name="top_low_4"/>
  <outline>
    <contour>
      <point x="295" y="-14" type="curve" smooth="yes"/>
      <point x="434" y="-14"/>
      <point x="516" y="48"/>
      <point x="516" y="154" type="curve" smooth="yes"/>
      <point x="516" y="242"/>
      <point x="459" y="301"/>
      <point x="344" y="335" type="curve" smooth="yes"/>
      <point x="226" y="370"/>
      <point x="185" y="399"/>
      <point x="185" y="450" type="curve" smooth="yes"/>
      <point x="185" y="501"/>
      <point x="225" y="531"/>
      <point x="291" y="531" type="curve" smooth="yes"/>
      <point x="385" y="531"/>
      <point x="457" y="467"/>
      <point x="490" y="352" type="curve"/>
      <point x="491" y="352" type="line"/>
      <point x="488" y="438"/>
      <point x="490" y="484"/>
      <point x="495" y="533" type="curve"/>
      <point x="494" y="533" type="line"/>
      <point x="486" y="507"/>
      <point x="475" y="500"/>
      <point x="460" y="500" type="curve" smooth="yes"/>
      <point x="426" y="500"/>
      <point x="365" y="533"/>
      <point x="272" y="533" type="curve" smooth="yes"/>
      <point x="142" y="533"/>
      <point x="60" y="468"/>
      <point x="60" y="364" type="curve" smooth="yes"/>
      <point x="60" y="276"/>
      <point x="118" y="217"/>
      <point x="241" y="178" type="curve" smooth="yes"/>
      <point x="345" y="145"/>
      <point x="392" y="115"/>
      <point x="392" y="63" type="curve" smooth="yes"/>
      <point x="392" y="15"/>
      <point x="352" y="-12"/>
      <point x="282" y="-12" type="curve" smooth="yes"/>
      <point x="173" y="-12"/>
      <point x="93" y="61"/>
      <point x="62" y="193" type="curve"/>
      <point x="61" y="193" type="line"/>
      <point x="64" y="101"/>
      <point x="63" y="44"/>
      <point x="57" y="-14" type="curve"/>
      <point x="58" y="-14" type="line"/>
      <point x="67" y="9"/>
      <point x="83" y="19"/>
      <point x="106" y="19" type="curve" smooth="yes"/>
      <point x="147" y="19"/>
      <point x="197" y="-14"/>
    </contour>
  </outline>
</glyph>
<glyph name="u" format="2">
  <advance width="761"/>
  <unicode hex="0075"/>
  <anchor x="105" y="260" name="#entry"/>
  <anchor x="285" y="260" name="#exit"/>
  <anchor x="249" y="-14" name="%entry"/>
  <anchor x="519" y="534" name="%exit"/>
  <anchor x="14" y="520" name="^entry"/>
  <anchor x="388" y="520" name="^exit"/>
  <anchor x="403" y="0" name="bottom"/>
  <anchor x="382" y="270" name="center"/>
  <anchor x="483" y="260" name="reversedExit"/>
  <anchor x="285" y="260" name="stem"/>
  <anchor x="373" y="520" name="top"/>
  <anchor x="373" y="500" name="top_low_1"/>
  <anchor x="373" y="480" name="top_low_2"/>
  <anchor x="373" y="460" name="top_low_3"/>
  <anchor x="663" y="520" name="topright"/>
  <outline>
    <contour>
      <point x="285" y="520" type="line"/>
      <point x="285" y="531" type="line"/>
      <point x="234" y="521"/>
      <point x="189" y="517"/>
      <point x="131" y="517" type="curve"/>
      <point x="96" y="517"/>
      <point x="74" y="517"/>
      <point x="30" y="520" type="curve"/>
      <point x="30" y="519" type="line"/>
      <point x="41" y="518" type="line"/>
      <point x="89" y="514"/>
      <point x="105" y="493"/>
      <point x="105" y="437" type="curve"/>
      <point x="105" y="260" type="line"/>
      <point x="285" y="260" type="line"/>
    </contour>
    <contour>
      <point x="285" y="260" type="line"/>
      <point x="105" y="260" type="line"/>
      <point x="105" y="186" type="line" smooth="yes"/>
      <point x="105" y="50"/>
      <point x="164" y="-13"/>
      <point x="293" y="-13" type="curve" smooth="yes"/>
      <point x="395" y="-13"/>
      <point x="463" y="29"/>
      <point x="507" y="129" type="curve"/>
      <point x="506" y="130" type="line"/>
      <point x="471" y="54"/>
      <point x="432" y="22"/>
      <point x="376" y="22" type="curve" smooth="yes"/>
      <point x="313" y="22"/>
      <point x="285" y="58"/>
      <point x="285" y="138" type="curve" smooth="yes"/>
    </contour>
    <contour>
      <point x="483" y="0" type="line"/>
      <point x="483" y="-11" type="line"/>
      <point x="534" y="-1"/>
      <point x="579" y="3"/>
      <point x="637" y="3" type="curve"/>
      <point x="672" y="3"/>
      <point x="694" y="3"/>
      <point x="738" y="0" type="curve"/>
      <point x="738" y="1" type="line"/>
      <point x="727" y="2" type="line"/>
      <point x="679" y="6"/>
      <point x="663" y="27"/>
      <point x="663" y="83" type="curve"/>
      <point x="663" y="260" type="line"/>
      <point x="483" y="260" type="line"/>
    </contour>
    <contour>
      <point x="663" y="520" type="line"/>
      <point x="663" y="531" type="line"/>
      <point x="612" y="521"/>
      <point x="567" y="517"/>
      <point x="509" y="517" type="curve"/>
      <point x="474" y="517"/>
      <point x="452" y="517"/>
      <point x="408" y="520" type="curve"/>
      <point x="408" y="519" type="line"/>
      <point x="419" y="518" type="line"/>
      <point x="467" y="514"/>
      <point x="483" y="493"/>
      <point x="483" y="437" type="curve"/>
      <point x="483" y="260" type="line"/>
      <point x="663" y="260" type="line"/>
    </contour>
  </outline>
</glyph>
<glyph name="v" format="2">
  <advance width="686"/>
  <unicode hex="0076"/>
  <anchor x="329" y="0" name="bottom"/>
  <anchor x="328" y="520" name="top"/>
  <outline>
    <contour>
      <point x="334" y="-15" type="line"/>
      <point x="335" y="-15" type="line"/>
      <point x="480" y="281" type="line"/>
      <point x="563" y="449"/>
      <point x="596" y="493"/>
      <point x="662" y="512" type="curve"/>
      <point x="686" y="519" type="line"/>
      <point x="686" y="520" type="line"/>
      <point x="636" y="518"/>
      <point x="609" y="517"/>
      <point x="564" y="517" type="curve"/>
      <point x="517" y="517"/>
      <point x="487" y="518"/>
      <point x="412" y="520" type="curve"/>
      <point x="412" y="519" type="line"/>
      <point x="420" y="518" type="line"/>
      <point x="527" y="507"/>
      <point x="548" y="424"/>
      <point x="478" y="281" type="curve"/>
      <point x="425" y="172" type="line"/>
      <point x="427" y="174" type="line"/>
      <point x="280" y="447" type="line"/>
      <point x="269" y="469"/>
      <point x="258" y="493"/>
      <point x="255" y="520" type="curve"/>
      <point x="220" y="518"/>
      <point x="191" y="517"/>
      <point x="162" y="517" type="curve"/>
      <point x="97" y="517"/>
      <point x="50" y="517"/>
      <point x="0" y="520" type="curve"/>
      <point x="0" y="519" type="line"/>
      <point x="49" y="506"/>
      <point x="59" y="499"/>
      <point x="104" y="414" type="curve"/>
    </contour>
  </outline>
</glyph>
<glyph name="w" format="2">
  <advance width="925"/>
  <unicode hex="0077"/>
  <anchor x="477" y="0" name="bottom"/>
  <anchor x="504" y="520" name="top"/>
  <outline>
    <contour>
      <point x="313" y="-15" type="line"/>
      <point x="314" y="-15" type="line"/>
      <point x="563" y="522" type="line"/>
      <point x="562" y="523" type="line"/>
      <point x="401" y="176" type="line"/>
      <point x="406" y="184" type="line"/>
      <point x="277" y="446" type="line"/>
      <point x="267" y="468"/>
      <point x="258" y="493"/>
      <point x="255" y="520" type="curve"/>
      <point x="220" y="518"/>
      <point x="191" y="517"/>
      <point x="162" y="517" type="curve"/>
      <point x="97" y="517"/>
      <point x="50" y="517"/>
      <point x="0" y="520" type="curve"/>
      <point x="0" y="519" type="line"/>
      <point x="49" y="506"/>
      <point x="58" y="499"/>
      <point x="101" y="412" type="curve"/>
    </contour>
    <contour>
      <point x="631" y="-15" type="line"/>
      <point x="632" y="-15" type="line"/>
      <point x="816" y="378" type="line"/>
      <point x="851" y="455"/>
      <point x="883" y="495"/>
      <point x="925" y="519" type="curve"/>
      <point x="925" y="520" type="line"/>
      <point x="914" y="518"/>
      <point x="893" y="517"/>
      <point x="877" y="517" type="curve"/>
      <point x="861" y="517"/>
      <point x="848" y="518"/>
      <point x="831" y="520" type="curve"/>
      <point x="839" y="472"/>
      <point x="832" y="415"/>
      <point x="809" y="367" type="curve"/>
      <point x="719" y="176" type="line"/>
      <point x="726" y="188" type="line"/>
      <point x="563" y="523" type="line"/>
      <point x="562" y="523" type="line"/>
      <point x="470" y="323" type="line"/>
    </contour>
  </outline>
</glyph>
<glyph name="x" format="2">
  <advance width="638"/>
  <unicode hex="0078"/>
  <anchor x="331" y="0" name="bottom"/>
  <anchor x="649" y="0" name="bottomright"/>
  <anchor x="338" y="520" name="top"/>
  <outline>
    <contour>
      <point x="374" y="0" type="curve"/>
      <point x="417" y="3"/>
      <point x="452" y="4"/>
      <point x="487" y="4" type="curve" smooth="yes"/>
      <point x="552" y="4"/>
      <point x="599" y="3"/>
      <point x="649" y="0" type="curve"/>
      <point x="649" y="1" type="line"/>
      <point x="614" y="3"/>
      <point x="580" y="21"/>
      <point x="553" y="62" type="curve" smooth="yes"/>
      <point x="301" y="445" type="line" smooth="yes"/>
      <point x="281" y="476"/>
      <point x="272" y="492"/>
      <point x="268" y="519" type="curve"/>
      <point x="225" y="516"/>
      <point x="190" y="515"/>
      <point x="155" y="515" type="curve" smooth="yes"/>
      <point x="90" y="515"/>
      <point x="43" y="516"/>
      <point x="-7" y="519" type="curve"/>
      <point x="-7" y="518" type="line"/>
      <point x="28" y="516"/>
      <point x="62" y="498"/>
      <point x="89" y="457" type="curve" smooth="yes"/>
      <point x="341" y="74" type="line" smooth="yes"/>
      <point x="361" y="43"/>
      <point x="370" y="27"/>
    </contour>
    <contour>
      <point x="-5" y="0" type="line"/>
      <point x="56" y="2"/>
      <point x="81" y="3"/>
      <point x="117" y="3" type="curve" smooth="yes"/>
      <point x="165" y="3"/>
      <point x="229" y="2"/>
      <point x="263" y="0" type="curve"/>
      <point x="263" y="1" type="line"/>
      <point x="198" y="10"/>
      <point x="129" y="80"/>
      <point x="231" y="191" type="curve" smooth="yes"/>
      <point x="264" y="227" type="line"/>
      <point x="263" y="228" type="line"/>
      <point x="199" y="160" type="line" smooth="yes"/>
      <point x="129" y="86"/>
      <point x="72" y="36"/>
      <point x="-5" y="1" type="curve"/>
    </contour>
    <contour>
      <point x="363" y="292" type="line"/>
      <point x="434" y="366" type="line" smooth="yes"/>
      <point x="508" y="443"/>
      <point x="549" y="479"/>
      <point x="612" y="518" type="curve"/>
      <point x="612" y="519" type="line"/>
      <point x="575" y="517"/>
      <point x="550" y="516"/>
      <point x="512" y="516" type="curve" smooth="yes"/>
      <point x="474" y="516"/>
      <point x="438" y="517"/>
      <point x="399" y="519" type="curve"/>
      <point x="399" y="518" type="line"/>
      <point x="459" y="510"/>
      <point x="487" y="426"/>
      <point x="412" y="346" type="curve" smooth="yes"/>
      <point x="362" y="293" type="line"/>
    </contour>
  </outline>
</glyph>
<glyph name="y" format="2">
  <advance width="699"/>
  <unicode hex="0079"/>
  <anchor x="-105" y="260" name="#entry"/>
  <anchor x="473" y="0" name="bottom"/>
  <anchor x="340" y="259" name="center"/>
  <anchor x="340" y="520" name="top"/>
  <outline>
    <contour>
      <point x="347" y="-87" type="line"/>
      <point x="348" y="-87" type="line"/>
      <point x="504" y="276" type="line"/>
      <point x="579" y="447"/>
      <point x="609" y="493"/>
      <point x="675" y="512" type="curve"/>
      <point x="699" y="519" type="line"/>
      <point x="699" y="520" type="line"/>
      <point x="649" y="518"/>
      <point x="622" y="517"/>
      <point x="577" y="517" type="curve"/>
      <point x="530" y="517"/>
      <point x="500" y="518"/>
      <point x="425" y="520" type="curve"/>
      <point x="425" y="519" type="line"/>
      <point x="433" y="518" type="line"/>
      <point x="540" y="507"/>
      <point x="566" y="422"/>
      <point x="503" y="276" type="curve"/>
      <point x="435" y="119" type="line"/>
      <point x="438" y="124" type="line"/>
      <point x="278" y="446" type="line"/>
      <point x="267" y="468"/>
      <point x="258" y="493"/>
      <point x="255" y="520" type="curve"/>
      <point x="220" y="518"/>
      <point x="191" y="517"/>
      <point x="162" y="517" type="curve"/>
      <point x="97" y="517"/>
      <point x="50" y="517"/>
      <point x="0" y="520" type="curve"/>
      <point x="0" y="519" type="line"/>
      <point x="49" y="506"/>
      <point x="58" y="499"/>
      <point x="100" y="412" type="curve"/>
    </contour>
    <contour>
      <point x="172" y="-239" type="curve" smooth="yes"/>
      <point x="285" y="-239"/>
      <point x="318" y="-158"/>
      <point x="339" y="-108" type="curve" smooth="yes"/>
      <point x="354" y="-73" type="line"/>
      <point x="353" y="-73" type="line"/>
      <point x="331" y="-123" type="line" smooth="yes"/>
      <point x="302" y="-189"/>
      <point x="260" y="-232"/>
      <point x="196" y="-232" type="curve" smooth="yes"/>
      <point x="181" y="-232"/>
      <point x="173" y="-227"/>
      <point x="173" y="-214" type="curve" smooth="yes"/>
      <point x="173" y="-189"/>
      <point x="211" y="-157"/>
      <point x="211" y="-120" type="curve" smooth="yes"/>
      <point x="211" y="-89"/>
      <point x="185" y="-70"/>
      <point x="144" y="-70" type="curve" smooth="yes"/>
      <point x="90" y="-70"/>
      <point x="54" y="-103"/>
      <point x="54" y="-151" type="curve" smooth="yes"/>
      <point x="54" y="-205"/>
      <point x="100" y="-239"/>
    </contour>
  </outline>
</glyph>
<glyph name="z" format="2">
  <advance width="571"/>
  <unicode hex="007A"/>
  <anchor x="290" y="0" name="bottom"/>
  <anchor x="283" y="269" name="center"/>
  <anchor x="296" y="520" name="top"/>
  <outline>
    <contour>
      <point x="40" y="0" type="line"/>
      <point x="98" y="2"/>
      <point x="161" y="3"/>
      <point x="226" y="3" type="curve" smooth="yes"/>
      <point x="245" y="3" type="line"/>
      <point x="398" y="3" type="line"/>
      <point x="435" y="3"/>
      <point x="471" y="3"/>
      <point x="508" y="1" type="curve"/>
      <point x="505" y="59"/>
      <point x="508" y="123"/>
      <point x="514" y="186" type="curve"/>
      <point x="513" y="186" type="line"/>
      <point x="481" y="93"/>
      <point x="429" y="4"/>
      <point x="245" y="4" type="curve"/>
      <point x="236" y="4" type="line"/>
      <point x="526" y="519" type="line"/>
      <point x="526" y="520" type="line"/>
      <point x="465" y="518"/>
      <point x="397" y="517"/>
      <point x="334" y="517" type="curve" smooth="yes"/>
      <point x="307" y="517" type="line"/>
      <point x="162" y="517" type="line"/>
      <point x="125" y="517"/>
      <point x="89" y="517"/>
      <point x="52" y="519" type="curve"/>
      <point x="55" y="467"/>
      <point x="52" y="410"/>
      <point x="46" y="354" type="curve"/>
      <point x="47" y="354" type="line"/>
      <point x="79" y="437"/>
      <point x="131" y="516"/>
      <point x="307" y="516" type="curve"/>
      <point x="330" y="516" type="line"/>
      <point x="40" y="1" type="line"/>
    </contour>
  </outline>
</glyph>
<glyph name="braceleft" format="2">
  <advance width="408"/>
  <unicode hex="007B"/>
  <outline>
    <contour>
      <point x="389" y="-191" type="curve"/>
      <point x="389" y="-190" type="line"/>
      <point x="306" y="-186"/>
      <point x="302" y="-179"/>
      <point x="299" y="16" type="curve" smooth="yes"/>
      <point x="296" y="216"/>
      <point x="235" y="284"/>
      <point x="42" y="299" type="curve"/>
      <point x="235" y="324"/>
      <point x="293" y="394"/>
      <point x="297" y="550" type="curve" smooth="yes"/>
      <point x="303" y="773"/>
      <point x="308" y="776"/>
      <point x="389" y="781" type="curve"/>
      <point x="389" y="782" type="line"/>
      <point x="179" y="782"/>
      <point x="122" y="733"/>
      <point x="117" y="547" type="curve" smooth="yes"/>
      <point x="111" y="314"/>
      <point x="87" y="300"/>
      <point x="26" y="300" type="curve" smooth="yes"/>
      <point x="20" y="300" type="line"/>
      <point x="20" y="298" type="line"/>
      <point x="26" y="298" type="line" smooth="yes"/>
      <point x="87" y="298"/>
      <point x="109" y="290"/>
      <point x="118" y="47" type="curve" smooth="yes"/>
      <point x="125" y="-143"/>
      <point x="180" y="-191"/>
    </contour>
  </outline>
</glyph>
<glyph name="bar" format="2">
  <advance width="185"/>
  <unicode hex="007C"/>
  <outline>
    <contour>
      <point x="92" y="-231" type="line"/>
      <point x="93" y="-231" type="line"/>
      <point x="93" y="858" type="line"/>
      <point x="92" y="858" type="line"/>
    </contour>
  </outline>
</glyph>
<glyph name="asciitilde" format="2">
  <advance width="813"/>
  <unicode hex="007E"/>
  <anchor x="407" y="262" name="_center"/>
  <outline>
    <contour>
      <point x="551" y="182" type="curve" smooth="yes"/>
      <point x="666" y="182"/>
      <point x="748" y="255"/>
      <point x="774" y="370" type="curve"/>
      <point x="773" y="370" type="line"/>
      <point x="739" y="319"/>
      <point x="688" y="295"/>
      <point x="619" y="295" type="curve" smooth="yes"/>
      <point x="489" y="295"/>
      <point x="393" y="352"/>
      <point x="263" y="352" type="curve" smooth="yes"/>
      <point x="147" y="352"/>
      <point x="64" y="279"/>
      <point x="39" y="164" type="curve"/>
      <point x="40" y="164" type="line"/>
      <point x="75" y="215"/>
      <point x="127" y="239"/>
      <point x="194" y="239" type="curve" smooth="yes"/>
      <point x="325" y="239"/>
      <point x="420" y="182"/>
    </contour>
  </outline>
</glyph>
<glyph name="sterling" format="2">
  <advance width="887"/>
  <unicode hex="00A3"/>
  <outline>
    <contour>
      <point x="75" y="356" type="line"/>
      <point x="613" y="356" type="line"/>
      <point x="613" y="357" type="line"/>
      <point x="75" y="357" type="line"/>
    </contour>
    <contour>
      <point x="224" y="136" type="curve"/>
      <point x="225" y="135" type="line"/>
      <point x="371" y="170"/>
      <point x="437" y="224"/>
      <point x="437" y="351" type="curve" smooth="yes"/>
      <point x="437" y="521" type="line" smooth="yes"/>
      <point x="437" y="661"/>
      <point x="481" y="716"/>
      <point x="592" y="716" type="curve" smooth="yes"/>
      <point x="640" y="716"/>
      <point x="684" y="707"/>
      <point x="684" y="677" type="curve" smooth="yes"/>
      <point x="684" y="642"/>
      <point x="635" y="612"/>
      <point x="635" y="568" type="curve" smooth="yes"/>
      <point x="635" y="533"/>
      <point x="660" y="511"/>
      <point x="701" y="511" type="curve" smooth="yes"/>
      <point x="751" y="511"/>
      <point x="782" y="543"/>
      <point x="782" y="594" type="curve" smooth="yes"/>
      <point x="782" y="673"/>
      <point x="682" y="722"/>
      <point x="552" y="722" type="curve" smooth="yes"/>
      <point x="350" y="722"/>
      <point x="234" y="620"/>
      <point x="234" y="425" type="curve" smooth="yes"/>
      <point x="234" y="258" type="line" smooth="yes"/>
      <point x="234" y="188"/>
      <point x="232" y="156"/>
    </contour>
    <contour>
      <point x="91" y="-14" type="curve" smooth="yes"/>
      <point x="145" y="-14"/>
      <point x="189" y="35"/>
      <point x="224" y="135" type="curve"/>
      <point x="223" y="135" type="line"/>
      <point x="360" y="74"/>
      <point x="487" y="-84"/>
      <point x="622" y="-84" type="curve" smooth="yes"/>
      <point x="741" y="-84"/>
      <point x="852" y="38"/>
      <point x="852" y="167" type="curve" smooth="yes"/>
      <point x="852" y="241"/>
      <point x="815" y="284"/>
      <point x="751" y="284" type="curve" smooth="yes"/>
      <point x="699" y="284"/>
      <point x="666" y="256"/>
      <point x="666" y="211" type="curve" smooth="yes"/>
      <point x="666" y="113"/>
      <point x="822" y="95"/>
      <point x="822" y="57" type="curve" smooth="yes"/>
      <point x="822" y="50"/>
      <point x="817" y="48"/>
      <point x="803" y="48" type="curve" smooth="yes"/>
      <point x="708" y="48"/>
      <point x="576" y="138"/>
      <point x="289" y="138" type="curve" smooth="yes"/>
      <point x="118" y="138"/>
      <point x="35" y="106"/>
      <point x="35" y="39" type="curve" smooth="yes"/>
      <point x="35" y="6"/>
      <point x="56" y="-14"/>
    </contour>
  </outline>
</glyph>
<glyph name="brokenbar" format="2">
  <advance width="185"/>
  <unicode hex="00A6"/>
  <outline>
    <contour>
      <point x="92" y="-231" type="line"/>
      <point x="93" y="-231" type="line"/>
      <point x="93" y="326" type="line"/>
      <point x="92" y="326" type="line"/>
    </contour>
    <contour>
      <point x="92" y="384" type="line"/>
      <point x="93" y="384" type="line"/>
      <point x="93" y="858" type="line"/>
      <point x="92" y="858" type="line"/>
    </contour>
  </outline>
</glyph>
<glyph name="section" format="2">
  <advance width="711"/>
  <unicode hex="00A7"/>
  <outline>
    <contour>
      <point x="540" y="40" type="line"/>
      <point x="615" y="84"/>
      <point x="671" y="136"/>
      <point x="671" y="221" type="curve" smooth="yes"/>
      <point x="671" y="303"/>
      <point x="600" y="364"/>
      <point x="461" y="447" type="curve" smooth="yes"/>
      <point x="268" y="562"/>
      <point x="247" y="591"/>
      <point x="247" y="633" type="curve" smooth="yes"/>
      <point x="247" y="683"/>
      <point x="290" y="718"/>
      <point x="391" y="718" type="curve" smooth="yes"/>
      <point x="469" y="718"/>
      <point x="508" y="703"/>
      <point x="508" y="676" type="curve" smooth="yes"/>
      <point x="508" y="644"/>
      <point x="460" y="619"/>
      <point x="460" y="569" type="curve" smooth="yes"/>
      <point x="460" y="533"/>
      <point x="485" y="511"/>
      <point x="526" y="511" type="curve" smooth="yes"/>
      <point x="575" y="511"/>
      <point x="607" y="543"/>
      <point x="607" y="591" type="curve" smooth="yes"/>
      <point x="607" y="672"/>
      <point x="506" y="722"/>
      <point x="370" y="722" type="curve" smooth="yes"/>
      <point x="201" y="722"/>
      <point x="101" y="654"/>
      <point x="101" y="558" type="curve" smooth="yes"/>
      <point x="101" y="483"/>
      <point x="137" y="438"/>
      <point x="348" y="303" type="curve" smooth="yes"/>
      <point x="560" y="167"/>
      <point x="573" y="149"/>
      <point x="573" y="107" type="curve" smooth="yes"/>
      <point x="573" y="81"/>
      <point x="562" y="59"/>
      <point x="540" y="41" type="curve"/>
    </contour>
    <contour>
      <point x="331" y="-239" type="curve" smooth="yes"/>
      <point x="500" y="-239"/>
      <point x="600" y="-171"/>
      <point x="600" y="-75" type="curve" smooth="yes"/>
      <point x="600" y="0"/>
      <point x="564" y="45"/>
      <point x="353" y="180" type="curve" smooth="yes"/>
      <point x="141" y="316"/>
      <point x="128" y="334"/>
      <point x="128" y="376" type="curve" smooth="yes"/>
      <point x="128" y="402"/>
      <point x="139" y="424"/>
      <point x="161" y="442" type="curve"/>
      <point x="161" y="443" type="line"/>
      <point x="86" y="399"/>
      <point x="30" y="347"/>
      <point x="30" y="262" type="curve" smooth="yes"/>
      <point x="30" y="180"/>
      <point x="101" y="119"/>
      <point x="240" y="36" type="curve" smooth="yes"/>
      <point x="433" y="-79"/>
      <point x="454" y="-108"/>
      <point x="454" y="-150" type="curve" smooth="yes"/>
      <point x="454" y="-200"/>
      <point x="411" y="-235"/>
      <point x="310" y="-235" type="curve" smooth="yes"/>
      <point x="232" y="-235"/>
      <point x="193" y="-220"/>
      <point x="193" y="-193" type="curve" smooth="yes"/>
      <point x="193" y="-161"/>
      <point x="241" y="-136"/>
      <point x="241" y="-86" type="curve" smooth="yes"/>
      <point x="241" y="-50"/>
      <point x="216" y="-28"/>
      <point x="175" y="-28" type="curve" smooth="yes"/>
      <point x="126" y="-28"/>
      <point x="94" y="-60"/>
      <point x="94" y="-108" type="curve" smooth="yes"/>
      <point x="94" y="-189"/>
      <point x="195" y="-239"/>
    </contour>
  </outline>
</glyph>
<glyph name="copyright" format="2">
  <advance width="872"/>
  <unicode hex="00A9"/>
  <outline>
    <contour>
      <point x="436" y="-14" type="curve" smooth="yes"/>
      <point x="656" y="-14"/>
      <point x="834" y="164"/>
      <point x="834" y="384" type="curve" smooth="yes"/>
      <point x="834" y="604"/>
      <point x="656" y="782"/>
      <point x="436" y="782" type="curve" smooth="yes"/>
      <point x="216" y="782"/>
      <point x="38" y="604"/>
      <point x="38" y="384" type="curve" smooth="yes"/>
      <point x="38" y="164"/>
      <point x="216" y="-14"/>
    </contour>
    <contour>
      <point x="444" y="121" type="curve" smooth="yes"/>
      <point x="572" y="121"/>
      <point x="663" y="178"/>
      <point x="701" y="291" type="curve"/>
      <point x="700" y="291" type="line"/>
      <point x="666" y="216"/>
      <point x="611" y="181"/>
      <point x="533" y="181" type="curve" smooth="yes"/>
      <point x="415" y="181"/>
      <point x="353" y="258"/>
      <point x="353" y="405" type="curve" smooth="yes"/>
      <point x="353" y="548"/>
      <point x="416" y="641"/>
      <point x="522" y="641" type="curve" smooth="yes"/>
      <point x="555" y="641"/>
      <point x="578" y="629"/>
      <point x="578" y="609" type="curve" smooth="yes"/>
      <point x="578" y="566"/>
      <point x="505" y="545"/>
      <point x="505" y="488" type="curve" smooth="yes"/>
      <point x="505" y="451"/>
      <point x="535" y="427"/>
      <point x="579" y="427" type="curve" smooth="yes"/>
      <point x="638" y="427"/>
      <point x="680" y="463"/>
      <point x="680" y="516" type="curve" smooth="yes"/>
      <point x="680" y="596"/>
      <point x="588" y="648"/>
      <point x="466" y="648" type="curve" smooth="yes"/>
      <point x="284" y="648"/>
      <point x="166" y="549"/>
      <point x="166" y="381" type="curve" smooth="yes"/>
      <point x="166" y="219"/>
      <point x="278" y="121"/>
    </contour>
    <contour>
      <point x="436" y="-13" type="curve" smooth="yes"/>
      <point x="216" y="-13"/>
      <point x="39" y="165"/>
      <point x="39" y="384" type="curve" smooth="yes"/>
      <point x="39" y="603"/>
      <point x="216" y="781"/>
      <point x="436" y="781" type="curve" smooth="yes"/>
      <point x="656" y="781"/>
      <point x="833" y="603"/>
      <point x="833" y="384" type="curve" smooth="yes"/>
      <point x="833" y="165"/>
      <point x="656" y="-13"/>
    </contour>
  </outline>
</glyph>
<glyph name="ordfeminine" format="2">
  <advance width="567"/>
  <unicode hex="00AA"/>
  <outline>
    <contour>
      <point x="168" y="360" type="curve" smooth="yes"/>
      <point x="232" y="360"/>
      <point x="296" y="385"/>
      <point x="340" y="427" type="curve"/>
      <point x="340" y="382"/>
      <point x="369" y="360"/>
      <point x="429" y="360" type="curve" smooth="yes"/>
      <point x="485" y="360"/>
      <point x="517" y="370"/>
      <point x="546" y="397" type="curve"/>
      <point x="545" y="398" type="line"/>
      <point x="532" y="389"/>
      <point x="518" y="384"/>
      <point x="503" y="384" type="curve" smooth="yes"/>
      <point x="487" y="384"/>
      <point x="481" y="392"/>
      <point x="481" y="413" type="curve" smooth="yes"/>
      <point x="481" y="598" type="line" smooth="yes"/>
      <point x="481" y="685"/>
      <point x="422" y="723"/>
      <point x="288" y="723" type="curve" smooth="yes"/>
      <point x="161" y="723"/>
      <point x="74" y="686"/>
      <point x="74" y="631" type="curve" smooth="yes"/>
      <point x="74" y="600"/>
      <point x="103" y="579"/>
      <point x="146" y="579" type="curve" smooth="yes"/>
      <point x="188" y="579"/>
      <point x="217" y="596"/>
      <point x="217" y="621" type="curve" smooth="yes"/>
      <point x="217" y="652"/>
      <point x="184" y="666"/>
      <point x="184" y="689" type="curve" smooth="yes"/>
      <point x="184" y="706"/>
      <point x="207" y="719"/>
      <point x="238" y="719" type="curve" smooth="yes"/>
      <point x="307" y="719"/>
      <point x="340" y="691"/>
      <point x="340" y="633" type="curve" smooth="yes"/>
      <point x="340" y="598" type="line" smooth="yes"/>
      <point x="340" y="526"/>
      <point x="50" y="570"/>
      <point x="50" y="441" type="curve" smooth="yes"/>
      <point x="50" y="391"/>
      <point x="95" y="360"/>
    </contour>
    <contour>
      <point x="263" y="401" type="curve" smooth="yes"/>
      <point x="217" y="401"/>
      <point x="193" y="422"/>
      <point x="193" y="461" type="curve" smooth="yes"/>
      <point x="193" y="557"/>
      <point x="332" y="546"/>
      <point x="340" y="592" type="curve"/>
      <point x="340" y="428" type="line"/>
      <point x="323" y="413"/>
      <point x="289" y="401"/>
    </contour>
  </outline>
</glyph>
<glyph name="logicalnot" format="2">
  <advance width="627"/>
  <unicode hex="00AC"/>
  <outline>
    <contour>
      <point x="563" y="61" type="line"/>
      <point x="564" y="61" type="line"/>
      <point x="564" y="266" type="line"/>
      <point x="63" y="266" type="line"/>
      <point x="63" y="265" type="line"/>
      <point x="563" y="265" type="line"/>
    </contour>
  </outline>
</glyph>
<glyph name="registered" format="2">
  <advance width="678"/>
  <unicode hex="00AE"/>
  <outline>
    <contour>
      <point x="339" y="224" type="curve" smooth="yes"/>
      <point x="493" y="224"/>
      <point x="618" y="349"/>
      <point x="618" y="503" type="curve" smooth="yes"/>
      <point x="618" y="657"/>
      <point x="493" y="782"/>
      <point x="339" y="782" type="curve" smooth="yes"/>
      <point x="185" y="782"/>
      <point x="60" y="657"/>
      <point x="60" y="503" type="curve" smooth="yes"/>
      <point x="60" y="349"/>
      <point x="185" y="224"/>
    </contour>
    <contour>
      <point x="339" y="225" type="curve" smooth="yes"/>
      <point x="186" y="225"/>
      <point x="61" y="350"/>
      <point x="61" y="503" type="curve" smooth="yes"/>
      <point x="61" y="657"/>
      <point x="186" y="781"/>
      <point x="339" y="781" type="curve" smooth="yes"/>
      <point x="493" y="781"/>
      <point x="617" y="657"/>
      <point x="617" y="503" type="curve" smooth="yes"/>
      <point x="617" y="350"/>
      <point x="493" y="225"/>
    </contour>
    <contour>
      <point x="167" y="362" type="line"/>
      <point x="187" y="363"/>
      <point x="228" y="363"/>
      <point x="263" y="363" type="curve" smooth="yes"/>
      <point x="298" y="363"/>
      <point x="330" y="363"/>
      <point x="354" y="362" type="curve"/>
      <point x="354" y="363" type="line"/>
      <point x="317" y="367"/>
      <point x="311" y="370"/>
      <point x="311" y="400" type="curve" smooth="yes"/>
      <point x="311" y="665" type="line"/>
      <point x="329" y="665" type="line" smooth="yes"/>
      <point x="370" y="665"/>
      <point x="382" y="639"/>
      <point x="382" y="597" type="curve" smooth="yes"/>
      <point x="382" y="545"/>
      <point x="368" y="518"/>
      <point x="325" y="518" type="curve" smooth="yes"/>
      <point x="262" y="518" type="line"/>
      <point x="262" y="517" type="line"/>
      <point x="332" y="517" type="line" smooth="yes"/>
      <point x="447" y="517"/>
      <point x="485" y="553"/>
      <point x="485" y="596" type="curve" smooth="yes"/>
      <point x="485" y="644"/>
      <point x="448" y="666"/>
      <point x="346" y="666" type="curve" smooth="yes"/>
      <point x="330" y="666"/>
      <point x="296" y="665"/>
      <point x="259" y="665" type="curve" smooth="yes"/>
      <point x="235" y="665"/>
      <point x="190" y="665"/>
      <point x="167" y="666" type="curve"/>
      <point x="167" y="665" type="line"/>
      <point x="204" y="661"/>
      <point x="210" y="658"/>
      <point x="210" y="627" type="curve" smooth="yes"/>
      <point x="210" y="400" type="line" smooth="yes"/>
      <point x="210" y="370"/>
      <point x="204" y="367"/>
      <point x="167" y="363" type="curve"/>
    </contour>
    <contour>
      <point x="460" y="357" type="curve" smooth="yes"/>
      <point x="488" y="357"/>
      <point x="507" y="363"/>
      <point x="520" y="374" type="curve"/>
      <point x="520" y="375" type="line"/>
      <point x="515" y="372"/>
      <point x="511" y="371"/>
      <point x="506" y="371" type="curve" smooth="yes"/>
      <point x="498" y="371"/>
      <point x="495" y="377"/>
      <point x="492" y="389" type="curve" smooth="yes"/>
      <point x="479" y="440" type="line" smooth="yes"/>
      <point x="464" y="500"/>
      <point x="436" y="511"/>
      <point x="348" y="518" type="curve"/>
      <point x="333" y="518" type="line"/>
      <point x="333" y="517" type="line"/>
      <point x="356" y="516"/>
      <point x="364" y="508"/>
      <point x="368" y="484" type="curve" smooth="yes"/>
      <point x="379" y="422" type="line" smooth="yes"/>
      <point x="388" y="372"/>
      <point x="416" y="357"/>
    </contour>
  </outline>
</glyph>
<glyph name="degree" format="2">
  <advance width="296"/>
  <unicode hex="00B0"/>
  <outline>
    <contour>
      <point x="148" y="539" type="curve" smooth="yes"/>
      <point x="223" y="539"/>
      <point x="279" y="584"/>
      <point x="279" y="660" type="curve" smooth="yes"/>
      <point x="279" y="736"/>
      <point x="223" y="781"/>
      <point x="148" y="781" type="curve" smooth="yes"/>
      <point x="73" y="781"/>
      <point x="17" y="736"/>
      <point x="17" y="660" type="curve" smooth="yes"/>
      <point x="17" y="584"/>
      <point x="73" y="539"/>
    </contour>
    <contour>
      <point x="148" y="540" type="curve" smooth="yes"/>
      <point x="73" y="540"/>
      <point x="18" y="585"/>
      <point x="18" y="660" type="curve" smooth="yes"/>
      <point x="18" y="735"/>
      <point x="73" y="780"/>
      <point x="148" y="780" type="curve" smooth="yes"/>
      <point x="223" y="780"/>
      <point x="278" y="735"/>
      <point x="278" y="660" type="curve" smooth="yes"/>
      <point x="278" y="585"/>
      <point x="223" y="540"/>
    </contour>
  </outline>
</glyph>
<glyph name="paragraph" format="2">
  <advance width="907"/>
  <unicode hex="00B6"/>
  <outline>
    <contour>
      <point x="452" y="-231" type="line"/>
      <point x="488" y="-229"/>
      <point x="556" y="-228"/>
      <point x="649" y="-228" type="curve" smooth="yes"/>
      <point x="749" y="-228"/>
      <point x="825" y="-229"/>
      <point x="867" y="-231" type="curve"/>
      <point x="867" y="-230" type="line"/>
      <point x="789" y="-225"/>
      <point x="777" y="-214"/>
      <point x="777" y="-144" type="curve" smooth="yes"/>
      <point x="777" y="639" type="line" smooth="yes"/>
      <point x="777" y="687"/>
      <point x="796" y="702"/>
      <point x="862" y="707" type="curve"/>
      <point x="862" y="708" type="line"/>
      <point x="730" y="705"/>
      <point x="602" y="709"/>
      <point x="525" y="709" type="curve" smooth="yes"/>
      <point x="221" y="709"/>
      <point x="50" y="602"/>
      <point x="50" y="412" type="curve" smooth="yes"/>
      <point x="50" y="215"/>
      <point x="235" y="107"/>
      <point x="574" y="107" type="curve"/>
      <point x="574" y="-134" type="line" smooth="yes"/>
      <point x="574" y="-206"/>
      <point x="551" y="-224"/>
      <point x="452" y="-230" type="curve"/>
    </contour>
    <contour>
      <point x="575" y="160" type="line"/>
      <point x="565" y="160"/>
      <point x="567" y="222"/>
      <point x="566" y="397" type="curve"/>
      <point x="384" y="253"/>
      <point x="332" y="214"/>
      <point x="325" y="213" type="curve"/>
      <point x="327" y="221"/>
      <point x="375" y="261"/>
      <point x="565" y="407" type="curve"/>
      <point x="290" y="407"/>
      <point x="186" y="408"/>
      <point x="177" y="411" type="curve"/>
      <point x="187" y="415"/>
      <point x="307" y="416"/>
      <point x="565" y="416" type="curve"/>
      <point x="380" y="559"/>
      <point x="329" y="601"/>
      <point x="325" y="607" type="curve"/>
      <point x="332" y="606"/>
      <point x="387" y="566"/>
      <point x="566" y="426" type="curve"/>
      <point x="565" y="602"/>
      <point x="566" y="656"/>
      <point x="575" y="656" type="curve"/>
    </contour>
  </outline>
</glyph>
<glyph name="ordmasculine" format="2">
  <advance width="570"/>
  <unicode hex="00BA"/>
  <outline>
    <contour>
      <point x="285" y="360" type="curve" smooth="yes"/>
      <point x="402" y="360"/>
      <point x="524" y="422"/>
      <point x="524" y="541" type="curve" smooth="yes"/>
      <point x="524" y="660"/>
      <point x="402" y="722"/>
      <point x="285" y="722" type="curve" smooth="yes"/>
      <point x="168" y="722"/>
      <point x="46" y="660"/>
      <point x="46" y="541" type="curve" smooth="yes"/>
      <point x="46" y="422"/>
      <point x="168" y="360"/>
    </contour>
    <contour>
      <point x="285" y="361" type="curve" smooth="yes"/>
      <point x="243" y="361"/>
      <point x="193" y="414"/>
      <point x="193" y="541" type="curve" smooth="yes"/>
      <point x="193" y="668"/>
      <point x="243" y="721"/>
      <point x="285" y="721" type="curve" smooth="yes"/>
      <point x="326" y="721"/>
      <point x="377" y="669"/>
      <point x="377" y="541" type="curve" smooth="yes"/>
      <point x="377" y="413"/>
      <point x="326" y="361"/>
    </contour>
  </outline>
</glyph>
<glyph name="AE" format="2">
  <advance width="1106"/>
  <unicode hex="00C6"/>
  <anchor x="516" y="0" name="bottom"/>
  <anchor x="549" y="708" name="top"/>
  <anchor x="549" y="688" name="top_low_1"/>
  <anchor x="549" y="668" name="top_low_2"/>
  <anchor x="549" y="648" name="top_low_3"/>
  <outline>
    <contour>
      <point x="-18" y="0" type="line"/>
      <point x="26" y="2"/>
      <point x="45" y="3"/>
      <point x="65" y="3" type="curve" smooth="yes"/>
      <point x="113" y="3"/>
      <point x="150" y="2"/>
      <point x="206" y="0" type="curve"/>
      <point x="206" y="1" type="line"/>
      <point x="86" y="10"/>
      <point x="82" y="108"/>
      <point x="196" y="262" type="curve" smooth="yes"/>
      <point x="574" y="772" type="line"/>
      <point x="573" y="772" type="line"/>
      <point x="117" y="158" type="line" smooth="yes"/>
      <point x="60" y="81"/>
      <point x="21" y="34"/>
      <point x="-18" y="1" type="curve"/>
    </contour>
    <contour>
      <point x="264" y="355" type="line"/>
      <point x="866" y="355" type="line"/>
      <point x="866" y="356" type="line"/>
      <point x="265" y="356" type="line"/>
    </contour>
    <contour>
      <point x="568" y="3" type="curve"/>
      <point x="584" y="3" type="line"/>
      <point x="773" y="3" type="line"/>
      <point x="895" y="3"/>
      <point x="969" y="2"/>
      <point x="1029" y="0" type="curve"/>
      <point x="1026" y="87"/>
      <point x="1032" y="183"/>
      <point x="1042" y="280" type="curve"/>
      <point x="1041" y="280" type="line"/>
      <point x="986" y="118"/>
      <point x="902" y="4"/>
      <point x="755" y="4" type="curve"/>
      <point x="749" y="4" type="line" smooth="yes"/>
      <point x="697" y="4"/>
      <point x="685" y="14"/>
      <point x="685" y="67" type="curve" smooth="yes"/>
      <point x="685" y="704" type="line"/>
      <point x="691" y="704" type="line"/>
      <point x="840" y="704"/>
      <point x="925" y="635"/>
      <point x="982" y="508" type="curve"/>
      <point x="983" y="508" type="line"/>
      <point x="977" y="577"/>
      <point x="974" y="646"/>
      <point x="977" y="708" type="curve"/>
      <point x="912" y="706"/>
      <point x="830" y="705"/>
      <point x="697" y="705" type="curve"/>
      <point x="584" y="705" type="line"/>
      <point x="568" y="705" type="line"/>
      <point x="489" y="705"/>
      <point x="428" y="707"/>
      <point x="392" y="708" type="curve"/>
      <point x="392" y="707" type="line"/>
      <point x="414" y="704" type="line"/>
      <point x="470" y="695"/>
      <point x="482" y="685"/>
      <point x="482" y="621" type="curve"/>
      <point x="482" y="87" type="line"/>
      <point x="482" y="23"/>
      <point x="470" y="13"/>
      <point x="414" y="4" type="curve"/>
      <point x="392" y="1" type="line"/>
      <point x="392" y="0" type="line"/>
      <point x="428" y="1"/>
      <point x="489" y="3"/>
    </contour>
    <contour>
      <point x="899" y="194" type="curve"/>
      <point x="900" y="194" type="line"/>
      <point x="894" y="298"/>
      <point x="893" y="323"/>
      <point x="893" y="356" type="curve" smooth="yes"/>
      <point x="893" y="398"/>
      <point x="890" y="431"/>
      <point x="897" y="518" type="curve"/>
      <point x="896" y="518" type="line"/>
      <point x="879" y="411"/>
      <point x="822" y="356"/>
      <point x="729" y="356" type="curve"/>
      <point x="729" y="355" type="line"/>
      <point x="831" y="355"/>
      <point x="884" y="305"/>
    </contour>
  </outline>
</glyph>
<glyph name="multiply" format="2">
  <advance width="482"/>
  <unicode hex="00D7"/>
  <outline>
    <contour>
      <point x="57" y="81" type="line"/>
      <point x="242" y="266" type="line"/>
      <point x="425" y="83" type="line"/>
      <point x="426" y="84" type="line"/>
      <point x="243" y="267" type="line"/>
      <point x="426" y="449" type="line"/>
      <point x="425" y="450" type="line"/>
      <point x="242" y="268" type="line"/>
      <point x="56" y="453" type="line"/>
      <point x="55" y="452" type="line"/>
      <point x="241" y="267" type="line"/>
      <point x="56" y="82" type="line"/>
    </contour>
  </outline>
</glyph>
<glyph name="germandbls" format="2">
  <advance width="820"/>
  <unicode hex="00DF"/>
  <outline>
    <contour>
      <point x="521" y="-14" type="curve" smooth="yes"/>
      <point x="680" y="-14"/>
      <point x="787" y="69"/>
      <point x="787" y="192" type="curve" smooth="yes"/>
      <point x="787" y="327"/>
      <point x="664" y="414"/>
      <point x="451" y="429" type="curve"/>
      <point x="604" y="455"/>
      <point x="687" y="521"/>
      <point x="687" y="617" type="curve" smooth="yes"/>
      <point x="687" y="721"/>
      <point x="589" y="782"/>
      <point x="423" y="782" type="curve" smooth="yes"/>
      <point x="208" y="782"/>
      <point x="103" y="680"/>
      <point x="103" y="472" type="curve" smooth="yes"/>
      <point x="103" y="83" type="line"/>
      <point x="103" y="27"/>
      <point x="87" y="6"/>
      <point x="39" y="2" type="curve"/>
      <point x="28" y="1" type="line"/>
      <point x="28" y="0" type="line"/>
      <point x="72" y="3"/>
      <point x="94" y="3"/>
      <point x="129" y="3" type="curve"/>
      <point x="187" y="3"/>
      <point x="232" y="-1"/>
      <point x="283" y="-11" type="curve"/>
      <point x="283" y="0" type="line"/>
      <point x="283" y="573" type="line" smooth="yes"/>
      <point x="283" y="708"/>
      <point x="324" y="780"/>
      <point x="402" y="780" type="curve" smooth="yes"/>
      <point x="474" y="780"/>
      <point x="517" y="719"/>
      <point x="517" y="617" type="curve" smooth="yes"/>
      <point x="517" y="540"/>
      <point x="493" y="473"/>
      <point x="450" y="430" type="curve"/>
      <point x="433" y="436"/>
      <point x="421" y="438"/>
      <point x="410" y="438" type="curve" smooth="yes"/>
      <point x="397" y="438"/>
      <point x="389" y="434"/>
      <point x="389" y="427" type="curve" smooth="yes"/>
      <point x="389" y="420"/>
      <point x="395" y="416"/>
      <point x="407" y="416" type="curve" smooth="yes"/>
      <point x="418" y="416"/>
      <point x="432" y="420"/>
      <point x="450" y="428" type="curve"/>
      <point x="539" y="393"/>
      <point x="600" y="293"/>
      <point x="600" y="183" type="curve" smooth="yes"/>
      <point x="600" y="75"/>
      <point x="542" y="-8"/>
      <point x="465" y="-8" type="curve" smooth="yes"/>
      <point x="441" y="-8"/>
      <point x="427" y="2"/>
      <point x="427" y="20" type="curve" smooth="yes"/>
      <point x="427" y="64"/>
      <point x="508" y="82"/>
      <point x="508" y="145" type="curve" smooth="yes"/>
      <point x="508" y="182"/>
      <point x="480" y="207"/>
      <point x="440" y="207" type="curve" smooth="yes"/>
      <point x="384" y="207"/>
      <point x="345" y="166"/>
      <point x="345" y="107" type="curve" smooth="yes"/>
      <point x="345" y="28"/>
      <point x="407" y="-14"/>
    </contour>
  </outline>
</glyph>
<glyph name="ae" format="2">
  <advance width="903"/>
  <unicode hex="00E6"/>
  <anchor x="474" y="0" name="bottom"/>
  <anchor x="716" y="0" name="ogonek"/>
  <anchor x="468" y="520" name="top"/>
  <outline>
    <contour>
      <point x="626" y="-14" type="curve" smooth="yes"/>
      <point x="748" y="-14"/>
      <point x="834" y="43"/>
      <point x="868" y="156" type="curve"/>
      <point x="867" y="156" type="line"/>
      <point x="835" y="78"/>
      <point x="790" y="46"/>
      <point x="721" y="46" type="curve" smooth="yes"/>
      <point x="614" y="46"/>
      <point x="560" y="134"/>
      <point x="560" y="273" type="curve" smooth="yes"/>
      <point x="560" y="288"/>
      <point x="560" y="303"/>
      <point x="561" y="317" type="curve"/>
      <point x="561" y="318" type="line"/>
      <point x="572" y="480"/>
      <point x="607" y="532"/>
      <point x="647" y="532" type="curve" smooth="yes"/>
      <point x="685" y="532"/>
      <point x="704" y="433"/>
      <point x="703" y="318" type="curve"/>
      <point x="505" y="318" type="line"/>
      <point x="507" y="317" type="line"/>
      <point x="859" y="317" type="line"/>
      <point x="856" y="472"/>
      <point x="770" y="533"/>
      <point x="651" y="533" type="curve" smooth="yes"/>
      <point x="502" y="533"/>
      <point x="380" y="451"/>
      <point x="380" y="258" type="curve" smooth="yes"/>
      <point x="380" y="88"/>
      <point x="479" y="-14"/>
    </contour>
    <contour>
      <point x="306" y="36" type="curve" smooth="yes"/>
      <point x="255" y="36"/>
      <point x="224" y="70"/>
      <point x="224" y="129" type="curve" smooth="yes"/>
      <point x="224" y="243"/>
      <point x="373" y="265"/>
      <point x="380" y="327" type="curve"/>
      <point x="380" y="258" type="line"/>
      <point x="421" y="110" type="line"/>
      <point x="390" y="59"/>
      <point x="353" y="36"/>
    </contour>
    <contour>
      <point x="202" y="-14" type="curve" smooth="yes"/>
      <point x="292" y="-14"/>
      <point x="373" y="27"/>
      <point x="422" y="109" type="curve"/>
      <point x="530" y="293" type="line"/>
      <point x="530" y="442"/>
      <point x="477" y="533"/>
      <point x="328" y="533" type="curve" smooth="yes"/>
      <point x="179" y="533"/>
      <point x="82" y="481"/>
      <point x="82" y="400" type="curve" smooth="yes"/>
      <point x="82" y="353"/>
      <point x="116" y="322"/>
      <point x="169" y="322" type="curve" smooth="yes"/>
      <point x="216" y="322"/>
      <point x="250" y="347"/>
      <point x="250" y="382" type="curve" smooth="yes"/>
      <point x="250" y="432"/>
      <point x="183" y="457"/>
      <point x="183" y="489" type="curve" smooth="yes"/>
      <point x="183" y="510"/>
      <point x="218" y="526"/>
      <point x="266" y="526" type="curve" smooth="yes"/>
      <point x="339" y="526"/>
      <point x="380" y="473"/>
      <point x="380" y="376" type="curve" smooth="yes"/>
      <point x="380" y="335" type="line" smooth="yes"/>
      <point x="380" y="224"/>
      <point x="50" y="299"/>
      <point x="50" y="107" type="curve" smooth="yes"/>
      <point x="50" y="33"/>
      <point x="113" y="-14"/>
    </contour>
  </outline>
</glyph>
<glyph name="eth" format="2">
  <advance width="696"/>
  <unicode hex="00F0"/>
  <outline>
    <contour>
      <point x="342" y="-14" type="curve" smooth="yes"/>
      <point x="539" y="-14"/>
      <point x="649" y="94"/>
      <point x="649" y="289" type="curve" smooth="yes"/>
      <point x="649" y="528"/>
      <point x="486" y="697"/>
      <point x="173" y="782" type="curve"/>
      <point x="173" y="781" type="line"/>
      <point x="382" y="708"/>
      <point x="462" y="571"/>
      <point x="462" y="284" type="curve" smooth="yes"/>
      <point x="462" y="88"/>
      <point x="426" y="-12"/>
      <point x="355" y="-12" type="curve" smooth="yes"/>
      <point x="284" y="-12"/>
      <point x="241" y="90"/>
      <point x="241" y="260" type="curve" smooth="yes"/>
      <point x="241" y="432"/>
      <point x="285" y="515"/>
      <point x="377" y="515" type="curve" smooth="yes"/>
      <point x="410" y="515"/>
      <point x="438" y="504"/>
      <point x="458" y="483" type="curve"/>
      <point x="459" y="483" type="line"/>
      <point x="435" y="513"/>
      <point x="375" y="533"/>
      <point x="309" y="533" type="curve" smooth="yes"/>
      <point x="153" y="533"/>
      <point x="54" y="426"/>
      <point x="54" y="256" type="curve" smooth="yes"/>
      <point x="54" y="82"/>
      <point x="156" y="-14"/>
    </contour>
    <contour>
      <point x="136" y="612" type="line"/>
      <point x="355" y="694" type="line"/>
      <point x="354" y="695" type="line"/>
      <point x="135" y="613" type="line"/>
    </contour>
    <contour>
      <point x="363" y="698" type="line"/>
      <point x="555" y="770" type="line"/>
      <point x="554" y="771" type="line"/>
      <point x="362" y="699" type="line"/>
    </contour>
  </outline>
</glyph>
<glyph name="Aogonek" format="2">
  <advance width="872"/>
  <unicode hex="0104"/>
  <anchor x="431" y="354" name="center"/>
  <anchor x="433" y="708" name="top"/>
  <anchor x="433" y="688" name="top_low_1"/>
  <anchor x="433" y="668" name="top_low_2"/>
  <anchor x="433" y="648" name="top_low_3"/>
  <outline>
    <contour>
      <point x="181" y="237" type="curve"/>
      <point x="340" y="546" type="line"/>
      <point x="320" y="509" type="line"/>
      <point x="564" y="63" type="line"/>
      <point x="599" y="-2"/>
      <point x="604" y="-24"/>
      <point x="521" y="-83" type="curve"/>
      <point x="461" y="-127"/>
      <point x="437" y="-149"/>
      <point x="437" y="-179" type="curve"/>
      <point x="437" y="-216"/>
      <point x="477" y="-240"/>
      <point x="539" y="-240" type="curve"/>
      <point x="607" y="-240"/>
      <point x="663" y="-218"/>
      <point x="710" y="-171" type="curve"/>
      <point x="709" y="-170" type="line"/>
      <point x="688" y="-184"/>
      <point x="656" y="-194"/>
      <point x="627" y="-194" type="curve"/>
      <point x="582" y="-194"/>
      <point x="553" y="-170"/>
      <point x="552" y="-133" type="curve"/>
      <point x="552" y="-40"/>
      <point x="674" y="11"/>
      <point x="883" y="0" type="curve"/>
      <point x="883" y="1" type="line"/>
      <point x="834" y="9"/>
      <point x="812" y="27"/>
      <point x="783" y="81" type="curve"/>
      <point x="431" y="723" type="line"/>
      <point x="430" y="723" type="line"/>
      <point x="179" y="237" type="line"/>
      <point x="93" y="71"/>
      <point x="58" y="27"/>
      <point x="-8" y="8" type="curve"/>
      <point x="-32" y="1" type="line"/>
      <point x="-32" y="0" type="line"/>
      <point x="18" y="2"/>
      <point x="45" y="3"/>
      <point x="90" y="3" type="curve"/>
      <point x="137" y="3"/>
      <point x="167" y="2"/>
      <point x="242" y="0" type="curve"/>
      <point x="242" y="1" type="line"/>
      <point x="234" y="2" type="line"/>
      <point x="127" y="13"/>
      <point x="108" y="95"/>
    </contour>
    <contour>
      <point x="172" y="222" type="line"/>
      <point x="538" y="222" type="line"/>
      <point x="537" y="223" type="line"/>
      <point x="173" y="223" type="line"/>
    </contour>
  </outline>
</glyph>
<glyph name="idotless" format="2">
  <advance width="381"/>
  <unicode hex="0131"/>
  <anchor x="103" y="260" name="#entry"/>
  <anchor x="283" y="260" name="#exit"/>
  <anchor x="-137" y="0" name="%entry"/>
  <anchor x="103" y="0" name="%exit"/>
  <anchor x="0" y="0" name="^entry"/>
  <anchor x="374" y="0" name="^exit"/>
  <anchor x="198" y="0" name="bottom"/>
  <anchor x="192" y="259" name="center"/>
  <anchor x="310" y="0" name="ogonek"/>
  <anchor x="103" y="260" name="stem"/>
  <anchor x="193" y="520" name="top"/>
  <anchor x="193" y="500" name="top_low_1"/>
  <anchor x="193" y="480" name="top_low_2"/>
  <anchor x="193" y="460" name="top_low_3"/>
  <anchor x="283" y="519" name="topright"/>
  <outline>
    <contour>
      <point x="103" y="260" type="line"/>
      <point x="283" y="260" type="line"/>
      <point x="283" y="519" type="line"/>
      <point x="283" y="530" type="line"/>
      <point x="232" y="520"/>
      <point x="187" y="516"/>
      <point x="129" y="516" type="curve"/>
      <point x="94" y="516"/>
      <point x="72" y="516"/>
      <point x="28" y="519" type="curve"/>
      <point x="28" y="518" type="line"/>
      <point x="39" y="517" type="line"/>
      <point x="87" y="513"/>
      <point x="103" y="492"/>
      <point x="103" y="436" type="curve"/>
    </contour>
    <contour>
      <point x="193" y="3" type="curve"/>
      <point x="193" y="3" type="line"/>
      <point x="193" y="3" type="line"/>
      <point x="253" y="3"/>
      <point x="288" y="3"/>
      <point x="358" y="0" type="curve"/>
      <point x="358" y="1" type="line"/>
      <point x="347" y="2" type="line"/>
      <point x="299" y="6"/>
      <point x="283" y="24"/>
      <point x="283" y="73" type="curve"/>
      <point x="283" y="260" type="line"/>
      <point x="103" y="260" type="line"/>
      <point x="103" y="73" type="line"/>
      <point x="103" y="24"/>
      <point x="87" y="6"/>
      <point x="39" y="2" type="curve"/>
      <point x="28" y="1" type="line"/>
      <point x="28" y="0" type="line"/>
      <point x="98" y="3"/>
      <point x="133" y="3"/>
    </contour>
  </outline>
</glyph>
<glyph name="kgreenlandic" format="2">
  <advance width="720"/>
  <unicode hex="0138"/>
  <anchor x="103" y="260" name="#entry"/>
  <anchor x="283" y="260" name="#exit"/>
  <anchor x="103" y="0" name="^exit"/>
  <anchor x="103" y="260" name="stem"/>
  <anchor x="283" y="519" name="topright"/>
  <outline>
    <contour>
      <point x="103" y="260" type="line"/>
      <point x="283" y="260" type="line"/>
      <point x="283" y="519" type="line"/>
      <point x="283" y="530" type="line"/>
      <point x="232" y="520"/>
      <point x="187" y="516"/>
      <point x="129" y="516" type="curve"/>
      <point x="94" y="516"/>
      <point x="72" y="516"/>
      <point x="28" y="519" type="curve"/>
      <point x="28" y="518" type="line"/>
      <point x="39" y="517" type="line"/>
      <point x="87" y="513"/>
      <point x="103" y="492"/>
      <point x="103" y="436" type="curve"/>
    </contour>
    <component base="_LC-baseline-normal-narrow"/>
    <component base="_LC-k-legs" xOffset="244"/>
  </outline>
</glyph>
<glyph name="OE" format="2">
  <advance width="1243"/>
  <unicode hex="0152"/>
  <anchor x="616" y="0" name="bottom"/>
  <anchor x="608" y="708" name="top"/>
  <anchor x="608" y="688" name="top_low_1"/>
  <anchor x="608" y="668" name="top_low_2"/>
  <anchor x="608" y="648" name="top_low_3"/>
  <outline>
    <contour>
      <point x="465" y="-14" type="curve" smooth="yes"/>
      <point x="547" y="-14"/>
      <point x="552" y="3"/>
      <point x="720" y="3" type="curve" smooth="yes"/>
      <point x="741" y="3"/>
      <point x="801" y="3"/>
      <point x="853" y="3" type="curve" smooth="yes"/>
      <point x="911" y="3" type="line"/>
      <point x="1033" y="3"/>
      <point x="1107" y="2"/>
      <point x="1166" y="0" type="curve"/>
      <point x="1163" y="87"/>
      <point x="1169" y="183"/>
      <point x="1179" y="280" type="curve"/>
      <point x="1178" y="280" type="line"/>
      <point x="1128" y="115"/>
      <point x="1043" y="4"/>
      <point x="902" y="4" type="curve"/>
      <point x="896" y="4" type="line" smooth="yes"/>
      <point x="834" y="4"/>
      <point x="822" y="14"/>
      <point x="822" y="67" type="curve" smooth="yes"/>
      <point x="822" y="704" type="line"/>
      <point x="900" y="704" type="line"/>
      <point x="1027" y="704"/>
      <point x="1105" y="641"/>
      <point x="1149" y="508" type="curve"/>
      <point x="1150" y="508" type="line"/>
      <point x="1144" y="577"/>
      <point x="1141" y="646"/>
      <point x="1144" y="708" type="curve"/>
      <point x="1086" y="706"/>
      <point x="1013" y="705"/>
      <point x="894" y="705" type="curve"/>
      <point x="715" y="705" type="line" smooth="yes"/>
      <point x="578" y="705"/>
      <point x="546" y="722"/>
      <point x="465" y="722" type="curve" smooth="yes"/>
      <point x="222" y="722"/>
      <point x="50" y="566"/>
      <point x="50" y="345" type="curve" smooth="yes"/>
      <point x="50" y="129"/>
      <point x="215" y="-14"/>
    </contour>
    <contour>
      <point x="488" y="-11" type="curve" smooth="yes"/>
      <point x="351" y="-11"/>
      <point x="260" y="137"/>
      <point x="260" y="360" type="curve" smooth="yes"/>
      <point x="260" y="580"/>
      <point x="347" y="720"/>
      <point x="484" y="720" type="curve" smooth="yes"/>
      <point x="577" y="720"/>
      <point x="619" y="679"/>
      <point x="619" y="588" type="curve" smooth="yes"/>
      <point x="619" y="110" type="line" smooth="yes"/>
      <point x="619" y="26"/>
      <point x="579" y="-11"/>
    </contour>
    <contour>
      <point x="787" y="355" type="line"/>
      <point x="996" y="355" type="line"/>
      <point x="996" y="356" type="line"/>
      <point x="787" y="356" type="line"/>
    </contour>
    <contour>
      <point x="1036" y="194" type="curve"/>
      <point x="1037" y="194" type="line"/>
      <point x="1031" y="298"/>
      <point x="1030" y="323"/>
      <point x="1030" y="356" type="curve" smooth="yes"/>
      <point x="1030" y="398"/>
      <point x="1027" y="431"/>
      <point x="1034" y="518" type="curve"/>
      <point x="1033" y="518" type="line"/>
      <point x="1016" y="411"/>
      <point x="959" y="356"/>
      <point x="866" y="356" type="curve"/>
      <point x="866" y="355" type="line"/>
      <point x="968" y="355"/>
      <point x="1021" y="305"/>
    </contour>
  </outline>
</glyph>
<glyph name="oe" format="2">
  <advance width="1010"/>
  <unicode hex="0153"/>
  <anchor x="519" y="0" name="bottom"/>
  <anchor x="523" y="520" name="top"/>
  <outline>
    <contour>
      <point x="335" y="-14" type="curve" smooth="yes"/>
      <point x="502" y="-14"/>
      <point x="602" y="88"/>
      <point x="602" y="259" type="curve" smooth="yes"/>
      <point x="602" y="430"/>
      <point x="502" y="533"/>
      <point x="335" y="533" type="curve" smooth="yes"/>
      <point x="163" y="533"/>
      <point x="54" y="427"/>
      <point x="54" y="259" type="curve" smooth="yes"/>
      <point x="54" y="91"/>
      <point x="163" y="-14"/>
    </contour>
    <contour>
      <point x="339" y="-13" type="curve" smooth="yes"/>
      <point x="280" y="-13"/>
      <point x="241" y="95"/>
      <point x="241" y="258" type="curve" smooth="yes"/>
      <point x="241" y="422"/>
      <point x="280" y="532"/>
      <point x="339" y="532" type="curve" smooth="yes"/>
      <point x="397" y="532"/>
      <point x="435" y="423"/>
      <point x="435" y="257" type="curve" smooth="yes"/>
      <point x="435" y="93"/>
      <point x="397" y="-13"/>
    </contour>
    <contour>
      <point x="720" y="-14" type="curve" smooth="yes"/>
      <point x="847" y="-14"/>
      <point x="941" y="49"/>
      <point x="975" y="156" type="curve"/>
      <point x="974" y="156" type="line"/>
      <point x="939" y="80"/>
      <point x="888" y="46"/>
      <point x="809" y="46" type="curve" smooth="yes"/>
      <point x="688" y="46"/>
      <point x="627" y="127"/>
      <point x="627" y="288" type="curve" smooth="yes"/>
      <point x="627" y="309"/>
      <point x="627" y="315"/>
      <point x="628" y="317" type="curve"/>
      <point x="628" y="318" type="line"/>
      <point x="638" y="452"/>
      <point x="676" y="532"/>
      <point x="730" y="532" type="curve" smooth="yes"/>
      <point x="782" y="532"/>
      <point x="810" y="457"/>
      <point x="810" y="318" type="curve"/>
      <point x="572" y="318" type="line"/>
      <point x="574" y="317" type="line"/>
      <point x="966" y="317" type="line"/>
      <point x="963" y="457"/>
      <point x="883" y="533"/>
      <point x="738" y="533" type="curve" smooth="yes"/>
      <point x="564" y="533"/>
      <point x="460" y="430"/>
      <point x="460" y="258" type="curve" smooth="yes"/>
      <point x="460" y="89"/>
      <point x="558" y="-14"/>
    </contour>
  </outline>
</glyph>
<glyph name="bstroke" format="2">
  <advance width="733"/>
  <unicode hex="0180"/>
  <anchor x="278" y="260" name="#entry"/>
  <anchor x="278" y="260" name="#exit"/>
  <anchor x="385" y="261" name="center"/>
  <anchor x="327" y="520" name="top"/>
  <anchor x="98" y="520" name="top-left"/>
  <outline>
    <contour>
      <point x="443" y="534" type="curve" smooth="yes"/>
      <point x="367" y="534"/>
      <point x="306" y="508"/>
      <point x="263" y="433" type="curve"/>
      <point x="264" y="432" type="line"/>
      <point x="297" y="488"/>
      <point x="334" y="503"/>
      <point x="369" y="503" type="curve" smooth="yes"/>
      <point x="449" y="503"/>
      <point x="492" y="418"/>
      <point x="492" y="258" type="curve" smooth="yes"/>
      <point x="492" y="90"/>
      <point x="445" y="5"/>
      <point x="353" y="5" type="curve" smooth="yes"/>
      <point x="319" y="5"/>
      <point x="292" y="19"/>
      <point x="275" y="37" type="curve"/>
      <point x="274" y="37" type="line"/>
      <point x="293" y="12"/>
      <point x="352" y="-13"/>
      <point x="419" y="-13" type="curve" smooth="yes"/>
      <point x="580" y="-13"/>
      <point x="679" y="94"/>
      <point x="679" y="267" type="curve" smooth="yes"/>
      <point x="679" y="432"/>
      <point x="589" y="534"/>
    </contour>
    <component base="_LC-baseline-left-instroke"/>
    <component base="_LC-ascender-serifless" xOffset="-5"/>
    <component base="strokeshortcomb" xOffset="-45" yOffset="368"/>
  </outline>
</glyph>
<glyph name="Bhook" format="2">
  <advance width="1026"/>
  <unicode hex="0181"/>
  <anchor x="616" y="0" name="bottom"/>
  <anchor x="627" y="0" name="currency"/>
  <anchor x="616" y="708" name="top"/>
  <outline>
    <contour>
      <point x="421" y="3" type="curve"/>
      <point x="427" y="3" type="line"/>
      <point x="490" y="3"/>
      <point x="539" y="0"/>
      <point x="650" y="0" type="curve" smooth="yes"/>
      <point x="880" y="0"/>
      <point x="993" y="60"/>
      <point x="993" y="182" type="curve" smooth="yes"/>
      <point x="993" y="304"/>
      <point x="878" y="367"/>
      <point x="654" y="367" type="curve"/>
      <point x="654" y="368" type="line"/>
      <point x="837" y="378"/>
      <point x="930" y="437"/>
      <point x="930" y="543" type="curve" smooth="yes"/>
      <point x="930" y="654"/>
      <point x="835" y="708"/>
      <point x="639" y="708" type="curve" smooth="yes"/>
      <point x="613" y="708"/>
      <point x="512" y="705"/>
      <point x="435" y="705" type="curve"/>
      <point x="442" y="705" type="line"/>
      <point x="381" y="705"/>
      <point x="306" y="708"/>
      <point x="253" y="708" type="curve"/>
      <point x="132" y="708"/>
      <point x="25" y="632"/>
      <point x="25" y="532" type="curve"/>
      <point x="25" y="458"/>
      <point x="62" y="415"/>
      <point x="126" y="415" type="curve"/>
      <point x="178" y="415"/>
      <point x="211" y="443"/>
      <point x="211" y="488" type="curve"/>
      <point x="211" y="579"/>
      <point x="108" y="596"/>
      <point x="108" y="641" type="curve"/>
      <point x="108" y="672"/>
      <point x="171" y="707"/>
      <point x="253" y="707" type="curve"/>
      <point x="322" y="707"/>
      <point x="335" y="690"/>
      <point x="335" y="621" type="curve"/>
      <point x="335" y="87" type="line"/>
      <point x="335" y="24"/>
      <point x="323" y="13"/>
      <point x="266" y="6" type="curve"/>
      <point x="227" y="1" type="line"/>
      <point x="227" y="0" type="line"/>
      <point x="266" y="1"/>
      <point x="334" y="3"/>
    </contour>
    <contour>
      <point x="607" y="2" type="curve" smooth="yes"/>
      <point x="551" y="2"/>
      <point x="538" y="18"/>
      <point x="538" y="87" type="curve" smooth="yes"/>
      <point x="538" y="705" type="line"/>
      <point x="621" y="705" type="line" smooth="yes"/>
      <point x="696" y="705"/>
      <point x="744" y="640"/>
      <point x="744" y="537" type="curve" smooth="yes"/>
      <point x="744" y="437"/>
      <point x="699" y="368"/>
      <point x="635" y="368" type="curve" smooth="yes"/>
      <point x="483" y="368" type="line"/>
      <point x="483" y="367" type="line"/>
      <point x="627" y="367" type="line" smooth="yes"/>
      <point x="725" y="367"/>
      <point x="783" y="300"/>
      <point x="783" y="186" type="curve" smooth="yes"/>
      <point x="783" y="68"/>
      <point x="720" y="2"/>
    </contour>
  </outline>
</glyph>
<glyph name="Chook" format="2">
  <advance width="851"/>
  <unicode hex="0187"/>
  <anchor x="494" y="0" name="bottom"/>
  <anchor x="494" y="0" name="currency"/>
  <anchor x="260" y="354" name="middlestroke"/>
  <anchor x="455" y="708" name="top"/>
  <outline>
    <contour>
      <point x="483" y="-14" type="curve" smooth="yes"/>
      <point x="639" y="-14"/>
      <point x="663" y="39"/>
      <point x="726" y="39" type="curve" smooth="yes"/>
      <point x="759" y="39"/>
      <point x="773" y="26"/>
      <point x="782" y="-14" type="curve"/>
      <point x="783" y="-14" type="line"/>
      <point x="780" y="37"/>
      <point x="779" y="94"/>
      <point x="779" y="260" type="curve"/>
      <point x="778" y="260" type="line"/>
      <point x="762" y="85"/>
      <point x="672" y="-6"/>
      <point x="539" y="-6" type="curve" smooth="yes"/>
      <point x="361" y="-6"/>
      <point x="260" y="124"/>
      <point x="260" y="355" type="curve" smooth="yes"/>
      <point x="260" y="584"/>
      <point x="359" y="711"/>
      <point x="535" y="711" type="curve" smooth="yes"/>
      <point x="667" y="711"/>
      <point x="760" y="621"/>
      <point x="777" y="448" type="curve"/>
      <point x="778" y="448" type="line"/>
      <point x="777" y="521"/>
      <point x="773" y="595"/>
      <point x="743" y="668" type="curve"/>
      <point x="658" y="668"/>
      <point x="622" y="722"/>
      <point x="473" y="722" type="curve" smooth="yes"/>
      <point x="223" y="722"/>
      <point x="50" y="575"/>
      <point x="50" y="349" type="curve" smooth="yes"/>
      <point x="50" y="125"/>
      <point x="221" y="-14"/>
    </contour>
    <contour>
      <point x="777" y="448" type="curve"/>
      <point x="778" y="448" type="line"/>
      <point x="778" y="743"/>
      <point x="668" y="716"/>
      <point x="668" y="824" type="curve" smooth="yes"/>
      <point x="668" y="856"/>
      <point x="680" y="869"/>
      <point x="700" y="869" type="curve" smooth="yes"/>
      <point x="733" y="869"/>
      <point x="769" y="821"/>
      <point x="823" y="821" type="curve" smooth="yes"/>
      <point x="863" y="821"/>
      <point x="894" y="848"/>
      <point x="894" y="890" type="curve" smooth="yes"/>
      <point x="894" y="940"/>
      <point x="859" y="967"/>
      <point x="803" y="967" type="curve" smooth="yes"/>
      <point x="724" y="967"/>
      <point x="667" y="908"/>
      <point x="667" y="824" type="curve" smooth="yes"/>
      <point x="667" y="715"/>
      <point x="777" y="741"/>
    </contour>
  </outline>
</glyph>
<glyph name="Dhook" format="2">
  <advance width="1152"/>
  <unicode hex="018A"/>
  <anchor x="656" y="0" name="bottom"/>
  <anchor x="445" y="356" name="center"/>
  <anchor x="685" y="708" name="top"/>
  <outline>
    <contour>
      <point x="557" y="0" type="curve"/>
      <point x="615" y="0" type="line" smooth="yes"/>
      <point x="914" y="0"/>
      <point x="1102" y="143"/>
      <point x="1102" y="371" type="curve" smooth="yes"/>
      <point x="1102" y="594"/>
      <point x="927" y="708"/>
      <point x="586" y="708" type="curve" smooth="yes"/>
      <point x="561" y="708"/>
      <point x="490" y="705"/>
      <point x="432" y="705" type="curve"/>
      <point x="442" y="705" type="line"/>
      <point x="381" y="705"/>
      <point x="306" y="708"/>
      <point x="253" y="708" type="curve"/>
      <point x="132" y="708"/>
      <point x="25" y="632"/>
      <point x="25" y="532" type="curve"/>
      <point x="25" y="458"/>
      <point x="62" y="415"/>
      <point x="126" y="415" type="curve"/>
      <point x="178" y="415"/>
      <point x="211" y="443"/>
      <point x="211" y="488" type="curve"/>
      <point x="211" y="579"/>
      <point x="108" y="596"/>
      <point x="108" y="641" type="curve"/>
      <point x="108" y="672"/>
      <point x="171" y="707"/>
      <point x="253" y="707" type="curve"/>
      <point x="322" y="707"/>
      <point x="335" y="690"/>
      <point x="335" y="621" type="curve"/>
      <point x="335" y="87" type="line"/>
      <point x="335" y="24"/>
      <point x="320" y="10"/>
      <point x="256" y="4" type="curve"/>
      <point x="218" y="1" type="line"/>
      <point x="218" y="0" type="line"/>
      <point x="269" y="1"/>
      <point x="348" y="3"/>
      <point x="441" y="3" type="curve"/>
      <point x="488" y="3"/>
      <point x="525" y="0"/>
    </contour>
    <contour>
      <point x="621" y="2" type="curve" smooth="yes"/>
      <point x="550" y="2"/>
      <point x="538" y="14"/>
      <point x="538" y="85" type="curve" smooth="yes"/>
      <point x="538" y="706" type="line"/>
      <point x="615" y="706" type="line" smooth="yes"/>
      <point x="803" y="706"/>
      <point x="892" y="588"/>
      <point x="892" y="353" type="curve" smooth="yes"/>
      <point x="892" y="118"/>
      <point x="803" y="2"/>
    </contour>
  </outline>
</glyph>
<glyph name="Schwa" format="2">
  <advance width="952"/>
  <unicode hex="018F"/>
  <anchor x="498" y="0" name="bottom"/>
  <anchor x="498" y="708" name="top"/>
  <anchor x="498" y="688" name="top_low_1"/>
  <anchor x="498" y="668" name="top_low_2"/>
  <anchor x="498" y="648" name="top_low_3"/>
  <outline>
    <contour>
      <point x="466" y="-14" type="curve" smooth="yes"/>
      <point x="734" y="-14"/>
      <point x="902" y="129"/>
      <point x="902" y="355" type="curve" smooth="yes"/>
      <point x="902" y="581"/>
      <point x="740" y="722"/>
      <point x="474" y="722" type="curve" smooth="yes"/>
      <point x="294" y="722"/>
      <point x="160" y="654"/>
      <point x="94" y="533" type="curve"/>
      <point x="95" y="533" type="line"/>
      <point x="153" y="637"/>
      <point x="253" y="689"/>
      <point x="370" y="689" type="curve" smooth="yes"/>
      <point x="575" y="689"/>
      <point x="696" y="557"/>
      <point x="696" y="311" type="curve" smooth="yes"/>
      <point x="696" y="112"/>
      <point x="610" y="-12"/>
      <point x="477" y="-12" type="curve" smooth="yes"/>
      <point x="330" y="-12"/>
      <point x="234" y="140"/>
      <point x="257" y="327" type="curve"/>
      <point x="753" y="327" type="line"/>
      <point x="751" y="328" type="line"/>
      <point x="50" y="328" type="line"/>
      <point x="48" y="120"/>
      <point x="208" y="-14"/>
    </contour>
  </outline>
</glyph>
<glyph name="Eopen" format="2">
  <advance width="740"/>
  <unicode hex="0190"/>
  <anchor x="366" y="0" name="bottom"/>
  <anchor x="366" y="708" name="top"/>
  <outline>
    <contour>
      <point x="337" y="-14" type="curve" smooth="yes"/>
      <point x="508" y="-14"/>
      <point x="568" y="28"/>
      <point x="626" y="28" type="curve" smooth="yes"/>
      <point x="650" y="28"/>
      <point x="663" y="16"/>
      <point x="671" y="-14" type="curve"/>
      <point x="672" y="-14" type="line"/>
      <point x="669" y="37"/>
      <point x="668" y="103"/>
      <point x="668" y="250" type="curve"/>
      <point x="667" y="250" type="line"/>
      <point x="659" y="89"/>
      <point x="577" y="-3"/>
      <point x="445" y="-3" type="curve" smooth="yes"/>
      <point x="324" y="-3"/>
      <point x="243" y="70"/>
      <point x="243" y="179" type="curve" smooth="yes"/>
      <point x="243" y="263"/>
      <point x="289" y="331"/>
      <point x="359" y="353" type="curve"/>
      <point x="385" y="348"/>
      <point x="405" y="344"/>
      <point x="417" y="344" type="curve" smooth="yes"/>
      <point x="431" y="344"/>
      <point x="438" y="347"/>
      <point x="438" y="352" type="curve" smooth="yes"/>
      <point x="438" y="357"/>
      <point x="429" y="360"/>
      <point x="413" y="360" type="curve" smooth="yes"/>
      <point x="401" y="360"/>
      <point x="385" y="358"/>
      <point x="359" y="355" type="curve"/>
      <point x="289" y="377"/>
      <point x="243" y="445"/>
      <point x="243" y="529" type="curve" smooth="yes"/>
      <point x="243" y="639"/>
      <point x="324" y="712"/>
      <point x="445" y="712" type="curve" smooth="yes"/>
      <point x="577" y="712"/>
      <point x="659" y="619"/>
      <point x="667" y="458" type="curve"/>
      <point x="668" y="458" type="line"/>
      <point x="668" y="605"/>
      <point x="669" y="671"/>
      <point x="672" y="722" type="curve"/>
      <point x="671" y="722" type="line"/>
      <point x="663" y="692"/>
      <point x="650" y="680"/>
      <point x="626" y="680" type="curve" smooth="yes"/>
      <point x="570" y="680"/>
      <point x="511" y="722"/>
      <point x="345" y="722" type="curve" smooth="yes"/>
      <point x="125" y="722"/>
      <point x="51" y="638"/>
      <point x="51" y="541" type="curve" smooth="yes"/>
      <point x="51" y="419"/>
      <point x="187" y="359"/>
      <point x="355" y="355" type="curve"/>
      <point x="355" y="354" type="line"/>
      <point x="153" y="350"/>
      <point x="33" y="289"/>
      <point x="33" y="167" type="curve" smooth="yes"/>
      <point x="33" y="70"/>
      <point x="109" y="-14"/>
    </contour>
  </outline>
</glyph>
<glyph name="Ghook" format="2">
  <advance width="924"/>
  <unicode hex="0193"/>
  <anchor x="490" y="0" name="bottom"/>
  <anchor x="494" y="0" name="currency"/>
  <anchor x="471" y="708" name="top"/>
  <outline>
    <contour>
      <point x="469" y="-14" type="curve" smooth="yes"/>
      <point x="618" y="-14"/>
      <point x="695" y="40"/>
      <point x="765" y="40" type="curve" smooth="yes"/>
      <point x="792" y="40"/>
      <point x="808" y="36"/>
      <point x="818" y="29" type="curve"/>
      <point x="819" y="29" type="line"/>
      <point x="819" y="237" type="line"/>
      <point x="819" y="300"/>
      <point x="824" y="313"/>
      <point x="852" y="320" type="curve"/>
      <point x="864" y="323" type="line"/>
      <point x="864" y="324" type="line"/>
      <point x="819" y="322"/>
      <point x="774" y="321"/>
      <point x="733" y="321" type="curve"/>
      <point x="714" y="321" type="line"/>
      <point x="702" y="321" type="line"/>
      <point x="603" y="321"/>
      <point x="526" y="323"/>
      <point x="481" y="324" type="curve"/>
      <point x="481" y="323" type="line"/>
      <point x="546" y="316" type="line"/>
      <point x="605" y="310"/>
      <point x="616" y="298"/>
      <point x="616" y="237" type="curve"/>
      <point x="616" y="98" type="line" smooth="yes"/>
      <point x="616" y="25"/>
      <point x="576" y="-12"/>
      <point x="495" y="-12" type="curve" smooth="yes"/>
      <point x="349" y="-12"/>
      <point x="260" y="119"/>
      <point x="260" y="335" type="curve" smooth="yes"/>
      <point x="260" y="570"/>
      <point x="368" y="715"/>
      <point x="542" y="715" type="curve" smooth="yes"/>
      <point x="692" y="715"/>
      <point x="798" y="627"/>
      <point x="817" y="458" type="curve"/>
      <point x="818" y="458" type="line"/>
      <point x="817" y="528"/>
      <point x="813" y="600"/>
      <point x="784" y="668" type="curve"/>
      <point x="693" y="668"/>
      <point x="653" y="722"/>
      <point x="494" y="722" type="curve" smooth="yes"/>
      <point x="228" y="722"/>
      <point x="50" y="572"/>
      <point x="50" y="348" type="curve" smooth="yes"/>
      <point x="50" y="134"/>
      <point x="221" y="-14"/>
    </contour>
    <contour>
      <point x="817" y="458" type="curve"/>
      <point x="818" y="458" type="line"/>
      <point x="818" y="745"/>
      <point x="708" y="719"/>
      <point x="708" y="824" type="curve" smooth="yes"/>
      <point x="708" y="856"/>
      <point x="720" y="869"/>
      <point x="740" y="869" type="curve" smooth="yes"/>
      <point x="773" y="869"/>
      <point x="809" y="821"/>
      <point x="863" y="821" type="curve" smooth="yes"/>
      <point x="903" y="821"/>
      <point x="934" y="848"/>
      <point x="934" y="890" type="curve" smooth="yes"/>
      <point x="934" y="940"/>
      <point x="899" y="967"/>
      <point x="843" y="967" type="curve" smooth="yes"/>
      <point x="764" y="967"/>
      <point x="707" y="908"/>
      <point x="707" y="824" type="curve" smooth="yes"/>
      <point x="707" y="718"/>
      <point x="817" y="743"/>
    </contour>
  </outline>
</glyph>
<glyph name="khook" format="2">
  <advance width="720"/>
  <unicode hex="0199"/>
  <anchor x="283" y="260" name="#entry"/>
  <anchor x="283" y="260" name="#exit"/>
  <anchor x="749" y="520" name="2ndTittle"/>
  <anchor x="409" y="0" name="^exit"/>
  <anchor x="103" y="520" name="bar"/>
  <anchor x="193" y="520" name="center"/>
  <anchor x="103" y="260" name="stem"/>
  <anchor x="327" y="771" name="top"/>
  <outline>
    <contour>
      <point x="103" y="260" type="line"/>
      <point x="283" y="260" type="line"/>
      <point x="283" y="579" type="line"/>
      <point x="283" y="714"/>
      <point x="321" y="779"/>
      <point x="400" y="779" type="curve"/>
      <point x="420" y="779"/>
      <point x="430" y="770"/>
      <point x="430" y="752" type="curve"/>
      <point x="430" y="722"/>
      <point x="391" y="686"/>
      <point x="391" y="643" type="curve"/>
      <point x="391" y="605"/>
      <point x="420" y="581"/>
      <point x="468" y="581" type="curve"/>
      <point x="523" y="581"/>
      <point x="558" y="612"/>
      <point x="558" y="662" type="curve"/>
      <point x="558" y="736"/>
      <point x="484" y="782"/>
      <point x="364" y="782" type="curve"/>
      <point x="197" y="782"/>
      <point x="103" y="691"/>
      <point x="103" y="537" type="curve"/>
    </contour>
    <component base="_LC-baseline-normal-narrow"/>
    <component base="_LC-k-legs" xOffset="244"/>
  </outline>
</glyph>
<glyph name="lambdastroke-latin" format="2">
  <advance width="671"/>
  <unicode hex="019B"/>
  <anchor x="339" y="0" name="bottom"/>
  <anchor x="339" y="250" name="center"/>
  <anchor x="339" y="771" name="top"/>
  <outline>
    <contour>
      <point x="278" y="74" type="curve"/>
      <point x="437" y="396" type="line"/>
      <point x="434" y="401" type="line"/>
      <point x="508" y="230" type="line"/>
      <point x="567" y="92"/>
      <point x="559" y="13"/>
      <point x="485" y="2" type="curve"/>
      <point x="479" y="1" type="line"/>
      <point x="479" y="0" type="line"/>
      <point x="531" y="2"/>
      <point x="552" y="3"/>
      <point x="585" y="3" type="curve"/>
      <point x="617" y="3"/>
      <point x="636" y="2"/>
      <point x="671" y="0" type="curve"/>
      <point x="671" y="1" type="line"/>
      <point x="654" y="8" type="line"/>
      <point x="608" y="27"/>
      <point x="579" y="69"/>
      <point x="509" y="230" type="curve"/>
      <point x="347" y="607" type="line"/>
      <point x="346" y="607" type="line"/>
      <point x="100" y="108" type="line"/>
      <point x="58" y="21"/>
      <point x="49" y="14"/>
      <point x="0" y="1" type="curve"/>
      <point x="0" y="0" type="line"/>
      <point x="50" y="3"/>
      <point x="97" y="3"/>
      <point x="162" y="3" type="curve"/>
      <point x="191" y="3"/>
      <point x="220" y="2"/>
      <point x="255" y="0" type="curve"/>
      <point x="258" y="27"/>
      <point x="267" y="52"/>
    </contour>
    <contour>
      <point x="128" y="525" type="line"/>
      <point x="347" y="607" type="line"/>
      <point x="346" y="608" type="line"/>
      <point x="127" y="526" type="line"/>
    </contour>
    <contour>
      <point x="350" y="598" type="line"/>
      <point x="351" y="598" type="line"/>
      <point x="329" y="651" type="line" smooth="yes"/>
      <point x="308" y="701"/>
      <point x="275" y="782"/>
      <point x="162" y="782" type="curve" smooth="yes"/>
      <point x="90" y="782"/>
      <point x="44" y="748"/>
      <point x="44" y="694" type="curve" smooth="yes"/>
      <point x="44" y="646"/>
      <point x="80" y="613"/>
      <point x="134" y="613" type="curve" smooth="yes"/>
      <point x="175" y="613"/>
      <point x="201" y="632"/>
      <point x="201" y="663" type="curve" smooth="yes"/>
      <point x="201" y="700"/>
      <point x="163" y="732"/>
      <point x="163" y="757" type="curve" smooth="yes"/>
      <point x="163" y="770"/>
      <point x="171" y="775"/>
      <point x="186" y="775" type="curve" smooth="yes"/>
      <point x="250" y="775"/>
      <point x="293" y="732"/>
      <point x="321" y="666" type="curve" smooth="yes"/>
    </contour>
    <contour>
      <point x="347" y="607" type="line"/>
      <point x="539" y="679" type="line"/>
      <point x="538" y="680" type="line"/>
      <point x="346" y="608" type="line"/>
    </contour>
  </outline>
</glyph>
<glyph name="Mturned" format="2">
  <advance width="1595"/>
  <unicode hex="019C"/>
  <anchor x="800" y="0" name="bottom"/>
  <anchor x="800" y="708" name="top"/>
  <outline>
    <contour>
      <point x="443" y="-14" type="curve" smooth="yes"/>
      <point x="665" y="-14"/>
      <point x="777" y="91"/>
      <point x="777" y="300" type="curve"/>
      <point x="776" y="300" type="line"/>
      <point x="776" y="120"/>
      <point x="685" y="11"/>
      <point x="524" y="11" type="curve" smooth="yes"/>
      <point x="401" y="11"/>
      <point x="333" y="108"/>
      <point x="333" y="284" type="curve" smooth="yes"/>
      <point x="333" y="621" type="line"/>
      <point x="333" y="685"/>
      <point x="345" y="695"/>
      <point x="401" y="704" type="curve"/>
      <point x="423" y="707" type="line"/>
      <point x="423" y="708" type="line"/>
      <point x="387" y="707"/>
      <point x="326" y="705"/>
      <point x="247" y="705" type="curve"/>
      <point x="234" y="705" type="line"/>
      <point x="216" y="706" type="line"/>
      <point x="137" y="705"/>
      <point x="76" y="708"/>
      <point x="40" y="709" type="curve"/>
      <point x="40" y="708" type="line"/>
      <point x="62" y="705" type="line"/>
      <point x="118" y="696"/>
      <point x="130" y="686"/>
      <point x="130" y="622" type="curve"/>
      <point x="130" y="318" type="line" smooth="yes"/>
      <point x="130" y="84"/>
      <point x="241" y="-14"/>
    </contour>
    <contour>
      <point x="1009" y="-14" type="curve" smooth="yes"/>
      <point x="1198" y="-14"/>
      <point x="1293" y="91"/>
      <point x="1293" y="300" type="curve"/>
      <point x="1292" y="300" type="line"/>
      <point x="1292" y="120"/>
      <point x="1214" y="11"/>
      <point x="1090" y="11" type="curve" smooth="yes"/>
      <point x="967" y="11"/>
      <point x="899" y="108"/>
      <point x="899" y="284" type="curve" smooth="yes"/>
      <point x="899" y="621" type="line"/>
      <point x="899" y="685"/>
      <point x="911" y="695"/>
      <point x="967" y="704" type="curve"/>
      <point x="989" y="707" type="line"/>
      <point x="989" y="708" type="line"/>
      <point x="953" y="707"/>
      <point x="892" y="705"/>
      <point x="813" y="705" type="curve"/>
      <point x="800" y="705" type="line"/>
      <point x="782" y="706" type="line"/>
      <point x="703" y="705"/>
      <point x="642" y="708"/>
      <point x="606" y="709" type="curve"/>
      <point x="606" y="708" type="line"/>
      <point x="628" y="705" type="line"/>
      <point x="684" y="696"/>
      <point x="696" y="686"/>
      <point x="696" y="622" type="curve"/>
      <point x="696" y="318" type="line" smooth="yes"/>
      <point x="696" y="84"/>
      <point x="807" y="-14"/>
    </contour>
    <contour>
      <point x="1262" y="0" type="line"/>
      <point x="1262" y="70" type="line"/>
      <point x="1262" y="-10" type="line"/>
      <point x="1320" y="0"/>
      <point x="1370" y="4"/>
      <point x="1444" y="4" type="curve"/>
      <point x="1480" y="4"/>
      <point x="1507" y="3"/>
      <point x="1555" y="0" type="curve"/>
      <point x="1555" y="1" type="line"/>
      <point x="1522" y="5" type="line"/>
      <point x="1480" y="11"/>
      <point x="1465" y="29"/>
      <point x="1465" y="84" type="curve"/>
      <point x="1465" y="621" type="line"/>
      <point x="1465" y="685"/>
      <point x="1477" y="695"/>
      <point x="1533" y="704" type="curve"/>
      <point x="1555" y="707" type="line"/>
      <point x="1555" y="708" type="line"/>
      <point x="1519" y="707"/>
      <point x="1458" y="705"/>
      <point x="1379" y="705" type="curve"/>
      <point x="1366" y="705" type="line"/>
      <point x="1348" y="706" type="line"/>
      <point x="1269" y="705"/>
      <point x="1208" y="708"/>
      <point x="1172" y="709" type="curve"/>
      <point x="1172" y="708" type="line"/>
      <point x="1194" y="705" type="line"/>
      <point x="1250" y="696"/>
      <point x="1262" y="686"/>
      <point x="1262" y="622" type="curve"/>
    </contour>
  </outline>
</glyph>
<glyph name="nlongrightleg" format="2">
  <advance width="756"/>
  <unicode hex="019E"/>
  <anchor x="103" y="260" name="#entry"/>
  <anchor x="283" y="260" name="#exit"/>
  <anchor x="-137" y="0" name="%entry"/>
  <anchor x="103" y="0" name="%exit"/>
  <anchor x="0" y="0" name="^entry"/>
  <anchor x="374" y="0" name="^exit"/>
  <anchor x="391" y="0" name="bottom"/>
  <anchor x="283" y="260" name="reversedExit"/>
  <anchor x="103" y="260" name="stem"/>
  <anchor x="379" y="520" name="top"/>
  <anchor x="283" y="519" name="topright"/>
  <outline>
    <contour>
      <point x="193" y="3" type="curve"/>
      <point x="193" y="3" type="line"/>
      <point x="193" y="3" type="line"/>
      <point x="253" y="3"/>
      <point x="288" y="3"/>
      <point x="358" y="0" type="curve"/>
      <point x="358" y="1" type="line"/>
      <point x="347" y="2" type="line"/>
      <point x="299" y="6"/>
      <point x="283" y="24"/>
      <point x="283" y="73" type="curve"/>
      <point x="283" y="260" type="line"/>
      <point x="103" y="260" type="line"/>
      <point x="103" y="73" type="line"/>
      <point x="103" y="24"/>
      <point x="87" y="6"/>
      <point x="39" y="2" type="curve"/>
      <point x="28" y="1" type="line"/>
      <point x="28" y="0" type="line"/>
      <point x="98" y="3"/>
      <point x="133" y="3"/>
    </contour>
    <contour>
      <point x="103" y="260" type="line"/>
      <point x="283" y="260" type="line"/>
      <point x="283" y="519" type="line"/>
      <point x="283" y="530" type="line"/>
      <point x="232" y="520"/>
      <point x="187" y="516"/>
      <point x="129" y="516" type="curve"/>
      <point x="94" y="516"/>
      <point x="72" y="516"/>
      <point x="28" y="519" type="curve"/>
      <point x="28" y="518" type="line"/>
      <point x="39" y="517" type="line"/>
      <point x="87" y="513"/>
      <point x="103" y="492"/>
      <point x="103" y="436" type="curve"/>
    </contour>
    <contour>
      <point x="485" y="260" type="line"/>
      <point x="665" y="260" type="line"/>
      <point x="665" y="334" type="line" smooth="yes"/>
      <point x="665" y="471"/>
      <point x="606" y="533"/>
      <point x="474" y="533" type="curve" smooth="yes"/>
      <point x="369" y="533"/>
      <point x="305" y="492"/>
      <point x="260" y="392" type="curve"/>
      <point x="261" y="391" type="line"/>
      <point x="297" y="467"/>
      <point x="335" y="498"/>
      <point x="391" y="498" type="curve" smooth="yes"/>
      <point x="457" y="498"/>
      <point x="485" y="463"/>
      <point x="485" y="384" type="curve" smooth="yes"/>
    </contour>
    <contour>
      <point x="575" y="-228" type="curve"/>
      <point x="575" y="-228" type="line"/>
      <point x="575" y="-228" type="line"/>
      <point x="635" y="-228"/>
      <point x="670" y="-228"/>
      <point x="740" y="-231" type="curve"/>
      <point x="740" y="-230" type="line"/>
      <point x="729" y="-229" type="line"/>
      <point x="681" y="-225"/>
      <point x="665" y="-207"/>
      <point x="665" y="-158" type="curve"/>
      <point x="665" y="260" type="line"/>
      <point x="485" y="260" type="line"/>
      <point x="485" y="-158" type="line"/>
      <point x="485" y="-207"/>
      <point x="469" y="-225"/>
      <point x="421" y="-229" type="curve"/>
      <point x="410" y="-230" type="line"/>
      <point x="410" y="-231" type="line"/>
      <point x="480" y="-228"/>
      <point x="515" y="-228"/>
    </contour>
  </outline>
</glyph>
<glyph name="phook" format="2">
  <advance width="738"/>
  <unicode hex="01A5"/>
  <anchor x="283" y="260" name="#entry"/>
  <anchor x="283" y="260" name="#exit"/>
  <anchor x="749" y="520" name="2ndTittle"/>
  <anchor x="409" y="0" name="^exit"/>
  <anchor x="103" y="520" name="bar"/>
  <anchor x="365" y="-231" name="bottom"/>
  <anchor x="193" y="520" name="center"/>
  <anchor x="103" y="0" name="lower-left"/>
  <anchor x="103" y="260" name="stem"/>
  <anchor x="327" y="771" name="top"/>
  <anchor x="103" y="520" name="top-left"/>
  <outline>
    <contour>
      <point x="103" y="260" type="line"/>
      <point x="283" y="260" type="line"/>
      <point x="283" y="579" type="line"/>
      <point x="283" y="714"/>
      <point x="321" y="779"/>
      <point x="400" y="779" type="curve"/>
      <point x="420" y="779"/>
      <point x="430" y="770"/>
      <point x="430" y="752" type="curve"/>
      <point x="430" y="722"/>
      <point x="391" y="686"/>
      <point x="391" y="643" type="curve"/>
      <point x="391" y="605"/>
      <point x="420" y="581"/>
      <point x="468" y="581" type="curve"/>
      <point x="523" y="581"/>
      <point x="558" y="612"/>
      <point x="558" y="662" type="curve"/>
      <point x="558" y="736"/>
      <point x="484" y="782"/>
      <point x="364" y="782" type="curve"/>
      <point x="197" y="782"/>
      <point x="103" y="691"/>
      <point x="103" y="537" type="curve"/>
    </contour>
    <contour>
      <point x="193" y="-228" type="curve"/>
      <point x="193" y="-228" type="line"/>
      <point x="193" y="-228" type="line"/>
      <point x="268" y="-228"/>
      <point x="311" y="-228"/>
      <point x="398" y="-231" type="curve"/>
      <point x="398" y="-230" type="line"/>
      <point x="367" y="-228" type="line"/>
      <point x="298" y="-223"/>
      <point x="283" y="-211"/>
      <point x="283" y="-158" type="curve"/>
      <point x="283" y="260" type="line"/>
      <point x="103" y="260" type="line"/>
      <point x="103" y="-158" type="line"/>
      <point x="103" y="-207"/>
      <point x="87" y="-225"/>
      <point x="39" y="-229" type="curve"/>
      <point x="28" y="-230" type="line"/>
      <point x="28" y="-231" type="line"/>
      <point x="98" y="-228"/>
      <point x="133" y="-228"/>
    </contour>
    <contour>
      <point x="448" y="534" type="curve" smooth="yes"/>
      <point x="372" y="534"/>
      <point x="311" y="508"/>
      <point x="268" y="433" type="curve"/>
      <point x="269" y="432" type="line"/>
      <point x="302" y="488"/>
      <point x="339" y="503"/>
      <point x="374" y="503" type="curve" smooth="yes"/>
      <point x="454" y="503"/>
      <point x="497" y="418"/>
      <point x="497" y="258" type="curve" smooth="yes"/>
      <point x="497" y="90"/>
      <point x="450" y="5"/>
      <point x="358" y="5" type="curve" smooth="yes"/>
      <point x="324" y="5"/>
      <point x="297" y="19"/>
      <point x="280" y="37" type="curve"/>
      <point x="279" y="37" type="line"/>
      <point x="298" y="12"/>
      <point x="357" y="-13"/>
      <point x="424" y="-13" type="curve" smooth="yes"/>
      <point x="585" y="-13"/>
      <point x="684" y="94"/>
      <point x="684" y="267" type="curve" smooth="yes"/>
      <point x="684" y="432"/>
      <point x="594" y="534"/>
    </contour>
  </outline>
</glyph>
<glyph name="Esh" format="2">
  <advance width="751"/>
  <unicode hex="01A9"/>
  <outline>
    <contour>
      <point x="47" y="0" type="line"/>
      <point x="134" y="3"/>
      <point x="259" y="3"/>
      <point x="350" y="3" type="curve" smooth="yes"/>
      <point x="379" y="3" type="line"/>
      <point x="522" y="3"/>
      <point x="609" y="2"/>
      <point x="679" y="0" type="curve"/>
      <point x="676" y="92"/>
      <point x="680" y="206"/>
      <point x="687" y="318" type="curve"/>
      <point x="686" y="318" type="line"/>
      <point x="648" y="214"/>
      <point x="587" y="163"/>
      <point x="454" y="163" type="curve"/>
      <point x="238" y="163" type="line"/>
      <point x="216" y="143" type="line"/>
      <point x="505" y="389" type="line"/>
      <point x="272" y="704" type="line"/>
      <point x="332" y="704" type="line"/>
      <point x="495" y="704"/>
      <point x="586" y="631"/>
      <point x="651" y="508" type="curve"/>
      <point x="652" y="508" type="line"/>
      <point x="646" y="577"/>
      <point x="643" y="646"/>
      <point x="646" y="708" type="curve"/>
      <point x="576" y="706"/>
      <point x="489" y="705"/>
      <point x="346" y="705" type="curve"/>
      <point x="286" y="705" type="line" smooth="yes"/>
      <point x="208" y="705"/>
      <point x="119" y="705"/>
      <point x="43" y="708" type="curve"/>
      <point x="43" y="707" type="line"/>
      <point x="366" y="271" type="line"/>
      <point x="374" y="279" type="line"/>
      <point x="47" y="1" type="line"/>
    </contour>
  </outline>
</glyph>
<glyph name="Thook" format="2">
  <advance width="859"/>
  <unicode hex="01AC"/>
  <anchor x="554" y="0" name="#exit"/>
  <anchor x="554" y="0" name="%exit"/>
  <anchor x="452" y="0" name="bottom"/>
  <outline>
    <contour>
      <point x="437" y="3" type="curve"/>
      <point x="453" y="3" type="line"/>
      <point x="468" y="3" type="line"/>
      <point x="555" y="3"/>
      <point x="622" y="1"/>
      <point x="662" y="0" type="curve"/>
      <point x="662" y="1" type="line"/>
      <point x="623" y="5" type="line"/>
      <point x="566" y="13"/>
      <point x="554" y="24"/>
      <point x="554" y="87" type="curve"/>
      <point x="554" y="250" type="line"/>
      <point x="351" y="250" type="line"/>
      <point x="351" y="87" type="line"/>
      <point x="351" y="24"/>
      <point x="339" y="13"/>
      <point x="282" y="6" type="curve"/>
      <point x="243" y="2" type="line"/>
      <point x="243" y="1" type="line"/>
      <point x="282" y="1"/>
      <point x="350" y="3"/>
    </contour>
    <component base="_UC-T-hook-top-stroke"/>
    <component base="_UC-T-upper-stroke" xOffset="321"/>
  </outline>
</glyph>
